%TF.GenerationSoftware,Altium Limited,Altium Designer,24.10.1 (45)*%
G04 Layer_Color=65535*
%FSLAX45Y45*%
%MOMM*%
%TF.SameCoordinates,BD69F3EC-0890-4BE1-91DE-E58431A91F3E*%
%TF.FilePolarity,Positive*%
%TF.FileFunction,Legend,Top*%
%TF.Part,Single*%
G01*
G75*
%TA.AperFunction,NonConductor*%
%ADD38C,0.50800*%
%ADD39C,0.20000*%
%ADD40C,0.15240*%
%ADD41C,0.12700*%
%ADD42C,0.25400*%
G36*
X-309200Y-65913D02*
Y-104013D01*
X-334600D01*
Y-65913D01*
X-309200D01*
D02*
G37*
G36*
X321600Y-115926D02*
Y-154026D01*
X347000D01*
Y-115926D01*
X321600D01*
D02*
G37*
G36*
X12150Y305456D02*
Y330856D01*
X50250D01*
Y305456D01*
X12150D01*
D02*
G37*
D38*
X1130300Y-386410D02*
G03*
X1130300Y-386410I-38100J0D01*
G01*
D39*
X-413400Y-768000D02*
G03*
X-413400Y-768000I-10000J0D01*
G01*
X53200Y1632700D02*
Y1845700D01*
X-686800Y1632700D02*
Y1845700D01*
X395800Y412900D02*
X423300D01*
X313300D02*
X340800D01*
X349400Y272900D02*
X423300D01*
X340800Y412900D02*
X395800D01*
X317500Y546100D02*
X419100D01*
X666600Y1024500D02*
Y1134500D01*
X806600Y1024500D02*
Y1134500D01*
X381200Y1009800D02*
X491200D01*
X381200Y869800D02*
X491200D01*
X-646900Y446000D02*
X-546900D01*
X-646900Y316000D02*
X-546900D01*
X-748500Y-189000D02*
X-648500D01*
X-748500Y-319000D02*
X-648500D01*
X247500Y651120D02*
Y761120D01*
X387500Y651120D02*
Y761120D01*
X-31900Y656200D02*
Y766200D01*
X108100Y656200D02*
Y766200D01*
X220000Y1809900D02*
X330000D01*
X220000Y1669900D02*
X330000D01*
X559600Y-138200D02*
X659600D01*
X559600Y-268200D02*
X659600D01*
X-646900Y163600D02*
X-546900D01*
X-646900Y293600D02*
X-546900D01*
X283400Y-685924D02*
Y-558676D01*
X148400Y-685924D02*
Y-558676D01*
X42200Y399900D02*
X152200D01*
X42200Y539900D02*
X152200D01*
X-331700Y-572600D02*
Y-472600D01*
X-201700Y-572600D02*
Y-472600D01*
X-646900Y-141200D02*
X-546900D01*
X-646900Y-11200D02*
X-546900D01*
X-646900Y11200D02*
X-546900D01*
X-646900Y141200D02*
X-546900D01*
X-484100Y572300D02*
Y672300D01*
X-354100Y572300D02*
Y672300D01*
X666600Y673300D02*
Y783300D01*
X806600Y673300D02*
Y783300D01*
X483640Y104940D02*
Y204940D01*
X613640Y104940D02*
Y204940D01*
D40*
X82800Y-1544955D02*
Y-1344295D01*
X211574D02*
X284226D01*
X413000Y-1544955D02*
Y-1344295D01*
X864580Y-449910D02*
X1519900D01*
Y-1940890D02*
Y-449910D01*
X864580Y-1940890D02*
X1519900D01*
X864580D02*
Y-449910D01*
X-289400Y285656D02*
X-215599D01*
X301800Y211899D02*
Y285656D01*
X227999Y-305544D02*
X301800D01*
X-289400D02*
X-215599D01*
X-289400Y211899D02*
Y285656D01*
X227999D02*
X301800D01*
Y-305544D02*
Y-231787D01*
X-289400Y-305544D02*
Y-231787D01*
D41*
X-743400Y-646150D02*
Y-599850D01*
X-493400Y-646150D02*
Y-599850D01*
X1460475Y2095500D02*
X1396996D01*
X1384300Y2082804D01*
Y2057412D01*
X1396996Y2044717D01*
X1460475D01*
Y2019325D02*
X1409692D01*
X1384300Y1993933D01*
X1409692Y1968541D01*
X1460475D01*
X1447779Y1892366D02*
X1460475Y1905061D01*
Y1930453D01*
X1447779Y1943149D01*
X1435083D01*
X1422388Y1930453D01*
Y1905061D01*
X1409692Y1892366D01*
X1396996D01*
X1384300Y1905061D01*
Y1930453D01*
X1396996Y1943149D01*
X1460475Y1866974D02*
X1384300D01*
Y1828886D01*
X1396996Y1816190D01*
X1447779D01*
X1460475Y1828886D01*
Y1866974D01*
X1384300Y1663840D02*
Y1714623D01*
X1435083Y1663840D01*
X1447779D01*
X1460475Y1676535D01*
Y1701927D01*
X1447779Y1714623D01*
Y1638448D02*
X1460475Y1625752D01*
Y1600360D01*
X1447779Y1587664D01*
X1396996D01*
X1384300Y1600360D01*
Y1625752D01*
X1396996Y1638448D01*
X1447779D01*
X1384300Y1511489D02*
Y1562272D01*
X1435083Y1511489D01*
X1447779D01*
X1460475Y1524185D01*
Y1549577D01*
X1447779Y1562272D01*
X1460475Y1435314D02*
Y1486097D01*
X1422388D01*
X1435083Y1460705D01*
Y1448009D01*
X1422388Y1435314D01*
X1396996D01*
X1384300Y1448009D01*
Y1473401D01*
X1396996Y1486097D01*
X1536692Y2095500D02*
X1612867D01*
X1587475Y2070108D01*
X1612867Y2044717D01*
X1536692D01*
X1587475Y2006629D02*
Y1981237D01*
X1574780Y1968541D01*
X1536692D01*
Y2006629D01*
X1549388Y2019325D01*
X1562084Y2006629D01*
Y1968541D01*
X1587475Y1943149D02*
X1549388D01*
X1536692Y1930453D01*
Y1892366D01*
X1523996D01*
X1511300Y1905061D01*
Y1917757D01*
X1536692Y1892366D02*
X1587475D01*
Y1854278D02*
Y1828886D01*
X1574780Y1816190D01*
X1536692D01*
Y1854278D01*
X1549388Y1866974D01*
X1562084Y1854278D01*
Y1816190D01*
X1612867Y1714623D02*
X1536692D01*
X1562084Y1689231D01*
X1536692Y1663840D01*
X1612867D01*
X1536692Y1638448D02*
Y1613056D01*
Y1625752D01*
X1587475D01*
Y1638448D01*
X1536692Y1574968D02*
X1587475D01*
Y1536881D01*
X1574780Y1524185D01*
X1536692D01*
Y1498793D02*
Y1473401D01*
Y1486097D01*
X1612867D01*
Y1498793D01*
X1587475Y1422618D02*
Y1397226D01*
X1574780Y1384530D01*
X1536692D01*
Y1422618D01*
X1549388Y1435314D01*
X1562084Y1422618D01*
Y1384530D01*
X1536692Y1359138D02*
X1587475D01*
Y1321050D01*
X1574780Y1308355D01*
X1536692D01*
X1612867Y1232179D02*
X1536692D01*
Y1270267D01*
X1549388Y1282963D01*
X1574780D01*
X1587475Y1270267D01*
Y1232179D01*
X1574780Y1206788D02*
Y1156004D01*
X1600171Y1079829D02*
X1612867Y1092524D01*
Y1117916D01*
X1600171Y1130612D01*
X1549388D01*
X1536692Y1117916D01*
Y1092524D01*
X1549388Y1079829D01*
X1574780D01*
Y1105220D01*
X1587475Y1041741D02*
Y1016349D01*
X1574780Y1003653D01*
X1536692D01*
Y1041741D01*
X1549388Y1054437D01*
X1562084Y1041741D01*
Y1003653D01*
X1536692Y940174D02*
Y965566D01*
X1549388Y978261D01*
X1574780D01*
X1587475Y965566D01*
Y940174D01*
X1574780Y927478D01*
X1562084D01*
Y978261D01*
X1600171Y889390D02*
X1587475D01*
Y902086D01*
Y876694D01*
Y889390D01*
X1549388D01*
X1536692Y876694D01*
X1587475Y838607D02*
Y787823D01*
X1536692Y838607D01*
Y787823D01*
X1748339Y2027789D02*
X1765267Y2044717D01*
Y2078572D01*
X1748339Y2095500D01*
X1680628D01*
X1663700Y2078572D01*
Y2044717D01*
X1680628Y2027789D01*
X1748339Y1926221D02*
X1765267Y1943149D01*
Y1977005D01*
X1748339Y1993933D01*
X1680628D01*
X1663700Y1977005D01*
Y1943149D01*
X1680628Y1926221D01*
X1663700Y1892366D02*
Y1858510D01*
Y1875438D01*
X1765267D01*
X1748339Y1892366D01*
X1663700Y1740015D02*
Y1807726D01*
X1731411Y1740015D01*
X1748339D01*
X1765267Y1756943D01*
Y1790798D01*
X1748339Y1807726D01*
Y1706159D02*
X1765267Y1689231D01*
Y1655375D01*
X1748339Y1638448D01*
X1680628D01*
X1663700Y1655375D01*
Y1689231D01*
X1680628Y1706159D01*
X1748339D01*
X1663700Y1604592D02*
Y1570736D01*
Y1587664D01*
X1765267D01*
X1748339Y1604592D01*
X1765267Y1350674D02*
Y1418385D01*
X1663700D01*
Y1350674D01*
X1714483Y1418385D02*
Y1384529D01*
X1731411Y1316818D02*
X1663700Y1282962D01*
X1731411Y1249106D01*
Y1198323D02*
Y1164467D01*
X1714483Y1147539D01*
X1663700D01*
Y1198323D01*
X1680628Y1215251D01*
X1697556Y1198323D01*
Y1147539D01*
X1663700Y1113683D02*
Y1079828D01*
Y1096755D01*
X1765267D01*
Y1113683D01*
Y927477D02*
X1663700D01*
Y876693D01*
X1680628Y859765D01*
X1697556D01*
X1714483Y876693D01*
Y927477D01*
Y876693D01*
X1731411Y859765D01*
X1748339D01*
X1765267Y876693D01*
Y927477D01*
X1663700Y808982D02*
Y775126D01*
X1680628Y758198D01*
X1714483D01*
X1731411Y775126D01*
Y808982D01*
X1714483Y825909D01*
X1680628D01*
X1663700Y808982D01*
X1731411Y707414D02*
Y673559D01*
X1714483Y656631D01*
X1663700D01*
Y707414D01*
X1680628Y724342D01*
X1697556Y707414D01*
Y656631D01*
X1731411Y622775D02*
X1663700D01*
X1697556D01*
X1714483Y605847D01*
X1731411Y588919D01*
Y571991D01*
X1765267Y453496D02*
X1663700D01*
Y504280D01*
X1680628Y521208D01*
X1714483D01*
X1731411Y504280D01*
Y453496D01*
X1629820Y-1687000D02*
X1619240Y-1676421D01*
X1598080D01*
X1587500Y-1687000D01*
Y-1729320D01*
X1598080Y-1739900D01*
X1619240D01*
X1629820Y-1729320D01*
Y-1708160D01*
X1608660D01*
X1650979Y-1739900D02*
Y-1676421D01*
X1693299Y-1739900D01*
Y-1676421D01*
X1714459D02*
Y-1739900D01*
X1746199D01*
X1756779Y-1729320D01*
Y-1687000D01*
X1746199Y-1676421D01*
X1714459D01*
X1629820Y-1483800D02*
X1619240Y-1473221D01*
X1598080D01*
X1587500Y-1483800D01*
Y-1526120D01*
X1598080Y-1536700D01*
X1619240D01*
X1629820Y-1526120D01*
X1693299Y-1483800D02*
X1682719Y-1473221D01*
X1661559D01*
X1650979Y-1483800D01*
Y-1494380D01*
X1661559Y-1504960D01*
X1682719D01*
X1693299Y-1515540D01*
Y-1526120D01*
X1682719Y-1536700D01*
X1661559D01*
X1650979Y-1526120D01*
X1714459Y-1536700D02*
Y-1473221D01*
X1756779Y-1536700D01*
Y-1473221D01*
X1595956Y-1291180D02*
X1587492Y-1282717D01*
X1570564D01*
X1562100Y-1291180D01*
Y-1325036D01*
X1570564Y-1333500D01*
X1587492D01*
X1595956Y-1325036D01*
Y-1308108D01*
X1579028D01*
X1612883Y-1333500D02*
Y-1282717D01*
X1638275D01*
X1646739Y-1291180D01*
Y-1308108D01*
X1638275Y-1316572D01*
X1612883D01*
X1663667Y-1282717D02*
X1680595D01*
X1672131D01*
Y-1333500D01*
X1663667D01*
X1680595D01*
X1731379Y-1282717D02*
X1714451D01*
X1705987Y-1291180D01*
Y-1325036D01*
X1714451Y-1333500D01*
X1731379D01*
X1739842Y-1325036D01*
Y-1291180D01*
X1731379Y-1282717D01*
X1756770Y-1291180D02*
X1765234Y-1282717D01*
X1782162D01*
X1790626Y-1291180D01*
Y-1325036D01*
X1782162Y-1333500D01*
X1765234D01*
X1756770Y-1325036D01*
Y-1291180D01*
X1587500Y-1130300D02*
Y-1066821D01*
X1608660Y-1087980D01*
X1629820Y-1066821D01*
Y-1130300D01*
X1650979Y-1066821D02*
X1672139D01*
X1661559D01*
Y-1130300D01*
X1650979D01*
X1672139D01*
X1746199Y-1077400D02*
X1735619Y-1066821D01*
X1714459D01*
X1703879Y-1077400D01*
Y-1087980D01*
X1714459Y-1098560D01*
X1735619D01*
X1746199Y-1109140D01*
Y-1119720D01*
X1735619Y-1130300D01*
X1714459D01*
X1703879Y-1119720D01*
X1799098Y-1066821D02*
X1777938D01*
X1767358Y-1077400D01*
Y-1119720D01*
X1777938Y-1130300D01*
X1799098D01*
X1809678Y-1119720D01*
Y-1077400D01*
X1799098Y-1066821D01*
X1604420Y-899600D02*
X1593840Y-889021D01*
X1572680D01*
X1562100Y-899600D01*
Y-910180D01*
X1572680Y-920760D01*
X1593840D01*
X1604420Y-931340D01*
Y-941920D01*
X1593840Y-952500D01*
X1572680D01*
X1562100Y-941920D01*
X1667899Y-899600D02*
X1657319Y-889021D01*
X1636159D01*
X1625579Y-899600D01*
Y-941920D01*
X1636159Y-952500D01*
X1657319D01*
X1667899Y-941920D01*
X1689059Y-889021D02*
Y-952500D01*
X1731379D01*
X1752538Y-889021D02*
Y-952500D01*
Y-931340D01*
X1794858Y-889021D01*
X1763118Y-920760D01*
X1794858Y-952500D01*
X1587500Y-749300D02*
Y-685821D01*
X1608660Y-706980D01*
X1629820Y-685821D01*
Y-749300D01*
X1682719Y-685821D02*
X1661559D01*
X1650979Y-696400D01*
Y-738720D01*
X1661559Y-749300D01*
X1682719D01*
X1693299Y-738720D01*
Y-696400D01*
X1682719Y-685821D01*
X1756779Y-696400D02*
X1746199Y-685821D01*
X1725039D01*
X1714459Y-696400D01*
Y-706980D01*
X1725039Y-717560D01*
X1746199D01*
X1756779Y-728140D01*
Y-738720D01*
X1746199Y-749300D01*
X1725039D01*
X1714459Y-738720D01*
X1777938Y-685821D02*
X1799098D01*
X1788518D01*
Y-749300D01*
X1777938D01*
X1799098D01*
X571500Y-1687000D02*
X582080Y-1676421D01*
X603240D01*
X613820Y-1687000D01*
Y-1697580D01*
X603240Y-1708160D01*
X592660D01*
X603240D01*
X613820Y-1718740D01*
Y-1729320D01*
X603240Y-1739900D01*
X582080D01*
X571500Y-1729320D01*
X634979Y-1676421D02*
Y-1718740D01*
X656139Y-1739900D01*
X677299Y-1718740D01*
Y-1676421D01*
X698459Y-1687000D02*
X709039Y-1676421D01*
X730199D01*
X740779Y-1687000D01*
Y-1697580D01*
X730199Y-1708160D01*
X719619D01*
X730199D01*
X740779Y-1718740D01*
Y-1729320D01*
X730199Y-1739900D01*
X709039D01*
X698459Y-1729320D01*
X613820Y-1483800D02*
X603240Y-1473221D01*
X582080D01*
X571500Y-1483800D01*
Y-1526120D01*
X582080Y-1536700D01*
X603240D01*
X613820Y-1526120D01*
Y-1504960D01*
X592660D01*
X634979Y-1536700D02*
Y-1473221D01*
X677299Y-1536700D01*
Y-1473221D01*
X698459D02*
Y-1536700D01*
X730199D01*
X740779Y-1526120D01*
Y-1483800D01*
X730199Y-1473221D01*
X698459D01*
X520700Y-1333500D02*
Y-1270021D01*
X552440D01*
X563020Y-1280600D01*
Y-1301760D01*
X552440Y-1312340D01*
X520700D01*
X541860D02*
X563020Y-1333500D01*
X615919D02*
X594759D01*
X584179Y-1322920D01*
Y-1301760D01*
X594759Y-1291180D01*
X615919D01*
X626499Y-1301760D01*
Y-1312340D01*
X584179D01*
X647659Y-1333500D02*
X679399D01*
X689979Y-1322920D01*
X679399Y-1312340D01*
X658239D01*
X647659Y-1301760D01*
X658239Y-1291180D01*
X689979D01*
X742878Y-1333500D02*
X721718D01*
X711138Y-1322920D01*
Y-1301760D01*
X721718Y-1291180D01*
X742878D01*
X753458Y-1301760D01*
Y-1312340D01*
X711138D01*
X785198Y-1280600D02*
Y-1291180D01*
X774618D01*
X795777D01*
X785198D01*
Y-1322920D01*
X795777Y-1333500D01*
X563020Y-1077400D02*
X552440Y-1066821D01*
X531280D01*
X520700Y-1077400D01*
Y-1119720D01*
X531280Y-1130300D01*
X552440D01*
X563020Y-1119720D01*
Y-1098560D01*
X541860D01*
X584179Y-1130300D02*
Y-1066821D01*
X615919D01*
X626499Y-1077400D01*
Y-1098560D01*
X615919Y-1109140D01*
X584179D01*
X647659Y-1066821D02*
X668819D01*
X658239D01*
Y-1130300D01*
X647659D01*
X668819D01*
X732298Y-1066821D02*
X711138D01*
X700558Y-1077400D01*
Y-1119720D01*
X711138Y-1130300D01*
X732298D01*
X742878Y-1119720D01*
Y-1077400D01*
X732298Y-1066821D01*
X806358Y-1130300D02*
X764038D01*
X806358Y-1087980D01*
Y-1077400D01*
X795778Y-1066821D01*
X774618D01*
X764038Y-1077400D01*
X563020Y-874200D02*
X552440Y-863621D01*
X531280D01*
X520700Y-874200D01*
Y-916520D01*
X531280Y-927100D01*
X552440D01*
X563020Y-916520D01*
Y-895360D01*
X541860D01*
X584179Y-927100D02*
Y-863621D01*
X615919D01*
X626499Y-874200D01*
Y-895360D01*
X615919Y-905940D01*
X584179D01*
X647659Y-863621D02*
X668819D01*
X658239D01*
Y-927100D01*
X647659D01*
X668819D01*
X732298Y-863621D02*
X711138D01*
X700558Y-874200D01*
Y-916520D01*
X711138Y-927100D01*
X732298D01*
X742878Y-916520D01*
Y-874200D01*
X732298Y-863621D01*
X764038Y-874200D02*
X774618Y-863621D01*
X795778D01*
X806358Y-874200D01*
Y-884780D01*
X795778Y-895360D01*
X785198D01*
X795778D01*
X806358Y-905940D01*
Y-916520D01*
X795778Y-927100D01*
X774618D01*
X764038Y-916520D01*
X571500Y-639261D02*
Y-681581D01*
X592660Y-702740D01*
X613820Y-681581D01*
Y-639261D01*
X634979Y-702740D02*
Y-639261D01*
X666719D01*
X677299Y-649841D01*
Y-671000D01*
X666719Y-681581D01*
X634979D01*
X656139D02*
X677299Y-702740D01*
X730199D02*
X709039D01*
X698459Y-692160D01*
Y-671000D01*
X709039Y-660421D01*
X730199D01*
X740779Y-671000D01*
Y-681581D01*
X698459D01*
X783098Y-723900D02*
X793678D01*
X804258Y-713320D01*
Y-660421D01*
X772518D01*
X761938Y-671000D01*
Y-692160D01*
X772518Y-702740D01*
X804258D01*
X-24519Y-1701800D02*
X60120Y-1617161D01*
Y-1701800D02*
X-24519Y-1617161D01*
X17801Y-1701800D02*
Y-1617161D01*
X60120Y-1659480D02*
X-24519D01*
X-435999Y-393700D02*
X-351360Y-309061D01*
Y-393700D02*
X-435999Y-309061D01*
X-393679Y-393700D02*
Y-309061D01*
X-351360Y-351380D02*
X-435999D01*
X190521Y-1739912D02*
Y-1803392D01*
X203217Y-1816088D01*
X228608D01*
X241304Y-1803392D01*
Y-1739912D01*
X266696Y-1752608D02*
X279392Y-1739912D01*
X304784D01*
X317479Y-1752608D01*
Y-1765304D01*
X304784Y-1778000D01*
X292088D01*
X304784D01*
X317479Y-1790696D01*
Y-1803392D01*
X304784Y-1816088D01*
X279392D01*
X266696Y-1803392D01*
X1117621Y393712D02*
Y469888D01*
X1155708D01*
X1168404Y457192D01*
Y431800D01*
X1155708Y419104D01*
X1117621D01*
X1143012D02*
X1168404Y393712D01*
X1244579D02*
X1193796D01*
X1244579Y444496D01*
Y457192D01*
X1231884Y469888D01*
X1206492D01*
X1193796Y457192D01*
X-850892Y-355612D02*
Y-368308D01*
X-825500Y-393700D01*
X-800108Y-368308D01*
Y-355612D01*
X-825500Y-393700D02*
Y-431788D01*
X355621Y-304812D02*
Y-368292D01*
X368317Y-380988D01*
X393708D01*
X406404Y-368292D01*
Y-304812D01*
X482579Y-380988D02*
X431796D01*
X482579Y-330204D01*
Y-317508D01*
X469884Y-304812D01*
X444492D01*
X431796Y-317508D01*
X774717Y12712D02*
Y88888D01*
X812804D01*
X825500Y76192D01*
Y50800D01*
X812804Y38104D01*
X774717D01*
X800108D02*
X825500Y12712D01*
X850892D02*
X876284D01*
X863588D01*
Y88888D01*
X850892Y76192D01*
X469921Y380988D02*
Y304812D01*
X520704D01*
X546096Y317508D02*
X558792Y304812D01*
X584184D01*
X596879Y317508D01*
Y368292D01*
X584184Y380988D01*
X558792D01*
X546096Y368292D01*
Y355596D01*
X558792Y342900D01*
X596879D01*
X850921Y761988D02*
Y685812D01*
X901704D01*
X927096Y749292D02*
X939792Y761988D01*
X965184D01*
X977879Y749292D01*
Y736596D01*
X965184Y723900D01*
X977879Y711204D01*
Y698508D01*
X965184Y685812D01*
X939792D01*
X927096Y698508D01*
Y711204D01*
X939792Y723900D01*
X927096Y736596D01*
Y749292D01*
X939792Y723900D02*
X965184D01*
X-88912Y-1308121D02*
X-165088D01*
Y-1358904D01*
X-88912Y-1384296D02*
Y-1435080D01*
X-101608D01*
X-152392Y-1384296D01*
X-165088D01*
X208280Y1958315D02*
Y1882140D01*
X259063D01*
X335239Y1958315D02*
X309847Y1945619D01*
X284455Y1920228D01*
Y1894836D01*
X297151Y1882140D01*
X322543D01*
X335239Y1894836D01*
Y1907532D01*
X322543Y1920228D01*
X284455D01*
X533421Y1269988D02*
Y1193812D01*
X584204D01*
X660379Y1269988D02*
X609596D01*
Y1231900D01*
X634988Y1244596D01*
X647684D01*
X660379Y1231900D01*
Y1206508D01*
X647684Y1193812D01*
X622292D01*
X609596Y1206508D01*
X381021Y1142988D02*
Y1066812D01*
X431804D01*
X495284D02*
Y1142988D01*
X457196Y1104900D01*
X507979D01*
X63488Y990579D02*
X-12688D01*
Y939796D01*
X50792Y914404D02*
X63488Y901708D01*
Y876316D01*
X50792Y863620D01*
X38096D01*
X25400Y876316D01*
Y889012D01*
Y876316D01*
X12704Y863620D01*
X8D01*
X-12688Y876316D01*
Y901708D01*
X8Y914404D01*
X332728Y998199D02*
X256552D01*
Y947416D01*
Y871240D02*
Y922024D01*
X307336Y871240D01*
X320032D01*
X332728Y883936D01*
Y909328D01*
X320032Y922024D01*
X-114283Y495288D02*
Y419112D01*
X-63500D01*
X-38108D02*
X-12716D01*
X-25412D01*
Y495288D01*
X-38108Y482592D01*
X-850896Y1765288D02*
X-876288D01*
X-863592D01*
Y1701808D01*
X-876288Y1689112D01*
X-888983D01*
X-901679Y1701808D01*
X-787416Y1689112D02*
Y1765288D01*
X-825504Y1727200D01*
X-774721D01*
X1409717Y457192D02*
X1397021Y469888D01*
X1371629D01*
X1358933Y457192D01*
Y406408D01*
X1371629Y393712D01*
X1397021D01*
X1409717Y406408D01*
X1485892Y393712D02*
X1435108D01*
X1485892Y444496D01*
Y457192D01*
X1473196Y469888D01*
X1447804D01*
X1435108Y457192D01*
X1511284Y469888D02*
X1562067D01*
Y457192D01*
X1511284Y406408D01*
Y393712D01*
X1409717Y571492D02*
X1397021Y584188D01*
X1371629D01*
X1358933Y571492D01*
Y520708D01*
X1371629Y508012D01*
X1397021D01*
X1409717Y520708D01*
X1485892Y508012D02*
X1435108D01*
X1485892Y558796D01*
Y571492D01*
X1473196Y584188D01*
X1447804D01*
X1435108Y571492D01*
X1562067Y584188D02*
X1536676Y571492D01*
X1511284Y546100D01*
Y520708D01*
X1523980Y508012D01*
X1549372D01*
X1562067Y520708D01*
Y533404D01*
X1549372Y546100D01*
X1511284D01*
X1143017Y571492D02*
X1130321Y584188D01*
X1104929D01*
X1092233Y571492D01*
Y520708D01*
X1104929Y508012D01*
X1130321D01*
X1143017Y520708D01*
X1219192Y508012D02*
X1168408D01*
X1219192Y558796D01*
Y571492D01*
X1206496Y584188D01*
X1181104D01*
X1168408Y571492D01*
X1295367Y584188D02*
X1244584D01*
Y546100D01*
X1269976Y558796D01*
X1282672D01*
X1295367Y546100D01*
Y520708D01*
X1282672Y508012D01*
X1257280D01*
X1244584Y520708D01*
X1079517Y1142992D02*
X1066821Y1155688D01*
X1041429D01*
X1028733Y1142992D01*
Y1092208D01*
X1041429Y1079512D01*
X1066821D01*
X1079517Y1092208D01*
X1155692Y1079512D02*
X1104908D01*
X1155692Y1130296D01*
Y1142992D01*
X1142996Y1155688D01*
X1117604D01*
X1104908Y1142992D01*
X1219172Y1079512D02*
Y1155688D01*
X1181084Y1117600D01*
X1231867D01*
X208090Y440475D02*
X197510Y429895D01*
Y408735D01*
X208090Y398155D01*
X250410D01*
X260990Y408735D01*
Y429895D01*
X250410Y440475D01*
X260990Y503955D02*
Y461635D01*
X218670Y503955D01*
X208090D01*
X197510Y493375D01*
Y472215D01*
X208090Y461635D01*
Y525114D02*
X197510Y535694D01*
Y556854D01*
X208090Y567434D01*
X218670D01*
X229250Y556854D01*
Y546274D01*
Y556854D01*
X239830Y567434D01*
X250410D01*
X260990Y556854D01*
Y535694D01*
X250410Y525114D01*
X482608Y673117D02*
X469912Y660421D01*
Y635029D01*
X482608Y622333D01*
X533392D01*
X546088Y635029D01*
Y660421D01*
X533392Y673117D01*
X546088Y749292D02*
Y698508D01*
X495304Y749292D01*
X482608D01*
X469912Y736596D01*
Y711204D01*
X482608Y698508D01*
X546088Y825467D02*
Y774684D01*
X495304Y825467D01*
X482608D01*
X469912Y812772D01*
Y787380D01*
X482608Y774684D01*
X901712Y952492D02*
X889017Y965188D01*
X863625D01*
X850929Y952492D01*
Y901708D01*
X863625Y889012D01*
X889017D01*
X901712Y901708D01*
X977888Y889012D02*
X927104D01*
X977888Y939796D01*
Y952492D01*
X965192Y965188D01*
X939800D01*
X927104Y952492D01*
X1003279Y889012D02*
X1028671D01*
X1015975D01*
Y965188D01*
X1003279Y952492D01*
X-88908Y1041383D02*
X-76212Y1054079D01*
Y1079471D01*
X-88908Y1092167D01*
X-139692D01*
X-152388Y1079471D01*
Y1054079D01*
X-139692Y1041383D01*
X-152388Y965208D02*
Y1015992D01*
X-101604Y965208D01*
X-88908D01*
X-76212Y977904D01*
Y1003296D01*
X-88908Y1015992D01*
Y939816D02*
X-76212Y927120D01*
Y901728D01*
X-88908Y889033D01*
X-139692D01*
X-152388Y901728D01*
Y927120D01*
X-139692Y939816D01*
X-88908D01*
X190492Y984236D02*
X203188Y996931D01*
Y1022323D01*
X190492Y1035019D01*
X139708D01*
X127012Y1022323D01*
Y996931D01*
X139708Y984236D01*
X127012Y958844D02*
Y933452D01*
Y946148D01*
X203188D01*
X190492Y958844D01*
X139708Y895364D02*
X127012Y882668D01*
Y857276D01*
X139708Y844581D01*
X190492D01*
X203188Y857276D01*
Y882668D01*
X190492Y895364D01*
X177796D01*
X165100Y882668D01*
Y844581D01*
X-901692Y-857236D02*
X-914388Y-869931D01*
Y-895323D01*
X-901692Y-908019D01*
X-850908D01*
X-838212Y-895323D01*
Y-869931D01*
X-850908Y-857236D01*
X-838212Y-831844D02*
Y-806452D01*
Y-819148D01*
X-914388D01*
X-901692Y-831844D01*
Y-768364D02*
X-914388Y-755668D01*
Y-730276D01*
X-901692Y-717581D01*
X-888996D01*
X-876300Y-730276D01*
X-863604Y-717581D01*
X-850908D01*
X-838212Y-730276D01*
Y-755668D01*
X-850908Y-768364D01*
X-863604D01*
X-876300Y-755668D01*
X-888996Y-768364D01*
X-901692D01*
X-876300Y-755668D02*
Y-730276D01*
X-488936Y-1028708D02*
X-501631Y-1016012D01*
X-527023D01*
X-539719Y-1028708D01*
Y-1079492D01*
X-527023Y-1092188D01*
X-501631D01*
X-488936Y-1079492D01*
X-463544Y-1092188D02*
X-438152D01*
X-450848D01*
Y-1016012D01*
X-463544Y-1028708D01*
X-400064Y-1016012D02*
X-349281D01*
Y-1028708D01*
X-400064Y-1079492D01*
Y-1092188D01*
X38108Y-615936D02*
X25412Y-628631D01*
Y-654023D01*
X38108Y-666719D01*
X88892D01*
X101588Y-654023D01*
Y-628631D01*
X88892Y-615936D01*
X101588Y-590544D02*
Y-565152D01*
Y-577848D01*
X25412D01*
X38108Y-590544D01*
X25412Y-476281D02*
X38108Y-501672D01*
X63500Y-527064D01*
X88892D01*
X101588Y-514368D01*
Y-488976D01*
X88892Y-476281D01*
X76196D01*
X63500Y-488976D01*
Y-527064D01*
X-228608Y1035036D02*
X-215912Y1047731D01*
Y1073123D01*
X-228608Y1085819D01*
X-279392D01*
X-292088Y1073123D01*
Y1047731D01*
X-279392Y1035036D01*
X-292088Y1009644D02*
Y984252D01*
Y996948D01*
X-215912D01*
X-228608Y1009644D01*
X-215912Y895381D02*
Y946164D01*
X-254000D01*
X-241304Y920772D01*
Y908076D01*
X-254000Y895381D01*
X-279392D01*
X-292088Y908076D01*
Y933468D01*
X-279392Y946164D01*
X-933436Y-228608D02*
X-946131Y-215912D01*
X-971523D01*
X-984219Y-228608D01*
Y-279392D01*
X-971523Y-292088D01*
X-946131D01*
X-933436Y-279392D01*
X-908044Y-292088D02*
X-882652D01*
X-895348D01*
Y-215912D01*
X-908044Y-228608D01*
X-806476Y-292088D02*
Y-215912D01*
X-844564Y-254000D01*
X-793781D01*
X-920736Y253992D02*
X-933431Y266688D01*
X-958823D01*
X-971519Y253992D01*
Y203208D01*
X-958823Y190512D01*
X-933431D01*
X-920736Y203208D01*
X-895344Y190512D02*
X-869952D01*
X-882648D01*
Y266688D01*
X-895344Y253992D01*
X-831864D02*
X-819168Y266688D01*
X-793776D01*
X-781081Y253992D01*
Y241296D01*
X-793776Y228600D01*
X-806472D01*
X-793776D01*
X-781081Y215904D01*
Y203208D01*
X-793776Y190512D01*
X-819168D01*
X-831864Y203208D01*
X-406408Y338335D02*
X-393712Y351031D01*
Y376423D01*
X-406408Y389119D01*
X-457192D01*
X-469888Y376423D01*
Y351031D01*
X-457192Y338335D01*
X-469888Y312943D02*
Y287552D01*
Y300248D01*
X-393712D01*
X-406408Y312943D01*
X-469888Y198681D02*
Y249464D01*
X-419104Y198681D01*
X-406408D01*
X-393712Y211376D01*
Y236768D01*
X-406408Y249464D01*
X-69840Y-838208D02*
X-82536Y-825512D01*
X-107927D01*
X-120623Y-838208D01*
Y-888992D01*
X-107927Y-901688D01*
X-82536D01*
X-69840Y-888992D01*
X-44448Y-901688D02*
X-19056D01*
X-31752D01*
Y-825512D01*
X-44448Y-838208D01*
X19031Y-901688D02*
X44423D01*
X31727D01*
Y-825512D01*
X19031Y-838208D01*
X798204Y-165108D02*
X785508Y-152412D01*
X760117D01*
X747421Y-165108D01*
Y-215892D01*
X760117Y-228588D01*
X785508D01*
X798204Y-215892D01*
X823596D02*
X836292Y-228588D01*
X861684D01*
X874380Y-215892D01*
Y-165108D01*
X861684Y-152412D01*
X836292D01*
X823596Y-165108D01*
Y-177804D01*
X836292Y-190500D01*
X874380D01*
X-12696Y-723908D02*
X-25392Y-711212D01*
X-50783D01*
X-63479Y-723908D01*
Y-774692D01*
X-50783Y-787388D01*
X-25392D01*
X-12696Y-774692D01*
X12696Y-723908D02*
X25392Y-711212D01*
X50784D01*
X63479Y-723908D01*
Y-736604D01*
X50784Y-749300D01*
X63479Y-761996D01*
Y-774692D01*
X50784Y-787388D01*
X25392D01*
X12696Y-774692D01*
Y-761996D01*
X25392Y-749300D01*
X12696Y-736604D01*
Y-723908D01*
X25392Y-749300D02*
X50784D01*
X-292092Y-814696D02*
X-304788Y-827392D01*
Y-852783D01*
X-292092Y-865479D01*
X-241308D01*
X-228612Y-852783D01*
Y-827392D01*
X-241308Y-814696D01*
X-304788Y-789304D02*
Y-738520D01*
X-292092D01*
X-241308Y-789304D01*
X-228612D01*
X812804Y-50808D02*
X800108Y-38112D01*
X774717D01*
X762021Y-50808D01*
Y-101592D01*
X774717Y-114288D01*
X800108D01*
X812804Y-101592D01*
X888979Y-38112D02*
X863588Y-50808D01*
X838196Y-76200D01*
Y-101592D01*
X850892Y-114288D01*
X876284D01*
X888979Y-101592D01*
Y-88896D01*
X876284Y-76200D01*
X838196D01*
X762004Y203192D02*
X749308Y215888D01*
X723917D01*
X711221Y203192D01*
Y152408D01*
X723917Y139712D01*
X749308D01*
X762004Y152408D01*
X838179Y215888D02*
X787396D01*
Y177800D01*
X812788Y190496D01*
X825484D01*
X838179Y177800D01*
Y152408D01*
X825484Y139712D01*
X800092D01*
X787396Y152408D01*
X-863596Y406392D02*
X-876292Y419088D01*
X-901683D01*
X-914379Y406392D01*
Y355608D01*
X-901683Y342912D01*
X-876292D01*
X-863596Y355608D01*
X-800116Y342912D02*
Y419088D01*
X-838204Y381000D01*
X-787421D01*
X-850896Y-50808D02*
X-863592Y-38112D01*
X-888983D01*
X-901679Y-50808D01*
Y-101592D01*
X-888983Y-114288D01*
X-863592D01*
X-850896Y-101592D01*
X-825504Y-50808D02*
X-812808Y-38112D01*
X-787416D01*
X-774721Y-50808D01*
Y-63504D01*
X-787416Y-76200D01*
X-800112D01*
X-787416D01*
X-774721Y-88896D01*
Y-101592D01*
X-787416Y-114288D01*
X-812808D01*
X-825504Y-101592D01*
X-406408Y848996D02*
X-393712Y861691D01*
Y887083D01*
X-406408Y899779D01*
X-457192D01*
X-469888Y887083D01*
Y861691D01*
X-457192Y848996D01*
X-469888Y772820D02*
Y823604D01*
X-419104Y772820D01*
X-406408D01*
X-393712Y785516D01*
Y810908D01*
X-406408Y823604D01*
X-850900Y101592D02*
X-863596Y114288D01*
X-888988D01*
X-901683Y101592D01*
Y50808D01*
X-888988Y38112D01*
X-863596D01*
X-850900Y50808D01*
X-825508Y38112D02*
X-800116D01*
X-812812D01*
Y114288D01*
X-825508Y101592D01*
D42*
X1397000Y-203225D02*
X1346217D01*
X1371608D01*
Y-330183D01*
X1346217Y-355575D01*
X1320825D01*
X1295433Y-330183D01*
X1447784Y-355575D02*
X1498567D01*
X1473176D01*
Y-203225D01*
X1447784Y-228617D01*
%TF.MD5,767c58423daa86cd75ad9db9ae345346*%
M02*
