G04*
G04 #@! TF.GenerationSoftware,Altium Limited,Altium Designer,24.10.1 (45)*
G04*
G04 Layer_Physical_Order=4*
G04 Layer_Color=16711680*
%FSLAX44Y44*%
%MOMM*%
G71*
G04*
G04 #@! TF.SameCoordinates,45D0177C-C306-47A8-9F7C-5F692266BDBD*
G04*
G04*
G04 #@! TF.FilePolarity,Positive*
G04*
G01*
G75*
%ADD14C,0.2540*%
%ADD61C,1.4478*%
%ADD62C,0.5080*%
G36*
X193040Y-210820D02*
X-127000D01*
Y228600D01*
X193040D01*
Y-210820D01*
D02*
G37*
%LPC*%
G36*
X-42277Y51530D02*
X-44083D01*
X-45752Y50839D01*
X-47029Y49562D01*
X-47720Y47893D01*
Y46087D01*
X-47029Y44418D01*
X-45752Y43141D01*
X-44083Y42450D01*
X-42277D01*
X-40608Y43141D01*
X-39331Y44418D01*
X-38640Y46087D01*
Y47893D01*
X-39331Y49562D01*
X-40608Y50839D01*
X-42277Y51530D01*
D02*
G37*
G36*
X-68947Y48990D02*
X-70753D01*
X-72422Y48299D01*
X-73699Y47022D01*
X-74390Y45353D01*
Y43547D01*
X-73699Y41878D01*
X-72422Y40601D01*
X-70753Y39910D01*
X-68947D01*
X-67278Y40601D01*
X-66001Y41878D01*
X-65310Y43547D01*
Y45353D01*
X-66001Y47022D01*
X-67278Y48299D01*
X-68947Y48990D01*
D02*
G37*
G36*
X75833Y37560D02*
X74027D01*
X72358Y36869D01*
X71081Y35592D01*
X70390Y33923D01*
Y32117D01*
X71081Y30448D01*
X72358Y29171D01*
X74027Y28480D01*
X75833D01*
X77502Y29171D01*
X78779Y30448D01*
X79470Y32117D01*
Y33923D01*
X78779Y35592D01*
X77502Y36869D01*
X75833Y37560D01*
D02*
G37*
G36*
X-70217Y19780D02*
X-72023D01*
X-73692Y19089D01*
X-74969Y17812D01*
X-75660Y16143D01*
Y14337D01*
X-74969Y12668D01*
X-73692Y11391D01*
X-72023Y10700D01*
X-70217D01*
X-68548Y11391D01*
X-67271Y12668D01*
X-66580Y14337D01*
Y16143D01*
X-67271Y17812D01*
X-68548Y19089D01*
X-70217Y19780D01*
D02*
G37*
G36*
X66943Y15970D02*
X65137D01*
X63468Y15279D01*
X62191Y14002D01*
X61500Y12333D01*
Y10527D01*
X62191Y8858D01*
X63468Y7581D01*
X65137Y6890D01*
X66943D01*
X68612Y7581D01*
X69889Y8858D01*
X70580Y10527D01*
Y12333D01*
X69889Y14002D01*
X68612Y15279D01*
X66943Y15970D01*
D02*
G37*
G36*
X63011Y-8419D02*
X61205D01*
X59537Y-9110D01*
X58260Y-10387D01*
X57568Y-12055D01*
Y-13862D01*
X58260Y-15530D01*
X59537Y-16807D01*
X61205Y-17499D01*
X63011D01*
X64680Y-16807D01*
X65957Y-15530D01*
X66648Y-13862D01*
Y-12055D01*
X65957Y-10387D01*
X64680Y-9110D01*
X63011Y-8419D01*
D02*
G37*
G36*
X-69455Y-10192D02*
X-71261D01*
X-72930Y-10883D01*
X-74207Y-12160D01*
X-74898Y-13829D01*
Y-15635D01*
X-74207Y-17304D01*
X-72930Y-18581D01*
X-71261Y-19272D01*
X-69455D01*
X-67786Y-18581D01*
X-66509Y-17304D01*
X-65818Y-15635D01*
Y-13829D01*
X-66509Y-12160D01*
X-67786Y-10883D01*
X-69455Y-10192D01*
D02*
G37*
G36*
X64602Y-23032D02*
X62796D01*
X61127Y-23723D01*
X59850Y-25001D01*
X59159Y-26669D01*
Y-28475D01*
X59850Y-30144D01*
X61127Y-31421D01*
X62796Y-32112D01*
X64602D01*
X66271Y-31421D01*
X67548Y-30144D01*
X68239Y-28475D01*
Y-26669D01*
X67548Y-25001D01*
X66271Y-23723D01*
X64602Y-23032D01*
D02*
G37*
G36*
X-32117Y-56420D02*
X-33923D01*
X-35592Y-57111D01*
X-36869Y-58388D01*
X-37560Y-60057D01*
Y-61863D01*
X-36869Y-63532D01*
X-35592Y-64809D01*
X-33923Y-65500D01*
X-32117D01*
X-30448Y-64809D01*
X-29171Y-63532D01*
X-28480Y-61863D01*
Y-60057D01*
X-29171Y-58388D01*
X-30448Y-57111D01*
X-32117Y-56420D01*
D02*
G37*
G36*
X4713Y-81820D02*
X2907D01*
X1238Y-82511D01*
X0Y-83750D01*
X-1238Y-82511D01*
X-2907Y-81820D01*
X-4713D01*
X-6382Y-82511D01*
X-7659Y-83788D01*
X-8350Y-85457D01*
Y-87263D01*
X-7659Y-88932D01*
X-6382Y-90209D01*
X-5964Y-90382D01*
X-4706Y-90992D01*
X-4540Y-93077D01*
Y-94883D01*
X-4706Y-96967D01*
X-5964Y-97578D01*
X-6382Y-97751D01*
X-7659Y-99028D01*
X-8350Y-100697D01*
Y-102503D01*
X-7659Y-104172D01*
X-6382Y-105449D01*
X-5964Y-105622D01*
X-4706Y-106233D01*
X-4540Y-108317D01*
Y-110123D01*
X-4706Y-112207D01*
X-5964Y-112818D01*
X-6382Y-112991D01*
X-7659Y-114268D01*
X-8350Y-115937D01*
Y-117743D01*
X-7659Y-119412D01*
X-6382Y-120689D01*
X-4713Y-121380D01*
X-2907D01*
X-1238Y-120689D01*
X0Y-119451D01*
X1238Y-120689D01*
X2907Y-121380D01*
X4713D01*
X6382Y-120689D01*
X7620Y-119451D01*
X8858Y-120689D01*
X10527Y-121380D01*
X12333D01*
X14002Y-120689D01*
X15240Y-119451D01*
X16478Y-120689D01*
X18147Y-121380D01*
X19953D01*
X21622Y-120689D01*
X22899Y-119412D01*
X23590Y-117743D01*
Y-115937D01*
X22899Y-114268D01*
X21622Y-112991D01*
X21204Y-112818D01*
X19946Y-112207D01*
X19780Y-110123D01*
Y-108317D01*
X19946Y-106233D01*
X21204Y-105622D01*
X21622Y-105449D01*
X22899Y-104172D01*
X23590Y-102503D01*
Y-100697D01*
X22899Y-99028D01*
X21622Y-97751D01*
X19953Y-97060D01*
X18147D01*
X16478Y-97751D01*
X15240Y-98989D01*
X14002Y-97751D01*
X13584Y-97578D01*
X12326Y-96967D01*
X12160Y-94883D01*
Y-93077D01*
X11469Y-91408D01*
X10192Y-90131D01*
X9774Y-89958D01*
X8516Y-89347D01*
X8350Y-87263D01*
Y-85457D01*
X7659Y-83788D01*
X6382Y-82511D01*
X4713Y-81820D01*
D02*
G37*
G36*
X138999Y-170810D02*
X130490D01*
Y-179319D01*
X130507D01*
X132995Y-178653D01*
X135224Y-177365D01*
X137045Y-175544D01*
X138333Y-173314D01*
X138999Y-170827D01*
Y-170810D01*
D02*
G37*
G36*
X-15607Y-34830D02*
X-17413D01*
X-19082Y-35521D01*
X-20359Y-36798D01*
X-21050Y-38467D01*
Y-40273D01*
X-20359Y-41942D01*
X-19844Y-42456D01*
Y-46997D01*
X-19590Y-48273D01*
X-18867Y-49355D01*
X-17844Y-50378D01*
Y-55937D01*
X-17590Y-57213D01*
X-16868Y-58294D01*
X-4224Y-70938D01*
X-3142Y-71660D01*
X-1867Y-71914D01*
X58309D01*
X91916Y-105521D01*
Y-115570D01*
X92170Y-116846D01*
X92893Y-117928D01*
X100731Y-125766D01*
X100611Y-125974D01*
X99981Y-128324D01*
Y-130756D01*
X100611Y-133106D01*
X101827Y-135213D01*
X103547Y-136933D01*
X105172Y-137871D01*
X105347Y-139511D01*
X105096Y-140629D01*
X103216Y-141715D01*
X101395Y-143536D01*
X100107Y-145765D01*
X99441Y-148253D01*
Y-148270D01*
X109220D01*
Y-150810D01*
X99441D01*
Y-150827D01*
X100107Y-153315D01*
X101395Y-155544D01*
X103216Y-157365D01*
X105096Y-158451D01*
X105347Y-159569D01*
X105172Y-161209D01*
X103547Y-162147D01*
X101827Y-163867D01*
X100611Y-165974D01*
X99981Y-168324D01*
Y-170756D01*
X100611Y-173106D01*
X101827Y-175213D01*
X103547Y-176933D01*
X105654Y-178149D01*
X108004Y-178779D01*
X110436D01*
X112786Y-178149D01*
X114893Y-176933D01*
X116613Y-175213D01*
X117551Y-173588D01*
X119191Y-173413D01*
X120309Y-173664D01*
X121395Y-175544D01*
X123216Y-177365D01*
X125445Y-178653D01*
X127933Y-179319D01*
X127950D01*
Y-169540D01*
X129220D01*
Y-168270D01*
X138999D01*
Y-168253D01*
X138333Y-165765D01*
X137045Y-163536D01*
X135224Y-161715D01*
X133344Y-160629D01*
X133093Y-159511D01*
X133268Y-157871D01*
X134893Y-156933D01*
X136613Y-155213D01*
X137829Y-153106D01*
X138459Y-150756D01*
Y-148324D01*
X137829Y-145974D01*
X136613Y-143867D01*
X134893Y-142147D01*
X132786Y-140931D01*
X132503Y-140855D01*
Y-138225D01*
X132786Y-138149D01*
X134893Y-136933D01*
X136613Y-135213D01*
X137829Y-133106D01*
X138459Y-130756D01*
Y-128324D01*
X137829Y-125974D01*
X136613Y-123867D01*
X134893Y-122147D01*
X132786Y-120931D01*
X132503Y-120855D01*
Y-118225D01*
X132786Y-118149D01*
X134893Y-116933D01*
X136613Y-115213D01*
X137829Y-113106D01*
X138459Y-110756D01*
Y-108324D01*
X137829Y-105974D01*
X136613Y-103867D01*
X134893Y-102147D01*
X132786Y-100931D01*
X132503Y-100855D01*
Y-98225D01*
X132786Y-98149D01*
X134893Y-96933D01*
X136613Y-95213D01*
X137829Y-93106D01*
X138459Y-90756D01*
Y-88324D01*
X137829Y-85974D01*
X136613Y-83867D01*
X134893Y-82147D01*
X132786Y-80931D01*
X132503Y-80855D01*
Y-78225D01*
X132786Y-78149D01*
X134893Y-76933D01*
X136613Y-75213D01*
X137829Y-73106D01*
X138459Y-70756D01*
Y-68324D01*
X137829Y-65974D01*
X136613Y-63867D01*
X134893Y-62147D01*
X132786Y-60931D01*
X130436Y-60301D01*
X128004D01*
X125654Y-60931D01*
X123547Y-62147D01*
X121827Y-63867D01*
X120611Y-65974D01*
X120535Y-66257D01*
X117905D01*
X117829Y-65974D01*
X116613Y-63867D01*
X114893Y-62147D01*
X112786Y-60931D01*
X110436Y-60301D01*
X108004D01*
X105654Y-60931D01*
X103547Y-62147D01*
X101827Y-63867D01*
X100611Y-65974D01*
X99981Y-68324D01*
Y-70756D01*
X100434Y-72447D01*
X98157Y-73762D01*
X80457Y-56062D01*
X79376Y-55340D01*
X78100Y-55086D01*
X9191D01*
X-4160Y-41735D01*
Y-41007D01*
X-4851Y-39338D01*
X-6128Y-38061D01*
X-7797Y-37370D01*
X-9603D01*
X-11272Y-38061D01*
X-12661Y-36798D01*
X-13938Y-35521D01*
X-15607Y-34830D01*
D02*
G37*
%LPD*%
D14*
X-1867Y-68580D02*
X59690D01*
X95250Y-104140D01*
Y-115570D02*
Y-104140D01*
Y-115570D02*
X109220Y-129540D01*
X-16510Y-46997D02*
Y-39370D01*
Y-46997D02*
X-14510Y-48997D01*
Y-55937D02*
Y-48997D01*
Y-55937D02*
X-1867Y-68580D01*
X-6350Y-55880D02*
X1270Y-63500D01*
X63180D01*
X7810Y-58420D02*
X78100D01*
X-8700Y-41910D02*
X7810Y-58420D01*
X63180Y-63500D02*
X109220Y-109540D01*
X78100Y-58420D02*
X109220Y-89540D01*
D61*
X129220Y-169540D02*
D03*
X109220D02*
D03*
X129220Y-149540D02*
D03*
X109220D02*
D03*
X129220Y-129540D02*
D03*
X109220D02*
D03*
X129220Y-109540D02*
D03*
X109220D02*
D03*
X129220Y-89540D02*
D03*
X109220D02*
D03*
X129220Y-69540D02*
D03*
X109220D02*
D03*
D62*
X-11191Y10817D02*
D03*
X-3317D02*
D03*
X4557D02*
D03*
X12431D02*
D03*
X-11191Y2943D02*
D03*
X-3317D02*
D03*
X4557D02*
D03*
X12431D02*
D03*
X-11191Y-4931D02*
D03*
X-3317D02*
D03*
X4557D02*
D03*
X12431D02*
D03*
X-11191Y-12805D02*
D03*
X-3317D02*
D03*
X4557D02*
D03*
X12431D02*
D03*
X179070Y213360D02*
D03*
Y200660D02*
D03*
Y187960D02*
D03*
Y175260D02*
D03*
Y162560D02*
D03*
Y149860D02*
D03*
Y137160D02*
D03*
Y124460D02*
D03*
Y111760D02*
D03*
Y99060D02*
D03*
Y86360D02*
D03*
Y73660D02*
D03*
Y60960D02*
D03*
Y48260D02*
D03*
Y35560D02*
D03*
Y22860D02*
D03*
Y10160D02*
D03*
Y-2540D02*
D03*
Y-15240D02*
D03*
Y-27940D02*
D03*
Y-40640D02*
D03*
Y-53340D02*
D03*
Y-66040D02*
D03*
Y-78740D02*
D03*
Y-91440D02*
D03*
Y-104140D02*
D03*
Y-116840D02*
D03*
Y-129540D02*
D03*
Y-142240D02*
D03*
Y-154940D02*
D03*
Y-167640D02*
D03*
Y-180340D02*
D03*
Y-193040D02*
D03*
X166370Y213360D02*
D03*
Y200660D02*
D03*
Y187960D02*
D03*
Y175260D02*
D03*
Y162560D02*
D03*
Y149860D02*
D03*
Y137160D02*
D03*
Y124460D02*
D03*
Y111760D02*
D03*
Y99060D02*
D03*
Y86360D02*
D03*
Y73660D02*
D03*
Y60960D02*
D03*
Y48260D02*
D03*
Y35560D02*
D03*
Y22860D02*
D03*
Y10160D02*
D03*
Y-2540D02*
D03*
Y-15240D02*
D03*
Y-27940D02*
D03*
Y-40640D02*
D03*
Y-53340D02*
D03*
Y-66040D02*
D03*
Y-78740D02*
D03*
Y-91440D02*
D03*
Y-104140D02*
D03*
Y-116840D02*
D03*
Y-129540D02*
D03*
Y-142240D02*
D03*
Y-154940D02*
D03*
Y-167640D02*
D03*
Y-180340D02*
D03*
Y-193040D02*
D03*
X153670Y213360D02*
D03*
Y200660D02*
D03*
Y187960D02*
D03*
Y175260D02*
D03*
Y162560D02*
D03*
Y149860D02*
D03*
Y137160D02*
D03*
Y124460D02*
D03*
Y111760D02*
D03*
Y99060D02*
D03*
Y86360D02*
D03*
Y73660D02*
D03*
Y60960D02*
D03*
Y48260D02*
D03*
Y35560D02*
D03*
Y22860D02*
D03*
Y10160D02*
D03*
Y-2540D02*
D03*
Y-15240D02*
D03*
Y-27940D02*
D03*
Y-40640D02*
D03*
Y-142240D02*
D03*
Y-154940D02*
D03*
Y-167640D02*
D03*
Y-180340D02*
D03*
Y-193040D02*
D03*
X140970Y213360D02*
D03*
Y200660D02*
D03*
Y187960D02*
D03*
Y175260D02*
D03*
Y162560D02*
D03*
Y149860D02*
D03*
Y137160D02*
D03*
Y124460D02*
D03*
Y111760D02*
D03*
Y99060D02*
D03*
Y86360D02*
D03*
Y73660D02*
D03*
Y60960D02*
D03*
Y48260D02*
D03*
Y35560D02*
D03*
Y22860D02*
D03*
Y10160D02*
D03*
Y-2540D02*
D03*
Y-15240D02*
D03*
Y-27940D02*
D03*
Y-193040D02*
D03*
X128270Y213360D02*
D03*
Y200660D02*
D03*
Y187960D02*
D03*
Y175260D02*
D03*
Y162560D02*
D03*
Y149860D02*
D03*
Y137160D02*
D03*
Y124460D02*
D03*
Y111760D02*
D03*
Y99060D02*
D03*
Y86360D02*
D03*
Y73660D02*
D03*
Y60960D02*
D03*
Y48260D02*
D03*
Y35560D02*
D03*
Y22860D02*
D03*
Y10160D02*
D03*
Y-2540D02*
D03*
Y-15240D02*
D03*
Y-193040D02*
D03*
X115570Y213360D02*
D03*
Y200660D02*
D03*
Y187960D02*
D03*
Y175260D02*
D03*
Y162560D02*
D03*
Y149860D02*
D03*
Y137160D02*
D03*
Y124460D02*
D03*
Y111760D02*
D03*
Y99060D02*
D03*
Y86360D02*
D03*
Y73660D02*
D03*
Y60960D02*
D03*
Y-193040D02*
D03*
X102870Y213360D02*
D03*
Y200660D02*
D03*
Y187960D02*
D03*
Y175260D02*
D03*
Y162560D02*
D03*
Y149860D02*
D03*
Y137160D02*
D03*
Y124460D02*
D03*
Y99060D02*
D03*
Y86360D02*
D03*
Y73660D02*
D03*
Y-193040D02*
D03*
X90170Y213360D02*
D03*
Y200660D02*
D03*
Y187960D02*
D03*
Y175260D02*
D03*
Y162560D02*
D03*
Y149860D02*
D03*
Y137160D02*
D03*
Y86360D02*
D03*
Y73660D02*
D03*
Y-142240D02*
D03*
Y-180340D02*
D03*
Y-193040D02*
D03*
X77470Y213360D02*
D03*
Y200660D02*
D03*
Y187960D02*
D03*
Y175260D02*
D03*
Y162560D02*
D03*
Y149860D02*
D03*
Y-142240D02*
D03*
Y-180340D02*
D03*
Y-193040D02*
D03*
X64770Y213360D02*
D03*
Y200660D02*
D03*
Y187960D02*
D03*
Y175260D02*
D03*
Y162560D02*
D03*
Y-142240D02*
D03*
Y-180340D02*
D03*
Y-193040D02*
D03*
X52070Y213360D02*
D03*
Y200660D02*
D03*
Y187960D02*
D03*
Y175260D02*
D03*
Y124460D02*
D03*
Y111760D02*
D03*
Y-142240D02*
D03*
Y-180340D02*
D03*
Y-193040D02*
D03*
X39370Y213360D02*
D03*
Y200660D02*
D03*
Y187960D02*
D03*
Y137160D02*
D03*
Y124460D02*
D03*
Y111760D02*
D03*
Y73660D02*
D03*
Y-180340D02*
D03*
Y-193040D02*
D03*
X26670Y213360D02*
D03*
Y200660D02*
D03*
Y149860D02*
D03*
Y137160D02*
D03*
Y124460D02*
D03*
Y111760D02*
D03*
Y-180340D02*
D03*
Y-193040D02*
D03*
X13970Y124460D02*
D03*
Y111760D02*
D03*
Y99060D02*
D03*
Y-180340D02*
D03*
Y-193040D02*
D03*
X1270Y124460D02*
D03*
Y111760D02*
D03*
Y99060D02*
D03*
Y-167640D02*
D03*
Y-180340D02*
D03*
Y-193040D02*
D03*
X-11430Y124460D02*
D03*
Y111760D02*
D03*
Y99060D02*
D03*
Y-142240D02*
D03*
Y-154940D02*
D03*
Y-167640D02*
D03*
Y-180340D02*
D03*
Y-193040D02*
D03*
X-24130Y124460D02*
D03*
Y111760D02*
D03*
Y99060D02*
D03*
Y-142240D02*
D03*
Y-154940D02*
D03*
Y-167640D02*
D03*
Y-180340D02*
D03*
Y-193040D02*
D03*
X-36830Y124460D02*
D03*
Y111760D02*
D03*
Y99060D02*
D03*
Y-142240D02*
D03*
Y-154940D02*
D03*
Y-167640D02*
D03*
Y-180340D02*
D03*
Y-193040D02*
D03*
X-49530Y124460D02*
D03*
Y111760D02*
D03*
Y99060D02*
D03*
Y86360D02*
D03*
Y-142240D02*
D03*
Y-154940D02*
D03*
Y-167640D02*
D03*
Y-180340D02*
D03*
Y-193040D02*
D03*
X-62230Y124460D02*
D03*
Y111760D02*
D03*
Y99060D02*
D03*
Y86360D02*
D03*
Y73660D02*
D03*
Y60960D02*
D03*
Y-142240D02*
D03*
Y-154940D02*
D03*
Y-167640D02*
D03*
Y-180340D02*
D03*
Y-193040D02*
D03*
X-74930Y124460D02*
D03*
Y111760D02*
D03*
Y99060D02*
D03*
Y86360D02*
D03*
Y73660D02*
D03*
Y60960D02*
D03*
Y-142240D02*
D03*
Y-154940D02*
D03*
Y-167640D02*
D03*
Y-180340D02*
D03*
Y-193040D02*
D03*
X-87630Y213360D02*
D03*
Y200660D02*
D03*
Y187960D02*
D03*
Y175260D02*
D03*
Y162560D02*
D03*
Y149860D02*
D03*
Y137160D02*
D03*
Y124460D02*
D03*
Y111760D02*
D03*
Y99060D02*
D03*
Y86360D02*
D03*
Y73660D02*
D03*
Y60960D02*
D03*
Y-142240D02*
D03*
Y-154940D02*
D03*
Y-167640D02*
D03*
Y-180340D02*
D03*
Y-193040D02*
D03*
X-100330Y213360D02*
D03*
Y200660D02*
D03*
Y187960D02*
D03*
Y175260D02*
D03*
Y162560D02*
D03*
Y149860D02*
D03*
Y137160D02*
D03*
Y124460D02*
D03*
Y111760D02*
D03*
Y99060D02*
D03*
Y86360D02*
D03*
Y73660D02*
D03*
Y60960D02*
D03*
Y48260D02*
D03*
Y35560D02*
D03*
Y22860D02*
D03*
Y10160D02*
D03*
Y-2540D02*
D03*
Y-15240D02*
D03*
Y-27940D02*
D03*
Y-40640D02*
D03*
Y-53340D02*
D03*
Y-66040D02*
D03*
Y-78740D02*
D03*
Y-91440D02*
D03*
Y-104140D02*
D03*
Y-116840D02*
D03*
Y-129540D02*
D03*
Y-142240D02*
D03*
Y-154940D02*
D03*
Y-167640D02*
D03*
Y-180340D02*
D03*
Y-193040D02*
D03*
X-113030Y213360D02*
D03*
Y200660D02*
D03*
Y187960D02*
D03*
Y175260D02*
D03*
Y162560D02*
D03*
Y149860D02*
D03*
Y137160D02*
D03*
Y124460D02*
D03*
Y111760D02*
D03*
Y99060D02*
D03*
Y86360D02*
D03*
Y73660D02*
D03*
Y60960D02*
D03*
Y48260D02*
D03*
Y35560D02*
D03*
Y22860D02*
D03*
Y10160D02*
D03*
Y-2540D02*
D03*
Y-15240D02*
D03*
Y-27940D02*
D03*
Y-40640D02*
D03*
Y-53340D02*
D03*
Y-66040D02*
D03*
Y-78740D02*
D03*
Y-91440D02*
D03*
Y-104140D02*
D03*
Y-116840D02*
D03*
Y-129540D02*
D03*
Y-142240D02*
D03*
Y-154940D02*
D03*
Y-167640D02*
D03*
Y-180340D02*
D03*
Y-193040D02*
D03*
X31496Y82296D02*
D03*
X62108Y-12959D02*
D03*
X-29210Y-25400D02*
D03*
X-43180Y46990D02*
D03*
X-20320Y-55880D02*
D03*
X-8700Y-41910D02*
D03*
X30480Y-74390D02*
D03*
X63699Y-27572D02*
D03*
X-6350Y-55880D02*
D03*
X-16510Y-39370D02*
D03*
X3810Y-116840D02*
D03*
X-3810D02*
D03*
X73660Y-20320D02*
D03*
X74930Y-6350D02*
D03*
X31750Y-97790D02*
D03*
X-26670Y-66040D02*
D03*
X-60960Y-97790D02*
D03*
X-69850Y-87630D02*
D03*
X-83820Y-68580D02*
D03*
X-92710Y-58420D02*
D03*
X102870Y111760D02*
D03*
X-50800Y66040D02*
D03*
X-41910Y73660D02*
D03*
X25400Y-144780D02*
D03*
X-11430Y88900D02*
D03*
X-25400D02*
D03*
X-73660Y-34290D02*
D03*
X-82550Y-25400D02*
D03*
X-73660Y-3810D02*
D03*
Y5080D02*
D03*
X-72390Y25400D02*
D03*
Y35560D02*
D03*
X45720Y20320D02*
D03*
X107950Y54610D02*
D03*
X109220Y41910D02*
D03*
X99060Y31750D02*
D03*
X54610Y26670D02*
D03*
X74930Y2540D02*
D03*
Y33020D02*
D03*
X-71120Y15240D02*
D03*
X-53340Y-40640D02*
D03*
X66040Y11430D02*
D03*
X-70358Y-14732D02*
D03*
X19050Y-101600D02*
D03*
Y-116840D02*
D03*
X11430Y-101600D02*
D03*
X15240Y-109220D02*
D03*
X11430Y-116840D02*
D03*
X3810Y-86360D02*
D03*
X7620Y-93980D02*
D03*
X3810Y-101600D02*
D03*
X7620Y-109220D02*
D03*
X-3810Y-86360D02*
D03*
X0Y-93980D02*
D03*
X-3810Y-101600D02*
D03*
X0Y-109220D02*
D03*
X-69850Y44450D02*
D03*
X-33020Y-60960D02*
D03*
M02*
