%TF.GenerationSoftware,Altium Limited,Altium Designer,25.2.1 (25)*%
G04 Layer_Physical_Order=1*
G04 Layer_Color=255*
%FSLAX45Y45*%
%MOMM*%
%TF.SameCoordinates,8F26995F-0812-4D31-8AB3-3E4BC66F6DA6*%
%TF.FilePolarity,Positive*%
%TF.FileFunction,Copper,L1,Top,Signal*%
%TF.Part,Single*%
G01*
G75*
%TA.AperFunction,Conductor*%
%ADD10C,0.38225*%
%ADD11C,0.13138*%
%TA.AperFunction,SMDPad,CuDef*%
G04:AMPARAMS|DCode=12|XSize=0.35mm|YSize=0.65mm|CornerRadius=0mm|HoleSize=0mm|Usage=FLASHONLY|Rotation=135.000|XOffset=0mm|YOffset=0mm|HoleType=Round|Shape=Rectangle|*
%AMROTATEDRECTD12*
4,1,4,0.35356,0.10607,-0.10607,-0.35356,-0.35356,-0.10607,0.10607,0.35356,0.35356,0.10607,0.0*
%
%ADD12ROTATEDRECTD12*%

%ADD13C,2.05000*%
%ADD14C,1.50000*%
%ADD15R,0.76000X0.72000*%
%ADD16R,0.56000X0.52000*%
%ADD17R,0.60000X0.55000*%
%ADD18R,0.35000X0.65000*%
G04:AMPARAMS|DCode=19|XSize=0.93mm|YSize=0.93mm|CornerRadius=0.2325mm|HoleSize=0mm|Usage=FLASHONLY|Rotation=0.000|XOffset=0mm|YOffset=0mm|HoleType=Round|Shape=RoundedRectangle|*
%AMROUNDEDRECTD19*
21,1,0.93000,0.46500,0,0,0.0*
21,1,0.46500,0.93000,0,0,0.0*
1,1,0.46500,0.23250,-0.23250*
1,1,0.46500,-0.23250,-0.23250*
1,1,0.46500,-0.23250,0.23250*
1,1,0.46500,0.23250,0.23250*
%
%ADD19ROUNDEDRECTD19*%
%ADD20R,0.50800X0.97790*%
%ADD21R,0.55880X0.71120*%
%ADD22R,0.62000X0.66000*%
%ADD23R,0.65000X0.35000*%
%ADD24R,0.52000X0.56000*%
%ADD25R,0.40000X0.50000*%
G04:AMPARAMS|DCode=26|XSize=1.11mm|YSize=1.21mm|CornerRadius=0.13875mm|HoleSize=0mm|Usage=FLASHONLY|Rotation=0.000|XOffset=0mm|YOffset=0mm|HoleType=Round|Shape=RoundedRectangle|*
%AMROUNDEDRECTD26*
21,1,1.11000,0.93250,0,0,0.0*
21,1,0.83250,1.21000,0,0,0.0*
1,1,0.27750,0.41625,-0.46625*
1,1,0.27750,-0.41625,-0.46625*
1,1,0.27750,-0.41625,0.46625*
1,1,0.27750,0.41625,0.46625*
%
%ADD26ROUNDEDRECTD26*%
%ADD27R,0.65000X0.60000*%
%ADD28R,3.45000X3.45000*%
%ADD29R,0.84988X0.27991*%
%ADD30R,0.27991X0.84988*%
%ADD31R,0.72000X0.76000*%
%ADD32R,0.47247X0.51535*%
%ADD33R,0.50000X0.40000*%
%TA.AperFunction,Conductor*%
%ADD34C,0.25400*%
%ADD35C,0.51308*%
%TA.AperFunction,ComponentPad*%
%ADD36C,4.00000*%
%ADD37C,1.44780*%
%ADD38C,0.50800*%
%TA.AperFunction,ViaPad*%
%ADD39C,0.50800*%
G36*
X1930400Y-2108200D02*
X-1270000D01*
Y2286000D01*
X1930400D01*
Y-2108200D01*
D02*
G37*
%LPC*%
G36*
X-603089Y1828999D02*
X-640109D01*
X-675869Y1819417D01*
X-707929Y1800907D01*
X-734107Y1774729D01*
X-752617Y1742669D01*
X-762199Y1706909D01*
Y1669889D01*
X-752617Y1634129D01*
X-734107Y1602068D01*
X-707929Y1575891D01*
X-675869Y1557381D01*
X-640109Y1547799D01*
X-603089D01*
X-567329Y1557381D01*
X-535268Y1575891D01*
X-509091Y1602068D01*
X-507356Y1605073D01*
X265311D01*
X267436Y1605353D01*
X299090Y1601186D01*
X330568Y1588148D01*
X338148Y1582331D01*
X357203Y1567010D01*
X375163Y1549050D01*
X474856Y1449358D01*
X492113Y1436116D01*
X512210Y1427792D01*
X514876Y1427441D01*
X514950Y1427367D01*
X523040Y1407835D01*
X536282Y1390578D01*
X603397Y1323462D01*
X604269Y1322794D01*
X624732Y1297859D01*
X640529Y1268306D01*
X650256Y1236239D01*
X653427Y1204046D01*
X653275Y1202890D01*
Y1121999D01*
X656114Y1100433D01*
X664438Y1080337D01*
X665080Y1079500D01*
X664438Y1078663D01*
X656114Y1058567D01*
X653275Y1037001D01*
Y983100D01*
X577000D01*
Y960441D01*
X516198D01*
Y992300D01*
X451840D01*
Y1012940D01*
X335560D01*
Y987485D01*
X305758Y983562D01*
X273178Y970067D01*
X245201Y948599D01*
X245364Y948436D01*
X181864Y884936D01*
X181701Y885099D01*
X160233Y857122D01*
X146738Y824542D01*
X145632Y816138D01*
X118860D01*
Y816138D01*
X111240Y811839D01*
X-35040D01*
Y811839D01*
X-57900Y817971D01*
Y857601D01*
X-101600D01*
Y799201D01*
X-127000D01*
Y857601D01*
X-170700D01*
Y805873D01*
X-177200Y803378D01*
X-202600Y820834D01*
Y855298D01*
X-241300D01*
Y801898D01*
X-254000D01*
Y789198D01*
X-305400D01*
Y748498D01*
X-300000D01*
Y675900D01*
X-277770D01*
X-275313Y663552D01*
X-268086Y652735D01*
X-255451Y640101D01*
X-265973Y614701D01*
X-344211D01*
X-368700Y616900D01*
Y649600D01*
X-419100D01*
X-469500D01*
Y616900D01*
X-464100D01*
Y542300D01*
X-460279D01*
Y505626D01*
X-470288Y495617D01*
X-477200Y478931D01*
Y460869D01*
X-470288Y444183D01*
X-457517Y431412D01*
X-440831Y424500D01*
X-422769D01*
X-406083Y431412D01*
X-393312Y444183D01*
X-386400Y460869D01*
Y478931D01*
X-393312Y495617D01*
X-393598Y495903D01*
Y520915D01*
X-385238Y524732D01*
X-360800Y507968D01*
Y410102D01*
Y312098D01*
X-248800D01*
Y322259D01*
X-222888D01*
X-219258Y318630D01*
X-202794Y300050D01*
Y199095D01*
X-303794D01*
Y198441D01*
X-388790D01*
X-479725Y289375D01*
X-480625Y290722D01*
X-505305Y315403D01*
X-516900Y336000D01*
Y426000D01*
X-527265D01*
X-527997Y429680D01*
X-535225Y440496D01*
X-562804Y468075D01*
X-573620Y475303D01*
X-586379Y477841D01*
X-667635D01*
X-672783Y482988D01*
X-689469Y489900D01*
X-707531D01*
X-724217Y482988D01*
X-736988Y470217D01*
X-743900Y453531D01*
Y435469D01*
X-736988Y418783D01*
X-724217Y406012D01*
X-707531Y399100D01*
X-689470D01*
X-682300Y394309D01*
Y393700D01*
X-636900D01*
Y381000D01*
X-624200D01*
Y330600D01*
X-591500D01*
X-590241Y319407D01*
X-590241Y319400D01*
X-587703Y306641D01*
X-584179Y301368D01*
X-595890Y281753D01*
X-598906Y279000D01*
X-624200D01*
Y228600D01*
X-636900D01*
Y215900D01*
X-683499D01*
X-702170Y197800D01*
X-720231D01*
X-736917Y190888D01*
X-749688Y178117D01*
X-756600Y161431D01*
Y143369D01*
X-749688Y126683D01*
X-736917Y113912D01*
X-720231Y107000D01*
X-702170D01*
X-683499Y88900D01*
X-636900D01*
Y76200D01*
X-624200D01*
Y25800D01*
X-591500D01*
Y31200D01*
X-562136D01*
X-552416Y7734D01*
X-571914Y-11764D01*
X-591500Y-25800D01*
X-624200D01*
Y-76200D01*
X-636900D01*
Y-88900D01*
X-682300D01*
Y-93735D01*
X-694550Y-101920D01*
X-712611D01*
X-729297Y-108832D01*
X-742068Y-121603D01*
X-748980Y-138289D01*
Y-156351D01*
X-742068Y-173037D01*
X-736905Y-178200D01*
X-747426Y-203600D01*
X-783900D01*
Y-241300D01*
X-738500D01*
Y-254000D01*
X-725800D01*
Y-304400D01*
X-693100D01*
Y-299000D01*
X-649478D01*
X-638957Y-324400D01*
X-726977Y-412421D01*
X-734205Y-423237D01*
X-734921Y-426836D01*
X-745027D01*
X-758245Y-429465D01*
X-769450Y-436952D01*
X-773247Y-442636D01*
X-792200Y-458202D01*
X-884200D01*
Y-530800D01*
X-889600D01*
Y-571500D01*
X-838200D01*
Y-584200D01*
X-825500D01*
Y-637600D01*
X-786800D01*
Y-619719D01*
X-761400Y-606913D01*
X-756992Y-610173D01*
Y-647700D01*
X-755842Y-653484D01*
X-760352Y-654381D01*
X-773343Y-663061D01*
X-782023Y-676053D01*
X-785072Y-691377D01*
Y-725302D01*
X-703402D01*
Y-738002D01*
X-690702D01*
Y-824671D01*
X-683944D01*
X-663899Y-837600D01*
X-663899Y-838189D01*
Y-876300D01*
X-610499D01*
Y-889000D01*
X-597799D01*
Y-940400D01*
X-557099D01*
Y-935000D01*
X-484501D01*
Y-843000D01*
X-484501D01*
X-484307Y-817680D01*
X-478558Y-816537D01*
X-467352Y-809050D01*
X-459865Y-797844D01*
X-457236Y-784627D01*
Y-708989D01*
X-408225Y-659978D01*
X-400997Y-649161D01*
X-398459Y-636402D01*
Y-629817D01*
X-373059Y-624764D01*
X-368688Y-635317D01*
X-355917Y-648088D01*
X-339231Y-655000D01*
X-321169D01*
X-304483Y-648088D01*
X-291712Y-635317D01*
X-284800Y-618631D01*
Y-608000D01*
X-279400D01*
Y-562600D01*
X-266700D01*
Y-549900D01*
X-216300D01*
Y-517200D01*
X-221700D01*
Y-442600D01*
X-233359D01*
Y-413917D01*
X-207959Y-408864D01*
X-203588Y-419417D01*
X-190817Y-432188D01*
X-174131Y-439100D01*
X-156069D01*
X-139383Y-432188D01*
X-125488Y-444817D01*
X-112717Y-457588D01*
X-96031Y-464500D01*
X-77970D01*
X-58346Y-478314D01*
X-57463Y-491392D01*
X-72531Y-513400D01*
X-89217Y-520312D01*
X-101988Y-533083D01*
X-108900Y-549769D01*
Y-567831D01*
X-101988Y-584517D01*
X-89217Y-597288D01*
X-72531Y-604200D01*
X-54469D01*
X-37783Y-597288D01*
X-25012Y-584517D01*
X-18100Y-567831D01*
Y-560149D01*
X4774Y-537275D01*
X33635Y-537985D01*
X106359Y-610710D01*
Y-691600D01*
X85100D01*
Y-734460D01*
X84828Y-735014D01*
X81859Y-739766D01*
X75500Y-745978D01*
X64001Y-754308D01*
X-114300D01*
X-122104Y-755860D01*
X-128719Y-760281D01*
X-133140Y-766896D01*
X-134692Y-774700D01*
Y-1257300D01*
Y-1333500D01*
X-133140Y-1341304D01*
X-128719Y-1347919D01*
X-122104Y-1352340D01*
X-114300Y-1353892D01*
X-53340D01*
X-47940Y-1378716D01*
Y-1466530D01*
X-46548D01*
Y-1500256D01*
X-43005Y-1518069D01*
X-32915Y-1533171D01*
X24738Y-1590824D01*
X39840Y-1600914D01*
X57653Y-1604457D01*
X92284D01*
X106604Y-1625267D01*
X107498Y-1629762D01*
Y-1650045D01*
X114802D01*
X120237Y-1658179D01*
X120238Y-1658180D01*
X120239Y-1658181D01*
X170678Y-1708615D01*
X177612Y-1713248D01*
X185778Y-1718704D01*
X185779Y-1718704D01*
X185780Y-1718705D01*
X193624Y-1720265D01*
X203591Y-1722247D01*
X312847D01*
X330660Y-1718704D01*
X345761Y-1708614D01*
X375815Y-1678560D01*
X385905Y-1663459D01*
X389448Y-1645646D01*
Y-1627698D01*
X958670D01*
X1002852Y-1671881D01*
X999810Y-1683236D01*
Y-1707562D01*
X1006106Y-1731061D01*
X1018269Y-1752128D01*
X1035471Y-1769330D01*
X1056539Y-1781493D01*
X1080037Y-1787789D01*
X1104363D01*
X1127861Y-1781493D01*
X1148929Y-1769330D01*
X1166131Y-1752128D01*
X1175511Y-1735881D01*
X1191909Y-1734126D01*
X1203094Y-1736644D01*
X1213948Y-1755444D01*
X1232155Y-1773651D01*
X1254454Y-1786525D01*
X1279325Y-1793189D01*
X1279500D01*
Y-1695399D01*
X1292200D01*
Y-1682699D01*
X1389990D01*
Y-1682525D01*
X1383325Y-1657654D01*
X1370451Y-1635355D01*
X1352244Y-1617148D01*
X1333444Y-1606293D01*
X1330926Y-1595109D01*
X1332681Y-1578710D01*
X1348928Y-1569330D01*
X1366130Y-1552128D01*
X1378293Y-1531061D01*
X1384590Y-1507563D01*
Y-1483236D01*
X1378293Y-1459738D01*
X1377092Y-1457657D01*
X1557065Y-1277685D01*
X1564292Y-1266869D01*
X1566830Y-1254110D01*
Y-595457D01*
X1564292Y-582698D01*
X1557065Y-571882D01*
X1334617Y-349434D01*
X1323800Y-342207D01*
X1311041Y-339669D01*
X667620D01*
X662568Y-314269D01*
X662708Y-314210D01*
X675480Y-301439D01*
X682391Y-284753D01*
Y-266692D01*
X691139Y-253600D01*
X695000D01*
Y-215900D01*
X649600D01*
Y-190500D01*
X695000D01*
Y-152800D01*
X675963D01*
X666486Y-138616D01*
Y-120555D01*
X670933Y-113900D01*
X705800D01*
Y-76200D01*
X660400D01*
Y-50800D01*
X705800D01*
Y-30000D01*
X718300D01*
Y12700D01*
X660400D01*
Y38100D01*
X718300D01*
Y80800D01*
X718300D01*
X705800Y105270D01*
Y123331D01*
X698888Y140017D01*
X686117Y152788D01*
X669431Y159700D01*
X651369D01*
X634683Y152788D01*
X629855Y147961D01*
X623786D01*
X599040Y149540D01*
Y182240D01*
X548640D01*
X498240D01*
Y149723D01*
X316194D01*
Y182376D01*
X327376Y188353D01*
X351252Y207947D01*
X351220Y207980D01*
X415540Y272300D01*
X423900D01*
Y280660D01*
X427219Y283979D01*
X427220Y283980D01*
X432146Y290400D01*
X490798D01*
Y309559D01*
X580598D01*
X593356Y312097D01*
X593356Y312097D01*
X593357Y312097D01*
X604173Y319324D01*
X656453Y371600D01*
X691908D01*
X694409Y369525D01*
X706787Y346200D01*
X703900Y339231D01*
Y321169D01*
X710812Y304483D01*
X723583Y291712D01*
X740269Y284800D01*
X758331D01*
X775017Y291712D01*
X787788Y304483D01*
X794700Y321169D01*
Y339231D01*
X791813Y346200D01*
X794301Y371600D01*
X807398Y381093D01*
X832798Y371795D01*
Y363100D01*
X925402D01*
Y357700D01*
X976102D01*
Y419100D01*
X988802D01*
Y431800D01*
X1052202D01*
Y480500D01*
X1051717D01*
X1032199Y494700D01*
Y533400D01*
X978799D01*
Y546100D01*
X966099D01*
Y597500D01*
X925399D01*
Y592100D01*
X852801D01*
Y500100D01*
X852801D01*
X851835Y475100D01*
X832798D01*
Y468686D01*
X807398Y461132D01*
X804778Y465147D01*
X803698Y490100D01*
X803698D01*
Y602100D01*
X803698D01*
X802812Y604826D01*
X807200Y630200D01*
X807200Y630200D01*
Y642102D01*
X808762Y644137D01*
X817086Y664234D01*
X819925Y685800D01*
X817086Y707366D01*
X808762Y727463D01*
X808120Y728299D01*
X808762Y729136D01*
X817086Y749232D01*
X819925Y770799D01*
Y876300D01*
Y1034275D01*
X840740D01*
X862306Y1037114D01*
X882403Y1045438D01*
X892910Y1053500D01*
X928801D01*
Y1066200D01*
X994099D01*
Y1104900D01*
X940699D01*
Y1130300D01*
X994099D01*
Y1169000D01*
X928801D01*
Y1181700D01*
X892910D01*
X882403Y1189762D01*
X862306Y1198086D01*
X844628Y1200414D01*
X840740Y1200926D01*
X840582Y1200941D01*
X820253Y1202890D01*
X816096Y1255710D01*
X803727Y1307230D01*
X783451Y1356181D01*
X755767Y1401357D01*
X721495Y1441486D01*
X721307Y1441298D01*
X721237Y1441303D01*
X721234Y1441305D01*
X654122Y1508418D01*
X636865Y1521660D01*
X616768Y1529984D01*
X614056Y1530341D01*
X605938Y1549942D01*
X592696Y1567199D01*
X493003Y1666890D01*
X475185Y1684994D01*
X475184Y1684994D01*
X439770Y1715241D01*
X400058Y1739576D01*
X357029Y1757400D01*
X311742Y1768272D01*
X265311Y1771926D01*
Y1771724D01*
X-507356D01*
X-509091Y1774729D01*
X-535268Y1800907D01*
X-567329Y1819417D01*
X-603089Y1828999D01*
D02*
G37*
G36*
X-266700Y855298D02*
X-305400D01*
Y814598D01*
X-266700D01*
Y855298D01*
D02*
G37*
G36*
X-368700Y707700D02*
X-406400D01*
Y675000D01*
X-368700D01*
Y707700D01*
D02*
G37*
G36*
X-431800D02*
X-469500D01*
Y675000D01*
X-431800D01*
Y707700D01*
D02*
G37*
G36*
X1032199Y597500D02*
X991499D01*
Y558800D01*
X1032199D01*
Y597500D01*
D02*
G37*
G36*
X1052202Y406400D02*
X1001502D01*
Y357700D01*
X1052202D01*
Y406400D01*
D02*
G37*
G36*
X-649600Y368300D02*
X-682300D01*
Y330600D01*
X-649600D01*
Y368300D01*
D02*
G37*
G36*
Y279000D02*
X-682300D01*
Y241300D01*
X-649600D01*
Y279000D01*
D02*
G37*
G36*
X599040Y240340D02*
X561340D01*
Y207640D01*
X599040D01*
Y240340D01*
D02*
G37*
G36*
X535940D02*
X498240D01*
Y207640D01*
X535940D01*
Y240340D01*
D02*
G37*
G36*
X-649600Y63500D02*
X-682300D01*
Y25800D01*
X-649600D01*
Y63500D01*
D02*
G37*
G36*
Y-25800D02*
X-682300D01*
Y-63500D01*
X-649600D01*
Y-25800D01*
D02*
G37*
G36*
X-751200Y-266700D02*
X-783900D01*
Y-304400D01*
X-751200D01*
Y-266700D01*
D02*
G37*
G36*
X-216300Y-575300D02*
X-254000D01*
Y-608000D01*
X-216300D01*
Y-575300D01*
D02*
G37*
G36*
X-850900Y-596900D02*
X-889600D01*
Y-637600D01*
X-850900D01*
Y-596900D01*
D02*
G37*
G36*
X-716102Y-750702D02*
X-785072D01*
Y-784627D01*
X-782023Y-799951D01*
X-773343Y-812943D01*
X-760352Y-821623D01*
X-745027Y-824671D01*
X-716102D01*
Y-750702D01*
D02*
G37*
G36*
X-623199Y-901700D02*
X-663899D01*
Y-940400D01*
X-623199D01*
Y-901700D01*
D02*
G37*
G36*
X1389990Y-1708099D02*
X1304900D01*
Y-1793189D01*
X1305074D01*
X1329945Y-1786525D01*
X1352244Y-1773651D01*
X1370451Y-1755444D01*
X1383325Y-1733145D01*
X1389990Y-1708273D01*
Y-1708099D01*
D02*
G37*
%LPD*%
G36*
X532251Y-452402D02*
X522531Y-475868D01*
X345219D01*
X215834Y-346484D01*
Y-258740D01*
X215194Y-255519D01*
Y-218984D01*
X298833D01*
X532251Y-452402D01*
D02*
G37*
G36*
X-190500Y-194950D02*
X-202794D01*
Y-272788D01*
X-290275Y-360270D01*
X-297503Y-371086D01*
X-300041Y-383845D01*
Y-442600D01*
X-311700D01*
Y-450632D01*
X-317559Y-451797D01*
X-328376Y-459025D01*
X-353775Y-484425D01*
X-361003Y-495241D01*
X-363541Y-508000D01*
Y-572573D01*
X-373059Y-582136D01*
X-398459Y-571649D01*
Y-255110D01*
X-312961Y-169612D01*
X-242595D01*
X-239375Y-168971D01*
X-190500D01*
Y-194950D01*
D02*
G37*
G36*
X76857Y-796222D02*
X73020Y-808668D01*
X69245Y-827650D01*
Y-838200D01*
X142098D01*
Y-850900D01*
X154798D01*
Y-923753D01*
X165348D01*
X184330Y-919977D01*
X200422Y-909224D01*
X228395Y-908966D01*
X241300Y-921086D01*
Y-1333500D01*
X203698D01*
Y-1320800D01*
X152898D01*
X102098D01*
Y-1333500D01*
X53340D01*
Y-1319530D01*
X0D01*
X-53340D01*
Y-1333500D01*
X-114300D01*
Y-1257300D01*
Y-774700D01*
X64002D01*
X76857Y-796222D01*
D02*
G37*
G36*
X300609Y-587950D02*
X1042731D01*
X1049537Y-613350D01*
X1035471Y-621471D01*
X1018269Y-638672D01*
X1006106Y-659740D01*
X999810Y-683238D01*
Y-707564D01*
X1006106Y-731063D01*
X1018269Y-752130D01*
X1035471Y-769332D01*
X1056539Y-781495D01*
X1059367Y-782253D01*
Y-808549D01*
X1056539Y-809307D01*
X1035471Y-821470D01*
X1018269Y-838672D01*
X1006106Y-859739D01*
X999810Y-883238D01*
Y-907564D01*
X1006106Y-931062D01*
X1018269Y-952130D01*
X1035471Y-969331D01*
X1056539Y-981495D01*
X1059367Y-982253D01*
Y-1008549D01*
X1056539Y-1009307D01*
X1035471Y-1021470D01*
X1018269Y-1038672D01*
X1006106Y-1059739D01*
X999810Y-1083237D01*
Y-1107564D01*
X1006106Y-1131062D01*
X1018269Y-1152129D01*
X1035471Y-1169331D01*
X1056539Y-1181494D01*
X1059367Y-1182252D01*
Y-1208548D01*
X1056539Y-1209306D01*
X1035471Y-1221469D01*
X1018269Y-1238671D01*
X1006106Y-1259739D01*
X999810Y-1283237D01*
Y-1307563D01*
X1006106Y-1331061D01*
X1018269Y-1352129D01*
X1035471Y-1369331D01*
X1051718Y-1378711D01*
X1053473Y-1395109D01*
X1050955Y-1406294D01*
X1032156Y-1417148D01*
X1013948Y-1435355D01*
X1001074Y-1457654D01*
X994410Y-1482525D01*
Y-1482700D01*
X1092200D01*
Y-1508100D01*
X994410D01*
Y-1508274D01*
X995458Y-1512186D01*
X980146Y-1531791D01*
X975168Y-1534602D01*
X388300D01*
Y-1512255D01*
X298699D01*
Y-1506855D01*
X260599D01*
Y-1581150D01*
X235199D01*
Y-1506855D01*
X197099D01*
Y-1512255D01*
X157140D01*
X152644Y-1511361D01*
X76934D01*
X54702Y-1489129D01*
X47940Y-1466530D01*
X47940Y-1466530D01*
X47940D01*
X47940Y-1466529D01*
Y-1378716D01*
X53340Y-1353892D01*
X102098D01*
X107498Y-1358324D01*
Y-1376995D01*
X198298D01*
Y-1358324D01*
X203698Y-1353892D01*
X241300D01*
X249104Y-1352340D01*
X255719Y-1347919D01*
X260140Y-1341304D01*
X261692Y-1333500D01*
Y-929628D01*
X268850Y-923753D01*
X279400D01*
Y-850900D01*
Y-778047D01*
X268850D01*
X250500Y-762987D01*
Y-749300D01*
X205100D01*
Y-723900D01*
X250500D01*
Y-711323D01*
X264924D01*
Y-672856D01*
X215900D01*
Y-647456D01*
X264924D01*
Y-608989D01*
X268563Y-601210D01*
X287850Y-585412D01*
X300609Y-587950D01*
D02*
G37*
%LPC*%
G36*
X129398Y-863600D02*
X69245D01*
Y-874150D01*
X73020Y-893132D01*
X83773Y-909224D01*
X99866Y-919977D01*
X118848Y-923753D01*
X129398D01*
Y-863600D01*
D02*
G37*
G36*
X53340Y-1245870D02*
X12700D01*
Y-1294130D01*
X53340D01*
Y-1245870D01*
D02*
G37*
G36*
X-12700D02*
X-53340D01*
Y-1294130D01*
X-12700D01*
Y-1245870D01*
D02*
G37*
G36*
X203698Y-1233805D02*
X165598D01*
Y-1295400D01*
X203698D01*
Y-1233805D01*
D02*
G37*
G36*
X140198D02*
X102098D01*
Y-1295400D01*
X140198D01*
Y-1233805D01*
D02*
G37*
G36*
X315350Y-778047D02*
X304800D01*
Y-838200D01*
X364953D01*
Y-827650D01*
X361177Y-808668D01*
X350424Y-792576D01*
X334332Y-781823D01*
X315350Y-778047D01*
D02*
G37*
G36*
X364953Y-863600D02*
X304800D01*
Y-923753D01*
X315350D01*
X334332Y-919977D01*
X350424Y-909224D01*
X361177Y-893132D01*
X364953Y-874150D01*
Y-863600D01*
D02*
G37*
G36*
X388300Y-1239205D02*
X297500D01*
Y-1376995D01*
X388300D01*
Y-1239205D01*
D02*
G37*
%LPD*%
D10*
X736600Y1202890D02*
G03*
X662317Y1382383I-254000J0D01*
G01*
X416122Y1625931D02*
G03*
X265311Y1688399I-150811J-150811D01*
G01*
X557232Y590034D02*
G03*
X596900Y685800I-95766J95766D01*
G01*
X371800Y482600D02*
G03*
X368300Y474150I8450J-8450D01*
G01*
X239842Y245171D02*
G03*
X292300Y266900I0J74186D01*
G01*
X595202Y1449498D02*
X662317Y1382382D01*
X416122Y1625931D02*
X533776Y1508278D01*
X265311Y1688399D02*
X265311D01*
X-621599D02*
X265311D01*
X736600Y1121999D02*
Y1202890D01*
X449798Y482600D02*
X557232Y590034D01*
X368300Y342900D02*
Y474150D01*
X292300Y266900D02*
X368300Y342900D01*
X736600Y876300D02*
Y1037001D01*
Y770799D02*
Y876300D01*
X596900Y763798D02*
Y763915D01*
X203200Y245171D02*
X239842D01*
X752775Y1117600D02*
X840740D01*
X748375Y1121999D02*
X752775Y1117600D01*
X736600Y1121999D02*
X748375D01*
X596900Y685800D02*
X736600D01*
X724825Y770799D02*
X736600D01*
X596900Y763798D02*
X717824D01*
X724825Y770799D01*
D11*
X340721Y939800D02*
G03*
X279400Y914400I0J-86721D01*
G01*
X215900Y850900D02*
G03*
X190500Y789579I61321J-61321D01*
G01*
X106652Y457852D02*
G03*
X81199Y396403I61449J-61449D01*
G01*
X139700Y603702D02*
G03*
X118700Y553004I50698J-50698D01*
G01*
X38100Y668701D02*
G03*
X33701Y658082I10619J-10619D01*
G01*
Y469900D02*
G03*
X31201Y463864I6036J-6036D01*
G01*
X340721Y939800D02*
X393700D01*
X215900Y850900D02*
X279400Y914400D01*
X190500Y742498D02*
Y789579D01*
X106652Y457852D02*
X118700Y469900D01*
Y553004D01*
X33701Y469900D02*
Y658082D01*
X31201Y237556D02*
Y463864D01*
X139700Y603702D02*
X190500Y654502D01*
X382769Y939963D02*
X393700Y939800D01*
X38100Y753699D02*
X190500D01*
X-114300Y711200D02*
X-89870Y686770D01*
X-73802Y668701D02*
X38100D01*
X-89870Y684769D02*
Y686770D01*
Y684769D02*
X-73802Y668701D01*
X190500Y654502D02*
X197729Y661731D01*
X314960D01*
X81199Y237556D02*
Y396403D01*
D12*
X533829Y1508331D02*
D03*
X593932Y1448228D02*
D03*
D13*
X-621599Y1688399D02*
D03*
D14*
X-355600Y1422400D02*
D03*
Y1954398D02*
D03*
D15*
X745698Y546100D02*
D03*
X647700D02*
D03*
X890798Y419100D02*
D03*
X988802D02*
D03*
X635000Y927100D02*
D03*
X732998D02*
D03*
D16*
X900801Y546100D02*
D03*
X978799D02*
D03*
X371800Y482600D02*
D03*
X449798D02*
D03*
X862701Y1117600D02*
D03*
X940699D02*
D03*
X-532501Y-889000D02*
D03*
X-610499D02*
D03*
D17*
X659298Y419100D02*
D03*
X744301D02*
D03*
D18*
X368300Y342900D02*
D03*
X453299D02*
D03*
X393700Y939800D02*
D03*
X478699D02*
D03*
X118700Y469900D02*
D03*
X33701D02*
D03*
D19*
X292100Y-850900D02*
D03*
X142098D02*
D03*
D20*
X152898Y-1308100D02*
D03*
X342900D02*
D03*
Y-1581150D02*
D03*
X247899D02*
D03*
X152898D02*
D03*
D21*
X0Y-1306830D02*
D03*
Y-1410970D02*
D03*
D22*
X-114300Y799201D02*
D03*
Y711200D02*
D03*
X190500Y742498D02*
D03*
Y654502D02*
D03*
D23*
X736600Y1037001D02*
D03*
Y1121999D02*
D03*
X317500Y663621D02*
D03*
Y748619D02*
D03*
X38100Y668701D02*
D03*
Y753699D02*
D03*
X736600Y685800D02*
D03*
Y770799D02*
D03*
D24*
X596900Y763798D02*
D03*
Y685800D02*
D03*
X-254000Y723900D02*
D03*
Y801898D02*
D03*
X-838200Y-584200D02*
D03*
Y-506202D02*
D03*
D25*
X-636900Y381000D02*
D03*
X-556900D02*
D03*
X-738500Y-254000D02*
D03*
X-658500D02*
D03*
X125100Y-736600D02*
D03*
X205100D02*
D03*
X569600Y-203200D02*
D03*
X649600D02*
D03*
X-556900Y228600D02*
D03*
X-636900D02*
D03*
X-556900Y-76200D02*
D03*
X-636900D02*
D03*
X-556900Y76200D02*
D03*
X-636900D02*
D03*
X660400Y-63500D02*
D03*
X580400D02*
D03*
D26*
X-703402Y-738002D02*
D03*
Y-508000D02*
D03*
X-533400D02*
D03*
Y-738002D02*
D03*
D27*
X660400Y25400D02*
D03*
X575401D02*
D03*
D28*
X6198Y-9942D02*
D03*
D29*
X-241300Y-184988D02*
D03*
Y-134976D02*
D03*
Y-84963D02*
D03*
Y-34950D02*
D03*
Y15062D02*
D03*
Y65075D02*
D03*
Y115087D02*
D03*
Y165100D02*
D03*
X253700D02*
D03*
Y115087D02*
D03*
Y65075D02*
D03*
Y15062D02*
D03*
Y-34950D02*
D03*
Y-84963D02*
D03*
Y-134976D02*
D03*
Y-184988D02*
D03*
D30*
X-168798Y237556D02*
D03*
X-118801D02*
D03*
X-68798D02*
D03*
X-18801D02*
D03*
X31201D02*
D03*
X81199D02*
D03*
X131201D02*
D03*
X181199D02*
D03*
Y-257444D02*
D03*
X131201D02*
D03*
X81199D02*
D03*
X31201D02*
D03*
X-18801D02*
D03*
X-68798D02*
D03*
X-118801D02*
D03*
X-168798D02*
D03*
D31*
X-304800Y468102D02*
D03*
Y370098D02*
D03*
D32*
X215900Y-660156D02*
D03*
Y-584444D02*
D03*
D33*
X-266700Y-562600D02*
D03*
Y-482600D02*
D03*
X-419100Y582300D02*
D03*
Y662300D02*
D03*
X548640Y114940D02*
D03*
Y194940D02*
D03*
D34*
X453299Y342900D02*
X580598D01*
X311014Y541300D02*
X474299Y704585D01*
Y927100D01*
X268601Y502555D02*
Y522144D01*
X170744Y404698D02*
X268601Y502555D01*
Y522144D02*
X287756Y541300D01*
X311014D01*
X744301Y419100D02*
X746801Y416601D01*
X745698Y546100D02*
X747502Y544302D01*
X647700Y546100D02*
X653501Y540299D01*
X747502Y420898D02*
Y544302D01*
X653501Y415798D02*
Y540299D01*
X746801Y332699D02*
X749300Y330200D01*
X746801Y332699D02*
Y416601D01*
X749300Y419100D02*
X890798D01*
X895802Y424099D01*
Y541101D01*
X900801Y546100D01*
X580598Y342900D02*
X653501Y415798D01*
X131201Y365156D02*
X170744Y404698D01*
X131201Y237556D02*
Y365156D01*
X170744Y404698D02*
X170744D01*
X-563651Y-87950D02*
X-550149D01*
X-564200Y79675D02*
X-549600Y65075D01*
X-425039Y581360D02*
X-253060D01*
X139700Y-848502D02*
Y-596900D01*
X552562Y-196962D02*
X569600D01*
X548320Y114620D02*
X660080D01*
X474299Y927100D02*
X641436D01*
X-838200Y-508000D02*
X-703402D01*
X-243891Y-84963D02*
X-242595Y-86258D01*
X-533400Y-889899D02*
Y-738002D01*
X82494Y-438094D02*
X222372Y-577972D01*
X-558800Y223601D02*
Y228600D01*
X131201Y-385201D02*
X177800Y-431800D01*
X300609Y-554609D01*
X347558Y-86258D02*
X584200Y-322900D01*
X634309Y-373009D01*
X314960Y753420D02*
Y822960D01*
X182494Y-360294D02*
X331409Y-509209D01*
X182494Y-360294D02*
Y-258740D01*
X331409Y-509209D02*
X1254628D01*
X131201Y-385201D02*
Y-257444D01*
X300609Y-554609D02*
X1151407D01*
X181199Y-257444D02*
X182494Y-258740D01*
X609615Y-418409D02*
X1292240D01*
X254340Y-185628D02*
X312628D01*
X327477Y-136271D02*
X609615Y-418409D01*
X254996Y-136271D02*
X327477D01*
X312628Y-185628D02*
X590809Y-463809D01*
X253700Y-184988D02*
X254340Y-185628D01*
X590809Y-463809D02*
X1273434D01*
X1488089Y-1099510D02*
Y-614258D01*
X1311041Y-373009D02*
X1533489Y-595457D01*
Y-1254110D02*
Y-595457D01*
X1292200Y-1495400D02*
X1533489Y-1254110D01*
X1292200Y-1295400D02*
X1488089Y-1099510D01*
X634309Y-373009D02*
X1311041D01*
X1292240Y-418409D02*
X1488089Y-614258D01*
X1254628Y-509209D02*
X1397290Y-651871D01*
X1273434Y-463809D02*
X1442690Y-633065D01*
Y-944910D02*
Y-633065D01*
X1292200Y-1095400D02*
X1442690Y-944910D01*
X1397290Y-790311D02*
Y-651871D01*
X1292200Y-895401D02*
X1397290Y-790311D01*
X1151407Y-554609D02*
X1292200Y-695401D01*
X580400Y-68499D02*
X587700Y-75799D01*
Y-89327D02*
X621086Y-122712D01*
X587700Y-89327D02*
Y-75799D01*
X621086Y-129586D02*
Y-122712D01*
X580400Y-68499D02*
Y-63500D01*
X-271094Y-226121D02*
Y-186284D01*
X-292100Y-247127D02*
X-271094Y-226121D01*
X-292100Y-254000D02*
Y-247127D01*
X-271094Y-186284D02*
X-269799Y-184988D01*
X-241300D01*
X-426938Y579460D02*
X-425039Y581360D01*
X-426938Y474762D02*
Y579460D01*
X-431800Y469900D02*
X-426938Y474762D01*
X-420050Y661350D02*
X-419100Y662300D01*
X-507050Y661350D02*
X-420050D01*
X-508000Y660400D02*
X-507050Y661350D01*
X-419100Y662300D02*
Y736600D01*
X-253060Y581360D02*
X-68798Y397099D01*
X-87000Y-419100D02*
X-82139Y-414238D01*
Y-374945D01*
X630875Y-275722D02*
X636991D01*
X596900Y-241742D02*
Y-241300D01*
X254996Y-86258D02*
X347558D01*
X596900Y-241742D02*
X630875Y-275722D01*
X569600Y-203200D02*
X576900Y-210500D01*
Y-221300D02*
X596900Y-241300D01*
X576900Y-221300D02*
Y-210500D01*
X-68798Y-361605D02*
Y-257444D01*
X-82139Y-374945D02*
X-68798Y-361605D01*
X-18801Y-513700D02*
Y-257444D01*
X-63500Y-558800D02*
Y-558399D01*
X-18801Y-513700D01*
X-165100Y-393700D02*
X-118801Y-347401D01*
Y-257444D01*
X34503Y-491703D02*
X139700Y-596900D01*
X34503Y-491703D02*
Y-299278D01*
X82494Y-438094D02*
Y-258740D01*
X660400Y25400D02*
X749300D01*
X649600Y-203200D02*
X736600D01*
X390550Y-34950D02*
X552562Y-196962D01*
X253700Y-34950D02*
X390550D01*
X425638Y15062D02*
X504200Y-63500D01*
X660400D02*
X723900D01*
X253700Y-134976D02*
X254996Y-136271D01*
X253700Y-84963D02*
X254996Y-86258D01*
X649600Y-203200D02*
X649879Y-202921D01*
X504200Y-63500D02*
X580400D01*
X-326771Y-136271D02*
X-242595D01*
X-431800Y-241300D02*
X-326771Y-136271D01*
X-431800Y-636402D02*
Y-241300D01*
X-533400Y-738002D02*
X-431800Y-636402D01*
X-244511Y676311D02*
X-18801Y450601D01*
X-254000Y721898D02*
X-244511Y712409D01*
Y676311D02*
Y712409D01*
X-18801Y237556D02*
Y450601D01*
X-68798Y237556D02*
Y397099D01*
X-228600Y457200D02*
X-120096Y348696D01*
X-292100Y457200D02*
X-228600D01*
X-120096Y238851D02*
Y348696D01*
X-651200Y-241701D02*
X-631154D01*
X-424404Y-34950D01*
X-658500Y-254000D02*
Y-249001D01*
X-651200Y-241701D01*
X-424404Y-34950D02*
X-241300D01*
X-556900Y-76200D02*
Y-43901D01*
Y319400D02*
Y381000D01*
X-530774Y293273D02*
X-530327D01*
X-402600Y165100D02*
X-241300D01*
X-504200Y266700D02*
X-402600Y165100D01*
X-504200Y266700D02*
Y267147D01*
X-556900Y319400D02*
X-530774Y293273D01*
X-530327D02*
X-504200Y267147D01*
X-475686Y115087D02*
X-241300D01*
X-579079Y152400D02*
X-564200Y137521D01*
X-711200Y152400D02*
X-579079D01*
X-564200Y79675D02*
Y137521D01*
X-558800Y198201D02*
X-475686Y115087D01*
X-556900Y-43901D02*
X-497937Y15062D01*
X660080Y114620D02*
X660400Y114300D01*
X254996Y116383D02*
X541360D01*
X253700Y115087D02*
X254996Y116383D01*
X-564200Y-102001D02*
Y-88499D01*
X-609519Y-147320D02*
X-564200Y-102001D01*
Y-88499D02*
X-563651Y-87950D01*
X-703580Y-147320D02*
X-609519D01*
X32497Y-297266D02*
X34503Y-299278D01*
X32497Y-297266D02*
Y-258740D01*
X31201Y-257444D02*
X32497Y-258740D01*
X-533400Y-508000D02*
Y-406400D01*
X139700Y-848502D02*
X142098Y-850900D01*
X-292100Y355600D02*
X-209078D01*
X-168798Y315321D01*
Y237556D02*
Y315321D01*
X-698500Y444500D02*
X-586379D01*
X-330200Y-609600D02*
Y-508000D01*
X-304800Y-482600D01*
X-266700D01*
Y-383845D01*
X-168798Y-285943D01*
X-703402Y-508000D02*
Y-435996D01*
X-352369Y-84963D01*
X-243891D01*
X-497937Y15062D02*
X-241300D01*
X-549600Y65075D02*
X-241300D01*
X-586379Y444500D02*
X-558800Y416921D01*
Y382900D02*
Y416921D01*
Y382900D02*
X-556900Y381000D01*
X-242875Y63500D02*
X-241300Y65075D01*
X81199Y-257444D02*
X82494Y-258740D01*
X-120096Y238851D02*
X-118801Y237556D01*
X-168798Y-285943D02*
Y-257444D01*
X-242595Y-136271D02*
X-241300Y-134976D01*
X-242595Y-86258D02*
X-241300Y-84963D01*
X479506Y25400D02*
X575401D01*
X253700Y65075D02*
X439831D01*
X479506Y25400D01*
X253700Y15062D02*
X425638D01*
D35*
X0Y-1500256D02*
Y-1447800D01*
X57653Y-1557909D02*
X152644D01*
X152898Y-1581150D02*
X153152Y-1581404D01*
Y-1625265D02*
Y-1581404D01*
Y-1625265D02*
X203591Y-1675699D01*
X312847D01*
X342900Y-1645646D02*
Y-1581150D01*
X977951D01*
X1092200Y-1695399D01*
X142098Y-850900D02*
X153848Y-862645D01*
X312847Y-1675699D02*
X342900Y-1645646D01*
X0Y-1500256D02*
X57653Y-1557909D01*
X0Y-1306830D02*
X635Y-1307465D01*
D36*
X1016000Y1905000D02*
D03*
X-889000Y-1714500D02*
D03*
D37*
X1292200Y-1695399D02*
D03*
X1092200D02*
D03*
X1292200Y-1495400D02*
D03*
X1092200D02*
D03*
X1292200Y-1295400D02*
D03*
X1092200D02*
D03*
X1292200Y-1095400D02*
D03*
X1092200D02*
D03*
X1292200Y-895401D02*
D03*
X1092200D02*
D03*
X1292200Y-695401D02*
D03*
X1092200D02*
D03*
D38*
X-111912Y108168D02*
D03*
X-33172D02*
D03*
X45568D02*
D03*
X124308D02*
D03*
X-111912Y29428D02*
D03*
X-33172D02*
D03*
X45568D02*
D03*
X124308D02*
D03*
X-111912Y-49312D02*
D03*
X-33172D02*
D03*
X45568D02*
D03*
X124308D02*
D03*
X-111912Y-128052D02*
D03*
X-33172D02*
D03*
X45568D02*
D03*
X124308D02*
D03*
D39*
X1790700Y2133600D02*
D03*
Y2006600D02*
D03*
Y1879600D02*
D03*
Y1752600D02*
D03*
Y1625600D02*
D03*
Y1498600D02*
D03*
Y1371600D02*
D03*
Y1244600D02*
D03*
Y1117600D02*
D03*
Y990600D02*
D03*
Y863600D02*
D03*
Y736600D02*
D03*
Y609600D02*
D03*
Y482600D02*
D03*
Y355600D02*
D03*
Y228600D02*
D03*
Y101600D02*
D03*
Y-25400D02*
D03*
Y-152400D02*
D03*
Y-279400D02*
D03*
Y-406400D02*
D03*
Y-533400D02*
D03*
Y-660400D02*
D03*
Y-787400D02*
D03*
Y-914400D02*
D03*
Y-1041400D02*
D03*
Y-1168400D02*
D03*
Y-1295400D02*
D03*
Y-1422400D02*
D03*
Y-1549400D02*
D03*
Y-1676400D02*
D03*
Y-1803400D02*
D03*
Y-1930400D02*
D03*
X1663700Y2133600D02*
D03*
Y2006600D02*
D03*
Y1879600D02*
D03*
Y1752600D02*
D03*
Y1625600D02*
D03*
Y1498600D02*
D03*
Y1371600D02*
D03*
Y1244600D02*
D03*
Y1117600D02*
D03*
Y990600D02*
D03*
Y863600D02*
D03*
Y736600D02*
D03*
Y609600D02*
D03*
Y482600D02*
D03*
Y355600D02*
D03*
Y228600D02*
D03*
Y101600D02*
D03*
Y-25400D02*
D03*
Y-152400D02*
D03*
Y-279400D02*
D03*
Y-406400D02*
D03*
Y-533400D02*
D03*
Y-660400D02*
D03*
Y-787400D02*
D03*
Y-914400D02*
D03*
Y-1041400D02*
D03*
Y-1168400D02*
D03*
Y-1295400D02*
D03*
Y-1422400D02*
D03*
Y-1549400D02*
D03*
Y-1676400D02*
D03*
Y-1803400D02*
D03*
Y-1930400D02*
D03*
X1536700Y2133600D02*
D03*
Y2006600D02*
D03*
Y1879600D02*
D03*
Y1752600D02*
D03*
Y1625600D02*
D03*
Y1498600D02*
D03*
Y1371600D02*
D03*
Y1244600D02*
D03*
Y1117600D02*
D03*
Y990600D02*
D03*
Y863600D02*
D03*
Y736600D02*
D03*
Y609600D02*
D03*
Y482600D02*
D03*
Y355600D02*
D03*
Y228600D02*
D03*
Y101600D02*
D03*
Y-25400D02*
D03*
Y-152400D02*
D03*
Y-279400D02*
D03*
Y-406400D02*
D03*
Y-1422400D02*
D03*
Y-1549400D02*
D03*
Y-1676400D02*
D03*
Y-1803400D02*
D03*
Y-1930400D02*
D03*
X1409700Y2133600D02*
D03*
Y2006600D02*
D03*
Y1879600D02*
D03*
Y1752600D02*
D03*
Y1625600D02*
D03*
Y1498600D02*
D03*
Y1371600D02*
D03*
Y1244600D02*
D03*
Y1117600D02*
D03*
Y990600D02*
D03*
Y863600D02*
D03*
Y736600D02*
D03*
Y609600D02*
D03*
Y482600D02*
D03*
Y355600D02*
D03*
Y228600D02*
D03*
Y101600D02*
D03*
Y-25400D02*
D03*
Y-152400D02*
D03*
Y-279400D02*
D03*
Y-1930400D02*
D03*
X1282700Y2133600D02*
D03*
Y2006600D02*
D03*
Y1879600D02*
D03*
Y1752600D02*
D03*
Y1625600D02*
D03*
Y1498600D02*
D03*
Y1371600D02*
D03*
Y1244600D02*
D03*
Y1117600D02*
D03*
Y990600D02*
D03*
Y863600D02*
D03*
Y736600D02*
D03*
Y609600D02*
D03*
Y482600D02*
D03*
Y355600D02*
D03*
Y228600D02*
D03*
Y101600D02*
D03*
Y-25400D02*
D03*
Y-152400D02*
D03*
Y-1930400D02*
D03*
X1155700Y2133600D02*
D03*
Y1625600D02*
D03*
Y1498600D02*
D03*
Y1371600D02*
D03*
Y1244600D02*
D03*
Y1117600D02*
D03*
Y990600D02*
D03*
Y863600D02*
D03*
Y736600D02*
D03*
Y609600D02*
D03*
Y-1930400D02*
D03*
X1028700Y1625600D02*
D03*
Y1498600D02*
D03*
Y1371600D02*
D03*
Y1244600D02*
D03*
Y990600D02*
D03*
Y863600D02*
D03*
Y736600D02*
D03*
Y-1930400D02*
D03*
X901700Y2133600D02*
D03*
Y1625600D02*
D03*
Y1498600D02*
D03*
Y1371600D02*
D03*
Y863600D02*
D03*
Y736600D02*
D03*
Y-1422400D02*
D03*
Y-1803400D02*
D03*
Y-1930400D02*
D03*
X774700Y2133600D02*
D03*
Y2006600D02*
D03*
Y1879600D02*
D03*
Y1752600D02*
D03*
Y1625600D02*
D03*
Y1498600D02*
D03*
Y-1422400D02*
D03*
Y-1803400D02*
D03*
Y-1930400D02*
D03*
X647700Y2133600D02*
D03*
Y2006600D02*
D03*
Y1879600D02*
D03*
Y1752600D02*
D03*
Y1625600D02*
D03*
Y-1422400D02*
D03*
Y-1803400D02*
D03*
Y-1930400D02*
D03*
X520700Y2133600D02*
D03*
Y2006600D02*
D03*
Y1879600D02*
D03*
Y1752600D02*
D03*
Y1244600D02*
D03*
Y1117600D02*
D03*
Y-1422400D02*
D03*
Y-1803400D02*
D03*
Y-1930400D02*
D03*
X393700Y2133600D02*
D03*
Y2006600D02*
D03*
Y1879600D02*
D03*
Y1371600D02*
D03*
Y1244600D02*
D03*
Y1117600D02*
D03*
Y736600D02*
D03*
Y-1803400D02*
D03*
Y-1930400D02*
D03*
X266700Y2133600D02*
D03*
Y2006600D02*
D03*
Y1879600D02*
D03*
Y1498600D02*
D03*
Y1371600D02*
D03*
Y1244600D02*
D03*
Y1117600D02*
D03*
Y-1803400D02*
D03*
Y-1930400D02*
D03*
X139700Y2133600D02*
D03*
Y2006600D02*
D03*
Y1879600D02*
D03*
Y1498600D02*
D03*
Y1371600D02*
D03*
Y1244600D02*
D03*
Y1117600D02*
D03*
Y990600D02*
D03*
Y-1803400D02*
D03*
Y-1930400D02*
D03*
X12700Y2133600D02*
D03*
Y2006600D02*
D03*
Y1879600D02*
D03*
Y1498600D02*
D03*
Y1371600D02*
D03*
Y1244600D02*
D03*
Y1117600D02*
D03*
Y990600D02*
D03*
Y-1676400D02*
D03*
Y-1803400D02*
D03*
Y-1930400D02*
D03*
X-114300Y2133600D02*
D03*
Y2006600D02*
D03*
Y1879600D02*
D03*
Y1498600D02*
D03*
Y1371600D02*
D03*
Y1244600D02*
D03*
Y1117600D02*
D03*
Y990600D02*
D03*
Y-1422400D02*
D03*
Y-1549400D02*
D03*
Y-1676400D02*
D03*
Y-1803400D02*
D03*
Y-1930400D02*
D03*
X-241300Y2133600D02*
D03*
Y2006600D02*
D03*
Y1879600D02*
D03*
Y1498600D02*
D03*
Y1371600D02*
D03*
Y1244600D02*
D03*
Y1117600D02*
D03*
Y990600D02*
D03*
Y-1422400D02*
D03*
Y-1549400D02*
D03*
Y-1676400D02*
D03*
Y-1803400D02*
D03*
Y-1930400D02*
D03*
X-368300Y2133600D02*
D03*
Y1244600D02*
D03*
Y1117600D02*
D03*
Y990600D02*
D03*
Y-1422400D02*
D03*
Y-1549400D02*
D03*
Y-1676400D02*
D03*
Y-1803400D02*
D03*
Y-1930400D02*
D03*
X-495300Y2133600D02*
D03*
Y1244600D02*
D03*
Y1117600D02*
D03*
Y990600D02*
D03*
Y863600D02*
D03*
Y-1422400D02*
D03*
Y-1549400D02*
D03*
Y-1676400D02*
D03*
Y-1803400D02*
D03*
Y-1930400D02*
D03*
X-622300Y2133600D02*
D03*
Y1244600D02*
D03*
Y1117600D02*
D03*
Y990600D02*
D03*
Y863600D02*
D03*
Y736600D02*
D03*
Y609600D02*
D03*
Y-1422400D02*
D03*
Y-1549400D02*
D03*
Y-1676400D02*
D03*
Y-1803400D02*
D03*
Y-1930400D02*
D03*
X-749300Y2133600D02*
D03*
Y1244600D02*
D03*
Y1117600D02*
D03*
Y990600D02*
D03*
Y863600D02*
D03*
Y736600D02*
D03*
Y609600D02*
D03*
Y-1422400D02*
D03*
Y-1930400D02*
D03*
X-876300Y2133600D02*
D03*
Y1752600D02*
D03*
Y1625600D02*
D03*
Y1244600D02*
D03*
Y1117600D02*
D03*
Y990600D02*
D03*
Y863600D02*
D03*
Y736600D02*
D03*
Y609600D02*
D03*
Y-1422400D02*
D03*
X-1003300Y2133600D02*
D03*
Y2006600D02*
D03*
Y1879600D02*
D03*
Y1752600D02*
D03*
Y1625600D02*
D03*
Y1498600D02*
D03*
Y1371600D02*
D03*
Y1244600D02*
D03*
Y1117600D02*
D03*
Y990600D02*
D03*
Y863600D02*
D03*
Y736600D02*
D03*
Y609600D02*
D03*
Y482600D02*
D03*
Y355600D02*
D03*
Y228600D02*
D03*
Y101600D02*
D03*
Y-25400D02*
D03*
Y-152400D02*
D03*
Y-279400D02*
D03*
Y-406400D02*
D03*
Y-533400D02*
D03*
Y-660400D02*
D03*
Y-787400D02*
D03*
Y-914400D02*
D03*
Y-1041400D02*
D03*
Y-1168400D02*
D03*
Y-1295400D02*
D03*
Y-1422400D02*
D03*
Y-1930400D02*
D03*
X-1130300Y2133600D02*
D03*
Y2006600D02*
D03*
Y1879600D02*
D03*
Y1752600D02*
D03*
Y1625600D02*
D03*
Y1498600D02*
D03*
Y1371600D02*
D03*
Y1244600D02*
D03*
Y1117600D02*
D03*
Y990600D02*
D03*
Y863600D02*
D03*
Y736600D02*
D03*
Y609600D02*
D03*
Y482600D02*
D03*
Y355600D02*
D03*
Y228600D02*
D03*
Y101600D02*
D03*
Y-25400D02*
D03*
Y-152400D02*
D03*
Y-279400D02*
D03*
Y-406400D02*
D03*
Y-533400D02*
D03*
Y-660400D02*
D03*
Y-787400D02*
D03*
Y-914400D02*
D03*
Y-1041400D02*
D03*
Y-1168400D02*
D03*
Y-1295400D02*
D03*
Y-1422400D02*
D03*
Y-1549400D02*
D03*
Y-1676400D02*
D03*
Y-1803400D02*
D03*
Y-1930400D02*
D03*
X749300Y330200D02*
D03*
X990600Y317500D02*
D03*
X1079500Y546100D02*
D03*
X1092200Y419100D02*
D03*
X314960Y822960D02*
D03*
X621086Y-129586D02*
D03*
X-292100Y-254000D02*
D03*
X-431800Y469900D02*
D03*
X-203200Y-558800D02*
D03*
X-87000Y-419100D02*
D03*
X304800Y-743900D02*
D03*
X636991Y-275722D02*
D03*
X-63500Y-558800D02*
D03*
X-165100Y-393700D02*
D03*
X38100Y-1168400D02*
D03*
X-38100D02*
D03*
X736600Y-203200D02*
D03*
X749300Y-63500D02*
D03*
X317500Y-977900D02*
D03*
X-266700Y-660400D02*
D03*
X-609600Y-977900D02*
D03*
X-698500Y-876300D02*
D03*
X-838200Y-685800D02*
D03*
X-927100Y-584200D02*
D03*
X1028700Y1117600D02*
D03*
X-508000Y660400D02*
D03*
X-419100Y736600D02*
D03*
X254000Y-1447800D02*
D03*
X-114300Y889000D02*
D03*
X-254000D02*
D03*
X-736600Y-342900D02*
D03*
X-825500Y-254000D02*
D03*
X-736600Y-38100D02*
D03*
Y50800D02*
D03*
X-723900Y254000D02*
D03*
Y355600D02*
D03*
X457200Y203200D02*
D03*
X546100Y266700D02*
D03*
X749300Y25400D02*
D03*
X-711200Y152400D02*
D03*
X-533400Y-406400D02*
D03*
X660400Y114300D02*
D03*
X-703580Y-147320D02*
D03*
X190500Y-1016000D02*
D03*
Y-1168400D02*
D03*
X114300Y-1016000D02*
D03*
X152400Y-1092200D02*
D03*
X114300Y-1168400D02*
D03*
X38100Y-863600D02*
D03*
X76200Y-939800D02*
D03*
X38100Y-1016000D02*
D03*
X76200Y-1092200D02*
D03*
X-38100Y-863600D02*
D03*
X0Y-939800D02*
D03*
X-38100Y-1016000D02*
D03*
X0Y-1092200D02*
D03*
X-698500Y444500D02*
D03*
X-330200Y-609600D02*
D03*
%TF.MD5,1d3715fdb17d10e3c87b45bffc812483*%
M02*
