%TF.GenerationSoftware,Altium Limited,Altium Designer,25.2.1 (25)*%
G04 Layer_Color=8421504*
%FSLAX45Y45*%
%MOMM*%
%TF.SameCoordinates,8F26995F-0812-4D31-8AB3-3E4BC66F6DA6*%
%TF.FilePolarity,Positive*%
%TF.FileFunction,Paste,Top*%
%TF.Part,Single*%
G01*
G75*
%TA.AperFunction,SMDPad,CuDef*%
G04:AMPARAMS|DCode=12|XSize=0.35mm|YSize=0.65mm|CornerRadius=0mm|HoleSize=0mm|Usage=FLASHONLY|Rotation=135.000|XOffset=0mm|YOffset=0mm|HoleType=Round|Shape=Rectangle|*
%AMROTATEDRECTD12*
4,1,4,0.35356,0.10607,-0.10607,-0.35356,-0.35356,-0.10607,0.10607,0.35356,0.35356,0.10607,0.0*
%
%ADD12ROTATEDRECTD12*%

%ADD13C,2.05000*%
%ADD14C,1.50000*%
%ADD15R,0.76000X0.72000*%
%ADD16R,0.56000X0.52000*%
%ADD17R,0.60000X0.55000*%
%ADD18R,0.35000X0.65000*%
G04:AMPARAMS|DCode=19|XSize=0.93mm|YSize=0.93mm|CornerRadius=0.2325mm|HoleSize=0mm|Usage=FLASHONLY|Rotation=0.000|XOffset=0mm|YOffset=0mm|HoleType=Round|Shape=RoundedRectangle|*
%AMROUNDEDRECTD19*
21,1,0.93000,0.46500,0,0,0.0*
21,1,0.46500,0.93000,0,0,0.0*
1,1,0.46500,0.23250,-0.23250*
1,1,0.46500,-0.23250,-0.23250*
1,1,0.46500,-0.23250,0.23250*
1,1,0.46500,0.23250,0.23250*
%
%ADD19ROUNDEDRECTD19*%
%ADD20R,0.50800X0.97790*%
%ADD21R,0.55880X0.71120*%
%ADD22R,0.62000X0.66000*%
%ADD23R,0.65000X0.35000*%
%ADD24R,0.52000X0.56000*%
%ADD25R,0.40000X0.50000*%
G04:AMPARAMS|DCode=26|XSize=1.11mm|YSize=1.21mm|CornerRadius=0.13875mm|HoleSize=0mm|Usage=FLASHONLY|Rotation=0.000|XOffset=0mm|YOffset=0mm|HoleType=Round|Shape=RoundedRectangle|*
%AMROUNDEDRECTD26*
21,1,1.11000,0.93250,0,0,0.0*
21,1,0.83250,1.21000,0,0,0.0*
1,1,0.27750,0.41625,-0.46625*
1,1,0.27750,-0.41625,-0.46625*
1,1,0.27750,-0.41625,0.46625*
1,1,0.27750,0.41625,0.46625*
%
%ADD26ROUNDEDRECTD26*%
%ADD27R,0.65000X0.60000*%
%ADD31R,0.72000X0.76000*%
%ADD32R,0.47247X0.51535*%
%ADD33R,0.50000X0.40000*%
%ADD68R,0.02540X0.02540*%
G36*
X-233600Y1832400D02*
X-444830Y1832400D01*
X-444831D01*
X-455951Y1845064D01*
X-480839Y1867759D01*
X-508800Y1886540D01*
X-539223Y1900996D01*
X-571444Y1910813D01*
X-604759Y1915775D01*
X-638442D01*
X-671757Y1910813D01*
X-703978Y1900996D01*
X-734401Y1886540D01*
X-762362Y1867759D01*
X-787251Y1845064D01*
X-798370Y1832400D01*
X-1009600D01*
Y2076400D01*
X-233600D01*
Y1832400D01*
D02*
G37*
G36*
Y1300400D02*
X-1009600D01*
Y1544400D01*
X-798370Y1544400D01*
X-787250Y1531736D01*
X-762361Y1509040D01*
X-734401Y1490259D01*
X-703978Y1475803D01*
X-671757Y1465986D01*
X-638442Y1461024D01*
X-604759D01*
X-571443Y1465986D01*
X-539222Y1475803D01*
X-508800Y1490259D01*
X-480839Y1509040D01*
X-455950Y1531736D01*
X-444830Y1544400D01*
X-444830Y1544400D01*
X-233600D01*
Y1300400D01*
D02*
G37*
G36*
X171207Y118166D02*
X148452D01*
X134310Y132308D01*
Y155063D01*
X171207D01*
Y118166D01*
D02*
G37*
G36*
X114310Y132308D02*
X100168Y118166D01*
X69712D01*
X55570Y132308D01*
Y155063D01*
X114310D01*
Y132308D01*
D02*
G37*
G36*
X35570D02*
X21428Y118166D01*
X-9028D01*
X-23170Y132308D01*
Y155063D01*
X35570D01*
Y132308D01*
D02*
G37*
G36*
X-43170D02*
X-57312Y118166D01*
X-87768D01*
X-101910Y132308D01*
Y155063D01*
X-43170D01*
Y132308D01*
D02*
G37*
G36*
X-121910D02*
X-136052Y118166D01*
X-158807D01*
Y155063D01*
X-121910D01*
Y132308D01*
D02*
G37*
G36*
X171207Y39426D02*
X148452D01*
X134310Y53568D01*
Y84024D01*
X148452Y98166D01*
X171207D01*
Y39426D01*
D02*
G37*
G36*
X114310Y84024D02*
Y53568D01*
X100168Y39426D01*
X69712D01*
X55570Y53568D01*
Y84024D01*
X69712Y98166D01*
X100168D01*
X114310Y84024D01*
D02*
G37*
G36*
X35570D02*
Y53568D01*
X21428Y39426D01*
X-9028D01*
X-23170Y53568D01*
Y84024D01*
X-9028Y98166D01*
X21428D01*
X35570Y84024D01*
D02*
G37*
G36*
X-43170D02*
Y53568D01*
X-57312Y39426D01*
X-87768D01*
X-101910Y53568D01*
Y84024D01*
X-87768Y98166D01*
X-57312D01*
X-43170Y84024D01*
D02*
G37*
G36*
X-121910D02*
Y53568D01*
X-136052Y39426D01*
X-158807D01*
Y98166D01*
X-136052D01*
X-121910Y84024D01*
D02*
G37*
G36*
X171207Y-39314D02*
X148452D01*
X134310Y-25172D01*
Y5284D01*
X148452Y19426D01*
X171207D01*
Y-39314D01*
D02*
G37*
G36*
X114310Y5284D02*
Y-25172D01*
X100168Y-39314D01*
X69712D01*
X55570Y-25172D01*
Y5284D01*
X69712Y19426D01*
X100168D01*
X114310Y5284D01*
D02*
G37*
G36*
X35570D02*
Y-25172D01*
X21428Y-39314D01*
X-9028D01*
X-23170Y-25172D01*
Y5284D01*
X-9028Y19426D01*
X21428D01*
X35570Y5284D01*
D02*
G37*
G36*
X-43170D02*
Y-25172D01*
X-57312Y-39314D01*
X-87768D01*
X-101910Y-25172D01*
Y5284D01*
X-87768Y19426D01*
X-57312D01*
X-43170Y5284D01*
D02*
G37*
G36*
X-121910D02*
Y-25172D01*
X-136052Y-39314D01*
X-158807D01*
Y19426D01*
X-136052D01*
X-121910Y5284D01*
D02*
G37*
G36*
X171207Y-118054D02*
X148452D01*
X134310Y-103912D01*
Y-73456D01*
X148452Y-59314D01*
X171207D01*
Y-118054D01*
D02*
G37*
G36*
X114310Y-73456D02*
Y-103912D01*
X100168Y-118054D01*
X69712D01*
X55570Y-103912D01*
Y-73456D01*
X69712Y-59314D01*
X100168D01*
X114310Y-73456D01*
D02*
G37*
G36*
X35570D02*
Y-103912D01*
X21428Y-118054D01*
X-9028D01*
X-23170Y-103912D01*
Y-73456D01*
X-9028Y-59314D01*
X21428D01*
X35570Y-73456D01*
D02*
G37*
G36*
X-43170D02*
Y-103912D01*
X-57312Y-118054D01*
X-87768D01*
X-101910Y-103912D01*
Y-73456D01*
X-87768Y-59314D01*
X-57312D01*
X-43170Y-73456D01*
D02*
G37*
G36*
X-121910D02*
Y-103912D01*
X-136052Y-118054D01*
X-158807D01*
Y-59314D01*
X-136052D01*
X-121910Y-73456D01*
D02*
G37*
G36*
X171207Y-174951D02*
X134310D01*
Y-152196D01*
X148452Y-138054D01*
X171207D01*
Y-174951D01*
D02*
G37*
G36*
X114310Y-152196D02*
Y-174951D01*
X55570D01*
Y-152196D01*
X69712Y-138054D01*
X100168D01*
X114310Y-152196D01*
D02*
G37*
G36*
X35570D02*
Y-174951D01*
X-23170D01*
Y-152196D01*
X-9028Y-138054D01*
X21428D01*
X35570Y-152196D01*
D02*
G37*
G36*
X-43170D02*
Y-174951D01*
X-101910D01*
Y-152196D01*
X-87768Y-138054D01*
X-57312D01*
X-43170Y-152196D01*
D02*
G37*
G36*
X-121910D02*
Y-174951D01*
X-158807D01*
Y-138054D01*
X-136052D01*
X-121910Y-152196D01*
D02*
G37*
D12*
X533829Y1508331D02*
D03*
X593932Y1448228D02*
D03*
D13*
X-621599Y1688399D02*
D03*
D14*
X-355600Y1422400D02*
D03*
Y1954398D02*
D03*
D15*
X745698Y546100D02*
D03*
X647700D02*
D03*
X890798Y419100D02*
D03*
X988802D02*
D03*
X635000Y927100D02*
D03*
X732998D02*
D03*
D16*
X900801Y546100D02*
D03*
X978799D02*
D03*
X371800Y482600D02*
D03*
X449798D02*
D03*
X862701Y1117600D02*
D03*
X940699D02*
D03*
X-532501Y-889000D02*
D03*
X-610499D02*
D03*
D17*
X659298Y419100D02*
D03*
X744301D02*
D03*
D18*
X368300Y342900D02*
D03*
X453299D02*
D03*
X393700Y939800D02*
D03*
X478699D02*
D03*
X118700Y469900D02*
D03*
X33701D02*
D03*
D19*
X292100Y-850900D02*
D03*
X142098D02*
D03*
D20*
X152898Y-1308100D02*
D03*
X342900D02*
D03*
Y-1581150D02*
D03*
X247899D02*
D03*
X152898D02*
D03*
D21*
X0Y-1306830D02*
D03*
Y-1410970D02*
D03*
D22*
X-114300Y799201D02*
D03*
Y711200D02*
D03*
X190500Y742498D02*
D03*
Y654502D02*
D03*
D23*
X736600Y1037001D02*
D03*
Y1121999D02*
D03*
X317500Y663621D02*
D03*
Y748619D02*
D03*
X38100Y668701D02*
D03*
Y753699D02*
D03*
X736600Y685800D02*
D03*
Y770799D02*
D03*
D24*
X596900Y763798D02*
D03*
Y685800D02*
D03*
X-254000Y723900D02*
D03*
Y801898D02*
D03*
X-838200Y-584200D02*
D03*
Y-506202D02*
D03*
D25*
X-636900Y381000D02*
D03*
X-556900D02*
D03*
X-738500Y-254000D02*
D03*
X-658500D02*
D03*
X125100Y-736600D02*
D03*
X205100D02*
D03*
X569600Y-203200D02*
D03*
X649600D02*
D03*
X-556900Y228600D02*
D03*
X-636900D02*
D03*
X-556900Y-76200D02*
D03*
X-636900D02*
D03*
X-556900Y76200D02*
D03*
X-636900D02*
D03*
X660400Y-63500D02*
D03*
X580400D02*
D03*
D26*
X-703402Y-738002D02*
D03*
Y-508000D02*
D03*
X-533400D02*
D03*
Y-738002D02*
D03*
D27*
X660400Y25400D02*
D03*
X575401D02*
D03*
D31*
X-304800Y468102D02*
D03*
Y370098D02*
D03*
D32*
X215900Y-660156D02*
D03*
Y-584444D02*
D03*
D33*
X-266700Y-562600D02*
D03*
Y-482600D02*
D03*
X-419100Y582300D02*
D03*
Y662300D02*
D03*
X548640Y114940D02*
D03*
Y194940D02*
D03*
D68*
X6198Y-9942D02*
D03*
%TF.MD5,6ff7200f906b582ffbf93a246bcf999d*%
M02*
