%TF.GenerationSoftware,Altium Limited,Altium Designer,25.2.1 (25)*%
G04 Layer_Physical_Order=2*
G04 Layer_Color=36540*
%FSLAX45Y45*%
%MOMM*%
%TF.SameCoordinates,8F26995F-0812-4D31-8AB3-3E4BC66F6DA6*%
%TF.FilePolarity,Positive*%
%TF.FileFunction,Copper,L2,Inr,Signal*%
%TF.Part,Single*%
G01*
G75*
%TA.AperFunction,ComponentPad*%
%ADD36C,4.00000*%
%ADD37C,1.44780*%
%ADD38C,0.50800*%
%TA.AperFunction,ViaPad*%
%ADD39C,0.50800*%
G36*
X1930400Y-2108200D02*
X-1270000D01*
Y2286000D01*
X1930400D01*
Y-2108200D01*
D02*
G37*
%LPC*%
G36*
X-422769Y515300D02*
X-440831D01*
X-457517Y508388D01*
X-470288Y495617D01*
X-477200Y478931D01*
Y460869D01*
X-470288Y444183D01*
X-457517Y431412D01*
X-440831Y424500D01*
X-422769D01*
X-406083Y431412D01*
X-393312Y444183D01*
X-386400Y460869D01*
Y478931D01*
X-393312Y495617D01*
X-406083Y508388D01*
X-422769Y515300D01*
D02*
G37*
G36*
X-689469Y489900D02*
X-707531D01*
X-724217Y482988D01*
X-736988Y470217D01*
X-743900Y453531D01*
Y435469D01*
X-736988Y418783D01*
X-724217Y406012D01*
X-707531Y399100D01*
X-689469D01*
X-672783Y406012D01*
X-660012Y418783D01*
X-653100Y435469D01*
Y453531D01*
X-660012Y470217D01*
X-672783Y482988D01*
X-689469Y489900D01*
D02*
G37*
G36*
X758331Y375600D02*
X740269D01*
X723583Y368688D01*
X710812Y355917D01*
X703900Y339231D01*
Y321169D01*
X710812Y304483D01*
X723583Y291712D01*
X740269Y284800D01*
X758331D01*
X775017Y291712D01*
X787788Y304483D01*
X794700Y321169D01*
Y339231D01*
X787788Y355917D01*
X775017Y368688D01*
X758331Y375600D01*
D02*
G37*
G36*
X-702169Y197800D02*
X-720231D01*
X-736917Y190888D01*
X-749688Y178117D01*
X-756600Y161431D01*
Y143369D01*
X-749688Y126683D01*
X-736917Y113912D01*
X-720231Y107000D01*
X-702169D01*
X-685483Y113912D01*
X-672712Y126683D01*
X-665800Y143369D01*
Y161431D01*
X-672712Y178117D01*
X-685483Y190888D01*
X-702169Y197800D01*
D02*
G37*
G36*
X669431Y159700D02*
X651369D01*
X634683Y152788D01*
X621912Y140017D01*
X615000Y123331D01*
Y105269D01*
X621912Y88583D01*
X634683Y75812D01*
X651369Y68900D01*
X669431D01*
X686117Y75812D01*
X698888Y88583D01*
X705800Y105269D01*
Y123331D01*
X698888Y140017D01*
X686117Y152788D01*
X669431Y159700D01*
D02*
G37*
G36*
X630117Y-84186D02*
X612055D01*
X595369Y-91097D01*
X582598Y-103869D01*
X575686Y-120555D01*
Y-138616D01*
X582598Y-155303D01*
X595369Y-168074D01*
X612055Y-174986D01*
X630117D01*
X646803Y-168074D01*
X659574Y-155303D01*
X666486Y-138616D01*
Y-120555D01*
X659574Y-103869D01*
X646803Y-91097D01*
X630117Y-84186D01*
D02*
G37*
G36*
X-694549Y-101920D02*
X-712611D01*
X-729297Y-108832D01*
X-742068Y-121603D01*
X-748980Y-138289D01*
Y-156351D01*
X-742068Y-173037D01*
X-729297Y-185808D01*
X-712611Y-192720D01*
X-694549D01*
X-677863Y-185808D01*
X-665092Y-173037D01*
X-658180Y-156351D01*
Y-138289D01*
X-665092Y-121603D01*
X-677863Y-108832D01*
X-694549Y-101920D01*
D02*
G37*
G36*
X646022Y-230322D02*
X627961D01*
X611274Y-237234D01*
X598503Y-250005D01*
X591591Y-266691D01*
Y-284753D01*
X598503Y-301439D01*
X611274Y-314210D01*
X627961Y-321122D01*
X646022D01*
X662708Y-314210D01*
X675480Y-301439D01*
X682391Y-284753D01*
Y-266691D01*
X675480Y-250005D01*
X662708Y-237234D01*
X646022Y-230322D01*
D02*
G37*
G36*
X-156069Y-348300D02*
X-174131D01*
X-190817Y-355212D01*
X-203588Y-367983D01*
X-210500Y-384669D01*
Y-402731D01*
X-203588Y-419417D01*
X-190817Y-432188D01*
X-174131Y-439100D01*
X-156069D01*
X-139383Y-432188D01*
X-125488Y-444817D01*
X-112717Y-457588D01*
X-96031Y-464500D01*
X-77969D01*
X-61283Y-457588D01*
X-48512Y-444817D01*
X-41600Y-428131D01*
Y-410069D01*
X-48512Y-393383D01*
X-61283Y-380612D01*
X-77969Y-373700D01*
X-96031D01*
X-112717Y-380612D01*
X-126612Y-367983D01*
X-139383Y-355212D01*
X-156069Y-348300D01*
D02*
G37*
G36*
X-54469Y-513400D02*
X-72531D01*
X-89217Y-520312D01*
X-101988Y-533083D01*
X-108900Y-549769D01*
Y-567831D01*
X-101988Y-584517D01*
X-89217Y-597288D01*
X-72531Y-604200D01*
X-54469D01*
X-37783Y-597288D01*
X-25012Y-584517D01*
X-18100Y-567831D01*
Y-549769D01*
X-25012Y-533083D01*
X-37783Y-520312D01*
X-54469Y-513400D01*
D02*
G37*
G36*
X-321169Y-564200D02*
X-339231D01*
X-355917Y-571112D01*
X-368688Y-583883D01*
X-375600Y-600569D01*
Y-618631D01*
X-368688Y-635317D01*
X-355917Y-648088D01*
X-339231Y-655000D01*
X-321169D01*
X-304483Y-648088D01*
X-291712Y-635317D01*
X-284800Y-618631D01*
Y-600569D01*
X-291712Y-583883D01*
X-304483Y-571112D01*
X-321169Y-564200D01*
D02*
G37*
G36*
X1304363Y-603011D02*
X1280036D01*
X1256538Y-609307D01*
X1235471Y-621471D01*
X1218269Y-638672D01*
X1206106Y-659740D01*
X1205348Y-662569D01*
X1179052D01*
X1178294Y-659740D01*
X1166131Y-638672D01*
X1148929Y-621471D01*
X1127861Y-609307D01*
X1104363Y-603011D01*
X1080037D01*
X1056539Y-609307D01*
X1035471Y-621471D01*
X1018269Y-638672D01*
X1006106Y-659740D01*
X999810Y-683238D01*
Y-707564D01*
X1006106Y-731063D01*
X1018269Y-752130D01*
X1035471Y-769332D01*
X1056539Y-781495D01*
X1059367Y-782253D01*
Y-808549D01*
X1056539Y-809307D01*
X1035471Y-821470D01*
X1018269Y-838672D01*
X1006106Y-859739D01*
X999810Y-883238D01*
Y-907564D01*
X1006106Y-931062D01*
X1018269Y-952130D01*
X1035471Y-969331D01*
X1056539Y-981495D01*
X1059367Y-982253D01*
Y-1008549D01*
X1056539Y-1009307D01*
X1035471Y-1021470D01*
X1018269Y-1038672D01*
X1006106Y-1059739D01*
X999810Y-1083237D01*
Y-1107564D01*
X1006106Y-1131062D01*
X1018269Y-1152129D01*
X1035471Y-1169331D01*
X1056539Y-1181494D01*
X1059367Y-1182252D01*
Y-1208548D01*
X1056539Y-1209306D01*
X1035471Y-1221469D01*
X1018269Y-1238671D01*
X1006106Y-1259739D01*
X999810Y-1283237D01*
Y-1307563D01*
X1006106Y-1331061D01*
X1018269Y-1352129D01*
X1035471Y-1369331D01*
X1051718Y-1378711D01*
X1053473Y-1395109D01*
X1050955Y-1406294D01*
X1032156Y-1417148D01*
X1013948Y-1435355D01*
X1001074Y-1457654D01*
X994410Y-1482525D01*
Y-1482700D01*
X1092200D01*
Y-1508100D01*
X994410D01*
Y-1508274D01*
X1001074Y-1533145D01*
X1013948Y-1555444D01*
X1032156Y-1573651D01*
X1050955Y-1584505D01*
X1053473Y-1595690D01*
X1051718Y-1612088D01*
X1035471Y-1621469D01*
X1018269Y-1638670D01*
X1006106Y-1659738D01*
X999810Y-1683236D01*
Y-1707562D01*
X1006106Y-1731061D01*
X1018269Y-1752128D01*
X1035471Y-1769330D01*
X1056539Y-1781493D01*
X1080037Y-1787789D01*
X1104363D01*
X1127861Y-1781493D01*
X1148929Y-1769330D01*
X1166131Y-1752128D01*
X1175511Y-1735881D01*
X1191909Y-1734126D01*
X1203094Y-1736644D01*
X1213948Y-1755444D01*
X1232155Y-1773651D01*
X1254454Y-1786525D01*
X1279325Y-1793189D01*
X1279500D01*
Y-1695399D01*
X1292200D01*
Y-1682699D01*
X1389990D01*
Y-1682525D01*
X1383325Y-1657654D01*
X1370451Y-1635355D01*
X1352244Y-1617148D01*
X1333444Y-1606293D01*
X1330926Y-1595109D01*
X1332681Y-1578710D01*
X1348928Y-1569330D01*
X1366130Y-1552128D01*
X1378293Y-1531061D01*
X1384590Y-1507563D01*
Y-1483236D01*
X1378293Y-1459738D01*
X1366130Y-1438671D01*
X1348928Y-1421469D01*
X1327861Y-1409306D01*
X1325032Y-1408548D01*
Y-1382252D01*
X1327861Y-1381494D01*
X1348928Y-1369331D01*
X1366130Y-1352129D01*
X1378293Y-1331061D01*
X1384590Y-1307563D01*
Y-1283237D01*
X1378293Y-1259739D01*
X1366130Y-1238671D01*
X1348928Y-1221469D01*
X1327861Y-1209306D01*
X1325032Y-1208548D01*
Y-1182252D01*
X1327861Y-1181494D01*
X1348928Y-1169331D01*
X1366130Y-1152129D01*
X1378293Y-1131062D01*
X1384590Y-1107564D01*
Y-1083237D01*
X1378293Y-1059739D01*
X1366130Y-1038672D01*
X1348928Y-1021470D01*
X1327861Y-1009307D01*
X1325032Y-1008549D01*
Y-982253D01*
X1327861Y-981495D01*
X1348928Y-969331D01*
X1366130Y-952130D01*
X1378293Y-931062D01*
X1384590Y-907564D01*
Y-883238D01*
X1378293Y-859739D01*
X1366130Y-838672D01*
X1348928Y-821470D01*
X1327861Y-809307D01*
X1325032Y-808549D01*
Y-782253D01*
X1327861Y-781495D01*
X1348928Y-769332D01*
X1366130Y-752130D01*
X1378293Y-731063D01*
X1384590Y-707564D01*
Y-683238D01*
X1378293Y-659740D01*
X1366130Y-638672D01*
X1348928Y-621471D01*
X1327861Y-609307D01*
X1304363Y-603011D01*
D02*
G37*
G36*
X47131Y-818200D02*
X29069D01*
X12383Y-825112D01*
X0Y-837495D01*
X-12383Y-825112D01*
X-29069Y-818200D01*
X-47131D01*
X-63817Y-825112D01*
X-76588Y-837883D01*
X-83500Y-854569D01*
Y-872631D01*
X-76588Y-889317D01*
X-63817Y-902088D01*
X-59637Y-903820D01*
X-47057Y-909925D01*
X-45400Y-930770D01*
Y-948830D01*
X-47057Y-969675D01*
X-59637Y-975780D01*
X-63817Y-977512D01*
X-76588Y-990283D01*
X-83500Y-1006969D01*
Y-1025031D01*
X-76588Y-1041717D01*
X-63817Y-1054488D01*
X-59637Y-1056220D01*
X-47057Y-1062325D01*
X-45400Y-1083170D01*
Y-1101230D01*
X-47057Y-1122075D01*
X-59637Y-1128180D01*
X-63817Y-1129912D01*
X-76588Y-1142683D01*
X-83500Y-1159369D01*
Y-1177431D01*
X-76588Y-1194117D01*
X-63817Y-1206888D01*
X-47131Y-1213800D01*
X-29069D01*
X-12383Y-1206888D01*
X0Y-1194505D01*
X12383Y-1206888D01*
X29069Y-1213800D01*
X47131D01*
X63817Y-1206888D01*
X76200Y-1194505D01*
X88583Y-1206888D01*
X105269Y-1213800D01*
X123331D01*
X140017Y-1206888D01*
X152400Y-1194505D01*
X164783Y-1206888D01*
X181469Y-1213800D01*
X199531D01*
X216217Y-1206888D01*
X228988Y-1194117D01*
X235900Y-1177431D01*
Y-1159369D01*
X228988Y-1142683D01*
X216217Y-1129912D01*
X212037Y-1128180D01*
X199457Y-1122075D01*
X197800Y-1101230D01*
Y-1083170D01*
X199457Y-1062325D01*
X212037Y-1056220D01*
X216217Y-1054488D01*
X228988Y-1041717D01*
X235900Y-1025031D01*
Y-1006969D01*
X228988Y-990283D01*
X216217Y-977512D01*
X199531Y-970600D01*
X181469D01*
X164783Y-977512D01*
X152400Y-989895D01*
X140017Y-977512D01*
X135837Y-975780D01*
X123257Y-969675D01*
X121600Y-948830D01*
Y-930769D01*
X114688Y-914083D01*
X101917Y-901312D01*
X97737Y-899580D01*
X85157Y-893475D01*
X83500Y-872630D01*
Y-854569D01*
X76588Y-837883D01*
X63817Y-825112D01*
X47131Y-818200D01*
D02*
G37*
G36*
X1389990Y-1708099D02*
X1304900D01*
Y-1793189D01*
X1305074D01*
X1329945Y-1786525D01*
X1352244Y-1773651D01*
X1370451Y-1755444D01*
X1383325Y-1733145D01*
X1389990Y-1708273D01*
Y-1708099D01*
D02*
G37*
%LPD*%
D36*
X1016000Y1905000D02*
D03*
X-889000Y-1714500D02*
D03*
D37*
X1292200Y-1695399D02*
D03*
X1092200D02*
D03*
X1292200Y-1495400D02*
D03*
X1092200D02*
D03*
X1292200Y-1295400D02*
D03*
X1092200D02*
D03*
X1292200Y-1095400D02*
D03*
X1092200D02*
D03*
X1292200Y-895401D02*
D03*
X1092200D02*
D03*
X1292200Y-695401D02*
D03*
X1092200D02*
D03*
D38*
X-111912Y108168D02*
D03*
X-33172D02*
D03*
X45568D02*
D03*
X124308D02*
D03*
X-111912Y29428D02*
D03*
X-33172D02*
D03*
X45568D02*
D03*
X124308D02*
D03*
X-111912Y-49312D02*
D03*
X-33172D02*
D03*
X45568D02*
D03*
X124308D02*
D03*
X-111912Y-128052D02*
D03*
X-33172D02*
D03*
X45568D02*
D03*
X124308D02*
D03*
D39*
X1790700Y2133600D02*
D03*
Y2006600D02*
D03*
Y1879600D02*
D03*
Y1752600D02*
D03*
Y1625600D02*
D03*
Y1498600D02*
D03*
Y1371600D02*
D03*
Y1244600D02*
D03*
Y1117600D02*
D03*
Y990600D02*
D03*
Y863600D02*
D03*
Y736600D02*
D03*
Y609600D02*
D03*
Y482600D02*
D03*
Y355600D02*
D03*
Y228600D02*
D03*
Y101600D02*
D03*
Y-25400D02*
D03*
Y-152400D02*
D03*
Y-279400D02*
D03*
Y-406400D02*
D03*
Y-533400D02*
D03*
Y-660400D02*
D03*
Y-787400D02*
D03*
Y-914400D02*
D03*
Y-1041400D02*
D03*
Y-1168400D02*
D03*
Y-1295400D02*
D03*
Y-1422400D02*
D03*
Y-1549400D02*
D03*
Y-1676400D02*
D03*
Y-1803400D02*
D03*
Y-1930400D02*
D03*
X1663700Y2133600D02*
D03*
Y2006600D02*
D03*
Y1879600D02*
D03*
Y1752600D02*
D03*
Y1625600D02*
D03*
Y1498600D02*
D03*
Y1371600D02*
D03*
Y1244600D02*
D03*
Y1117600D02*
D03*
Y990600D02*
D03*
Y863600D02*
D03*
Y736600D02*
D03*
Y609600D02*
D03*
Y482600D02*
D03*
Y355600D02*
D03*
Y228600D02*
D03*
Y101600D02*
D03*
Y-25400D02*
D03*
Y-152400D02*
D03*
Y-279400D02*
D03*
Y-406400D02*
D03*
Y-533400D02*
D03*
Y-660400D02*
D03*
Y-787400D02*
D03*
Y-914400D02*
D03*
Y-1041400D02*
D03*
Y-1168400D02*
D03*
Y-1295400D02*
D03*
Y-1422400D02*
D03*
Y-1549400D02*
D03*
Y-1676400D02*
D03*
Y-1803400D02*
D03*
Y-1930400D02*
D03*
X1536700Y2133600D02*
D03*
Y2006600D02*
D03*
Y1879600D02*
D03*
Y1752600D02*
D03*
Y1625600D02*
D03*
Y1498600D02*
D03*
Y1371600D02*
D03*
Y1244600D02*
D03*
Y1117600D02*
D03*
Y990600D02*
D03*
Y863600D02*
D03*
Y736600D02*
D03*
Y609600D02*
D03*
Y482600D02*
D03*
Y355600D02*
D03*
Y228600D02*
D03*
Y101600D02*
D03*
Y-25400D02*
D03*
Y-152400D02*
D03*
Y-279400D02*
D03*
Y-406400D02*
D03*
Y-1422400D02*
D03*
Y-1549400D02*
D03*
Y-1676400D02*
D03*
Y-1803400D02*
D03*
Y-1930400D02*
D03*
X1409700Y2133600D02*
D03*
Y2006600D02*
D03*
Y1879600D02*
D03*
Y1752600D02*
D03*
Y1625600D02*
D03*
Y1498600D02*
D03*
Y1371600D02*
D03*
Y1244600D02*
D03*
Y1117600D02*
D03*
Y990600D02*
D03*
Y863600D02*
D03*
Y736600D02*
D03*
Y609600D02*
D03*
Y482600D02*
D03*
Y355600D02*
D03*
Y228600D02*
D03*
Y101600D02*
D03*
Y-25400D02*
D03*
Y-152400D02*
D03*
Y-279400D02*
D03*
Y-1930400D02*
D03*
X1282700Y2133600D02*
D03*
Y2006600D02*
D03*
Y1879600D02*
D03*
Y1752600D02*
D03*
Y1625600D02*
D03*
Y1498600D02*
D03*
Y1371600D02*
D03*
Y1244600D02*
D03*
Y1117600D02*
D03*
Y990600D02*
D03*
Y863600D02*
D03*
Y736600D02*
D03*
Y609600D02*
D03*
Y482600D02*
D03*
Y355600D02*
D03*
Y228600D02*
D03*
Y101600D02*
D03*
Y-25400D02*
D03*
Y-152400D02*
D03*
Y-1930400D02*
D03*
X1155700Y2133600D02*
D03*
Y1625600D02*
D03*
Y1498600D02*
D03*
Y1371600D02*
D03*
Y1244600D02*
D03*
Y1117600D02*
D03*
Y990600D02*
D03*
Y863600D02*
D03*
Y736600D02*
D03*
Y609600D02*
D03*
Y-1930400D02*
D03*
X1028700Y1625600D02*
D03*
Y1498600D02*
D03*
Y1371600D02*
D03*
Y1244600D02*
D03*
Y990600D02*
D03*
Y863600D02*
D03*
Y736600D02*
D03*
Y-1930400D02*
D03*
X901700Y2133600D02*
D03*
Y1625600D02*
D03*
Y1498600D02*
D03*
Y1371600D02*
D03*
Y863600D02*
D03*
Y736600D02*
D03*
Y-1422400D02*
D03*
Y-1803400D02*
D03*
Y-1930400D02*
D03*
X774700Y2133600D02*
D03*
Y2006600D02*
D03*
Y1879600D02*
D03*
Y1752600D02*
D03*
Y1625600D02*
D03*
Y1498600D02*
D03*
Y-1422400D02*
D03*
Y-1803400D02*
D03*
Y-1930400D02*
D03*
X647700Y2133600D02*
D03*
Y2006600D02*
D03*
Y1879600D02*
D03*
Y1752600D02*
D03*
Y1625600D02*
D03*
Y-1422400D02*
D03*
Y-1803400D02*
D03*
Y-1930400D02*
D03*
X520700Y2133600D02*
D03*
Y2006600D02*
D03*
Y1879600D02*
D03*
Y1752600D02*
D03*
Y1244600D02*
D03*
Y1117600D02*
D03*
Y-1422400D02*
D03*
Y-1803400D02*
D03*
Y-1930400D02*
D03*
X393700Y2133600D02*
D03*
Y2006600D02*
D03*
Y1879600D02*
D03*
Y1371600D02*
D03*
Y1244600D02*
D03*
Y1117600D02*
D03*
Y736600D02*
D03*
Y-1803400D02*
D03*
Y-1930400D02*
D03*
X266700Y2133600D02*
D03*
Y2006600D02*
D03*
Y1879600D02*
D03*
Y1498600D02*
D03*
Y1371600D02*
D03*
Y1244600D02*
D03*
Y1117600D02*
D03*
Y-1803400D02*
D03*
Y-1930400D02*
D03*
X139700Y2133600D02*
D03*
Y2006600D02*
D03*
Y1879600D02*
D03*
Y1498600D02*
D03*
Y1371600D02*
D03*
Y1244600D02*
D03*
Y1117600D02*
D03*
Y990600D02*
D03*
Y-1803400D02*
D03*
Y-1930400D02*
D03*
X12700Y2133600D02*
D03*
Y2006600D02*
D03*
Y1879600D02*
D03*
Y1498600D02*
D03*
Y1371600D02*
D03*
Y1244600D02*
D03*
Y1117600D02*
D03*
Y990600D02*
D03*
Y-1676400D02*
D03*
Y-1803400D02*
D03*
Y-1930400D02*
D03*
X-114300Y2133600D02*
D03*
Y2006600D02*
D03*
Y1879600D02*
D03*
Y1498600D02*
D03*
Y1371600D02*
D03*
Y1244600D02*
D03*
Y1117600D02*
D03*
Y990600D02*
D03*
Y-1422400D02*
D03*
Y-1549400D02*
D03*
Y-1676400D02*
D03*
Y-1803400D02*
D03*
Y-1930400D02*
D03*
X-241300Y2133600D02*
D03*
Y2006600D02*
D03*
Y1879600D02*
D03*
Y1498600D02*
D03*
Y1371600D02*
D03*
Y1244600D02*
D03*
Y1117600D02*
D03*
Y990600D02*
D03*
Y-1422400D02*
D03*
Y-1549400D02*
D03*
Y-1676400D02*
D03*
Y-1803400D02*
D03*
Y-1930400D02*
D03*
X-368300Y2133600D02*
D03*
Y1244600D02*
D03*
Y1117600D02*
D03*
Y990600D02*
D03*
Y-1422400D02*
D03*
Y-1549400D02*
D03*
Y-1676400D02*
D03*
Y-1803400D02*
D03*
Y-1930400D02*
D03*
X-495300Y2133600D02*
D03*
Y1244600D02*
D03*
Y1117600D02*
D03*
Y990600D02*
D03*
Y863600D02*
D03*
Y-1422400D02*
D03*
Y-1549400D02*
D03*
Y-1676400D02*
D03*
Y-1803400D02*
D03*
Y-1930400D02*
D03*
X-622300Y2133600D02*
D03*
Y1244600D02*
D03*
Y1117600D02*
D03*
Y990600D02*
D03*
Y863600D02*
D03*
Y736600D02*
D03*
Y609600D02*
D03*
Y-1422400D02*
D03*
Y-1549400D02*
D03*
Y-1676400D02*
D03*
Y-1803400D02*
D03*
Y-1930400D02*
D03*
X-749300Y2133600D02*
D03*
Y1244600D02*
D03*
Y1117600D02*
D03*
Y990600D02*
D03*
Y863600D02*
D03*
Y736600D02*
D03*
Y609600D02*
D03*
Y-1422400D02*
D03*
Y-1930400D02*
D03*
X-876300Y2133600D02*
D03*
Y1752600D02*
D03*
Y1625600D02*
D03*
Y1244600D02*
D03*
Y1117600D02*
D03*
Y990600D02*
D03*
Y863600D02*
D03*
Y736600D02*
D03*
Y609600D02*
D03*
Y-1422400D02*
D03*
X-1003300Y2133600D02*
D03*
Y2006600D02*
D03*
Y1879600D02*
D03*
Y1752600D02*
D03*
Y1625600D02*
D03*
Y1498600D02*
D03*
Y1371600D02*
D03*
Y1244600D02*
D03*
Y1117600D02*
D03*
Y990600D02*
D03*
Y863600D02*
D03*
Y736600D02*
D03*
Y609600D02*
D03*
Y482600D02*
D03*
Y355600D02*
D03*
Y228600D02*
D03*
Y101600D02*
D03*
Y-25400D02*
D03*
Y-152400D02*
D03*
Y-279400D02*
D03*
Y-406400D02*
D03*
Y-533400D02*
D03*
Y-660400D02*
D03*
Y-787400D02*
D03*
Y-914400D02*
D03*
Y-1041400D02*
D03*
Y-1168400D02*
D03*
Y-1295400D02*
D03*
Y-1422400D02*
D03*
Y-1930400D02*
D03*
X-1130300Y2133600D02*
D03*
Y2006600D02*
D03*
Y1879600D02*
D03*
Y1752600D02*
D03*
Y1625600D02*
D03*
Y1498600D02*
D03*
Y1371600D02*
D03*
Y1244600D02*
D03*
Y1117600D02*
D03*
Y990600D02*
D03*
Y863600D02*
D03*
Y736600D02*
D03*
Y609600D02*
D03*
Y482600D02*
D03*
Y355600D02*
D03*
Y228600D02*
D03*
Y101600D02*
D03*
Y-25400D02*
D03*
Y-152400D02*
D03*
Y-279400D02*
D03*
Y-406400D02*
D03*
Y-533400D02*
D03*
Y-660400D02*
D03*
Y-787400D02*
D03*
Y-914400D02*
D03*
Y-1041400D02*
D03*
Y-1168400D02*
D03*
Y-1295400D02*
D03*
Y-1422400D02*
D03*
Y-1549400D02*
D03*
Y-1676400D02*
D03*
Y-1803400D02*
D03*
Y-1930400D02*
D03*
X749300Y330200D02*
D03*
X990600Y317500D02*
D03*
X1079500Y546100D02*
D03*
X1092200Y419100D02*
D03*
X314960Y822960D02*
D03*
X621086Y-129586D02*
D03*
X-292100Y-254000D02*
D03*
X-431800Y469900D02*
D03*
X-203200Y-558800D02*
D03*
X-87000Y-419100D02*
D03*
X304800Y-743900D02*
D03*
X636991Y-275722D02*
D03*
X-63500Y-558800D02*
D03*
X-165100Y-393700D02*
D03*
X38100Y-1168400D02*
D03*
X-38100D02*
D03*
X736600Y-203200D02*
D03*
X749300Y-63500D02*
D03*
X317500Y-977900D02*
D03*
X-266700Y-660400D02*
D03*
X-609600Y-977900D02*
D03*
X-698500Y-876300D02*
D03*
X-838200Y-685800D02*
D03*
X-927100Y-584200D02*
D03*
X1028700Y1117600D02*
D03*
X-508000Y660400D02*
D03*
X-419100Y736600D02*
D03*
X254000Y-1447800D02*
D03*
X-114300Y889000D02*
D03*
X-254000D02*
D03*
X-736600Y-342900D02*
D03*
X-825500Y-254000D02*
D03*
X-736600Y-38100D02*
D03*
Y50800D02*
D03*
X-723900Y254000D02*
D03*
Y355600D02*
D03*
X457200Y203200D02*
D03*
X546100Y266700D02*
D03*
X749300Y25400D02*
D03*
X-711200Y152400D02*
D03*
X-533400Y-406400D02*
D03*
X660400Y114300D02*
D03*
X-703580Y-147320D02*
D03*
X190500Y-1016000D02*
D03*
Y-1168400D02*
D03*
X114300Y-1016000D02*
D03*
X152400Y-1092200D02*
D03*
X114300Y-1168400D02*
D03*
X38100Y-863600D02*
D03*
X76200Y-939800D02*
D03*
X38100Y-1016000D02*
D03*
X76200Y-1092200D02*
D03*
X-38100Y-863600D02*
D03*
X0Y-939800D02*
D03*
X-38100Y-1016000D02*
D03*
X0Y-1092200D02*
D03*
X-698500Y444500D02*
D03*
X-330200Y-609600D02*
D03*
%TF.MD5,a7abd7964d398155ea8f63f451150d32*%
M02*
