G04*
G04 #@! TF.GenerationSoftware,Altium Limited,Altium Designer,24.10.1 (45)*
G04*
G04 Layer_Color=8388736*
%FSLAX44Y44*%
%MOMM*%
G71*
G04*
G04 #@! TF.SameCoordinates,45D0177C-C306-47A8-9F7C-5F692266BDBD*
G04*
G04*
G04 #@! TF.FilePolarity,Negative*
G04*
G01*
G75*
%ADD15C,1.5000*%
%ADD16C,2.0500*%
%ADD34R,0.4008X0.7008*%
%ADD35R,0.6108X0.5708*%
G04:AMPARAMS|DCode=36|XSize=0.9808mm|YSize=0.9808mm|CornerRadius=0.2579mm|HoleSize=0mm|Usage=FLASHONLY|Rotation=0.000|XOffset=0mm|YOffset=0mm|HoleType=Round|Shape=RoundedRectangle|*
%AMROUNDEDRECTD36*
21,1,0.9808,0.4650,0,0,0.0*
21,1,0.4650,0.9808,0,0,0.0*
1,1,0.5158,0.2325,-0.2325*
1,1,0.5158,-0.2325,-0.2325*
1,1,0.5158,-0.2325,0.2325*
1,1,0.5158,0.2325,0.2325*
%
%ADD36ROUNDEDRECTD36*%
%ADD37R,0.5588X1.0287*%
%ADD38R,0.6096X0.7620*%
%ADD39R,0.6508X0.6008*%
%ADD40R,0.6708X0.7108*%
%ADD41R,0.7008X0.4008*%
%ADD42R,0.5708X0.6108*%
%ADD43R,0.4508X0.5508*%
G04:AMPARAMS|DCode=44|XSize=1.1608mm|YSize=1.2608mm|CornerRadius=0.1642mm|HoleSize=0mm|Usage=FLASHONLY|Rotation=0.000|XOffset=0mm|YOffset=0mm|HoleType=Round|Shape=RoundedRectangle|*
%AMROUNDEDRECTD44*
21,1,1.1608,0.9325,0,0,0.0*
21,1,0.8325,1.2608,0,0,0.0*
1,1,0.3283,0.4162,-0.4662*
1,1,0.3283,-0.4162,-0.4662*
1,1,0.3283,-0.4162,0.4662*
1,1,0.3283,0.4162,0.4662*
%
%ADD44ROUNDEDRECTD44*%
%ADD45R,0.7008X0.6508*%
%ADD46R,0.8108X0.7708*%
%ADD47R,3.5008X3.5008*%
%ADD48R,0.9007X0.3307*%
%ADD49R,0.3307X0.9007*%
%ADD50R,0.7708X0.8108*%
%ADD51R,0.5233X0.5662*%
%ADD52R,0.5508X0.4508*%
%ADD53C,1.4986*%
%ADD54C,0.5588*%
G36*
X7120Y188320D02*
X-14003Y188320D01*
X-14003D01*
X-15115Y189586D01*
X-17604Y191856D01*
X-20400Y193734D01*
X-23442Y195180D01*
X-26664Y196161D01*
X-29996Y196658D01*
X-33364D01*
X-36696Y196161D01*
X-39918Y195180D01*
X-42960Y193734D01*
X-45756Y191856D01*
X-48245Y189586D01*
X-49357Y188320D01*
X-70480D01*
Y212720D01*
X7120D01*
Y188320D01*
D02*
G37*
G36*
Y135120D02*
X-70480D01*
Y159520D01*
X-49357Y159520D01*
X-48245Y158254D01*
X-45756Y155984D01*
X-42960Y154106D01*
X-39918Y152660D01*
X-36696Y151679D01*
X-33364Y151182D01*
X-29996D01*
X-26664Y151679D01*
X-23442Y152660D01*
X-20400Y154106D01*
X-17604Y155984D01*
X-15115Y158254D01*
X-14003Y159520D01*
X-14003Y159520D01*
X7120D01*
Y135120D01*
D02*
G37*
G36*
X18505Y12817D02*
Y8817D01*
Y4943D01*
Y943D01*
Y-2931D01*
Y-6931D01*
Y-10805D01*
Y-18879D01*
X-17265D01*
Y-14805D01*
Y-10805D01*
Y-6931D01*
Y-2931D01*
Y943D01*
Y4943D01*
Y8817D01*
Y12817D01*
Y16891D01*
X18505D01*
Y12817D01*
D02*
G37*
%LPC*%
G36*
X14431D02*
X10431D01*
Y8817D01*
X14431D01*
Y12817D01*
D02*
G37*
G36*
X6557D02*
X2557D01*
Y8817D01*
X6557D01*
Y12817D01*
D02*
G37*
G36*
X-1317D02*
X-5317D01*
Y8817D01*
X-1317D01*
Y12817D01*
D02*
G37*
G36*
X-9191D02*
X-13191D01*
Y8817D01*
X-9191D01*
Y12817D01*
D02*
G37*
G36*
X14431Y4943D02*
X10431D01*
Y943D01*
X14431D01*
Y4943D01*
D02*
G37*
G36*
X6557D02*
X2557D01*
Y943D01*
X6557D01*
Y4943D01*
D02*
G37*
G36*
X-1317D02*
X-5317D01*
Y943D01*
X-1317D01*
Y4943D01*
D02*
G37*
G36*
X-9191D02*
X-13191D01*
Y943D01*
X-9191D01*
Y4943D01*
D02*
G37*
G36*
X14431Y-2931D02*
X10431D01*
Y-6931D01*
X14431D01*
Y-2931D01*
D02*
G37*
G36*
X6557D02*
X2557D01*
Y-6931D01*
X6557D01*
Y-2931D01*
D02*
G37*
G36*
X-1317D02*
X-5317D01*
Y-6931D01*
X-1317D01*
Y-2931D01*
D02*
G37*
G36*
X-9191D02*
X-13191D01*
Y-6931D01*
X-9191D01*
Y-2931D01*
D02*
G37*
G36*
X14431Y-10805D02*
X10431D01*
Y-14805D01*
X14431D01*
Y-10805D01*
D02*
G37*
G36*
X6557D02*
X2557D01*
Y-14805D01*
X6557D01*
Y-10805D01*
D02*
G37*
G36*
X-1317D02*
X-5317D01*
Y-14805D01*
X-1317D01*
Y-10805D01*
D02*
G37*
G36*
X-9191D02*
X-13191D01*
Y-14805D01*
X-9191D01*
Y-10805D01*
D02*
G37*
%LPD*%
D15*
X-5080Y200520D02*
D03*
Y147320D02*
D03*
D16*
X-31680Y173920D02*
D03*
D34*
X41080Y34290D02*
D03*
X32580D02*
D03*
X39370Y93980D02*
D03*
X47870D02*
D03*
X23250Y173990D02*
D03*
X31750D02*
D03*
X13970Y46990D02*
D03*
X5470D02*
D03*
D35*
X40730Y48260D02*
D03*
X32930D02*
D03*
X86270Y111760D02*
D03*
X94070D02*
D03*
X97880Y54610D02*
D03*
X90080D02*
D03*
X-53250Y-88900D02*
D03*
X-61050D02*
D03*
D36*
X29210Y-85090D02*
D03*
X14210D02*
D03*
D37*
X15290Y-130810D02*
D03*
X34290D02*
D03*
Y-158115D02*
D03*
X24790D02*
D03*
X15290D02*
D03*
D38*
X0Y-130683D02*
D03*
Y-141097D02*
D03*
D39*
X74430Y41910D02*
D03*
X65930D02*
D03*
D40*
X-11430Y79920D02*
D03*
Y71120D02*
D03*
X19050Y74250D02*
D03*
Y65450D02*
D03*
D41*
X73660Y103700D02*
D03*
Y112200D02*
D03*
X31750Y66362D02*
D03*
Y74862D02*
D03*
X3810Y66870D02*
D03*
Y75370D02*
D03*
X73660Y68580D02*
D03*
Y77080D02*
D03*
D42*
X59690Y76380D02*
D03*
Y68580D02*
D03*
X-25400Y72390D02*
D03*
Y80190D02*
D03*
X-83820Y-58420D02*
D03*
Y-50620D02*
D03*
D43*
X-63690Y38100D02*
D03*
X-55690D02*
D03*
X-73850Y-25400D02*
D03*
X-65850D02*
D03*
X12510Y-73660D02*
D03*
X20510D02*
D03*
X56960Y-20320D02*
D03*
X64960D02*
D03*
X-55690Y22860D02*
D03*
X-63690D02*
D03*
X-55690Y-7620D02*
D03*
X-63690D02*
D03*
X-55690Y7620D02*
D03*
X-63690D02*
D03*
X66040Y-6350D02*
D03*
X58040D02*
D03*
D44*
X-70340Y-73800D02*
D03*
Y-50800D02*
D03*
X-53340D02*
D03*
Y-73800D02*
D03*
D45*
X66040Y2540D02*
D03*
X57540D02*
D03*
D46*
X63500Y92710D02*
D03*
X73300D02*
D03*
X64770Y54610D02*
D03*
X74570D02*
D03*
X98880Y41910D02*
D03*
X89080D02*
D03*
D47*
X620Y-994D02*
D03*
D48*
X-24130Y-18499D02*
D03*
Y-13498D02*
D03*
Y-8496D02*
D03*
Y-3495D02*
D03*
Y1506D02*
D03*
Y6507D02*
D03*
Y11509D02*
D03*
Y16510D02*
D03*
X25370D02*
D03*
Y11509D02*
D03*
Y6507D02*
D03*
Y1506D02*
D03*
Y-3495D02*
D03*
Y-8496D02*
D03*
Y-13498D02*
D03*
Y-18499D02*
D03*
D49*
X-16880Y23756D02*
D03*
X-11880D02*
D03*
X-6880D02*
D03*
X-1880D02*
D03*
X3120D02*
D03*
X8120D02*
D03*
X13120D02*
D03*
X18120D02*
D03*
Y-25744D02*
D03*
X13120D02*
D03*
X8120D02*
D03*
X3120D02*
D03*
X-1880D02*
D03*
X-6880D02*
D03*
X-11880D02*
D03*
X-16880D02*
D03*
D50*
X-30480Y46810D02*
D03*
Y37010D02*
D03*
D51*
X21590Y-66016D02*
D03*
Y-58444D02*
D03*
D52*
X-26670Y-56260D02*
D03*
Y-48260D02*
D03*
X-41910Y58230D02*
D03*
Y66230D02*
D03*
X54864Y11494D02*
D03*
Y19494D02*
D03*
D53*
X129220Y-169540D02*
D03*
X109220D02*
D03*
X129220Y-149540D02*
D03*
X109220D02*
D03*
X129220Y-129540D02*
D03*
X109220D02*
D03*
X129220Y-109540D02*
D03*
X109220D02*
D03*
X129220Y-89540D02*
D03*
X109220D02*
D03*
X129220Y-69540D02*
D03*
X109220D02*
D03*
D54*
X-11191Y10817D02*
D03*
X-3317D02*
D03*
X4557D02*
D03*
X12431D02*
D03*
X-11191Y2943D02*
D03*
X-3317D02*
D03*
X4557D02*
D03*
X12431D02*
D03*
X-11191Y-4931D02*
D03*
X-3317D02*
D03*
X4557D02*
D03*
X12431D02*
D03*
X-11191Y-12805D02*
D03*
X-3317D02*
D03*
X4557D02*
D03*
X12431D02*
D03*
M02*
