%TF.GenerationSoftware,Altium Limited,Altium Designer,25.2.1 (25)*%
G04 Layer_Physical_Order=3*
G04 Layer_Color=16440176*
%FSLAX45Y45*%
%MOMM*%
%TF.SameCoordinates,8F26995F-0812-4D31-8AB3-3E4BC66F6DA6*%
%TF.FilePolarity,Positive*%
%TF.FileFunction,Copper,L3,Inr,Signal*%
%TF.Part,Single*%
G01*
G75*
%TA.AperFunction,ComponentPad*%
%ADD36C,4.00000*%
%ADD37C,1.44780*%
%ADD38C,0.50800*%
%TA.AperFunction,ViaPad*%
%ADD39C,0.50800*%
G36*
X1930400Y-2108200D02*
X-1270000D01*
Y2286000D01*
X1930400D01*
Y-2108200D01*
D02*
G37*
%LPC*%
G36*
X1053395Y528392D02*
X-889000D01*
X-896804Y526840D01*
X-903419Y522419D01*
X-907840Y515804D01*
X-909392Y508000D01*
Y-222293D01*
X-909076Y-223878D01*
X-909139Y-225494D01*
X-908308Y-227745D01*
X-907840Y-230097D01*
X-906942Y-231440D01*
X-906381Y-232957D01*
X-904752Y-234718D01*
X-903419Y-236712D01*
X-902075Y-237610D01*
X-900977Y-238797D01*
X-898798Y-239800D01*
X-896804Y-241133D01*
X-895218Y-241448D01*
X-893749Y-242124D01*
X-872470Y-247220D01*
X-870559Y-247678D01*
Y-260322D01*
X-872471Y-260780D01*
X-893749Y-265876D01*
X-895218Y-266552D01*
X-896804Y-266867D01*
X-898798Y-268200D01*
X-900977Y-269203D01*
X-902075Y-270390D01*
X-903419Y-271288D01*
X-904752Y-273282D01*
X-906381Y-275043D01*
X-906942Y-276560D01*
X-907840Y-277903D01*
X-908308Y-280255D01*
X-909139Y-282506D01*
X-909076Y-284122D01*
X-909392Y-285707D01*
Y-558095D01*
X-907840Y-565898D01*
X-907241Y-566794D01*
X-902092Y-579225D01*
Y-589174D01*
X-907241Y-601606D01*
X-907840Y-602502D01*
X-909392Y-610305D01*
Y-636473D01*
X-908645Y-640227D01*
X-907956Y-643991D01*
X-907870Y-644123D01*
X-907840Y-644277D01*
X-905709Y-647466D01*
X-903636Y-650673D01*
X-903507Y-650762D01*
X-903419Y-650893D01*
X-900236Y-653020D01*
X-897088Y-655193D01*
X-872005Y-666031D01*
X-871851Y-666064D01*
X-871720Y-666151D01*
X-867971Y-666897D01*
X-864226Y-667701D01*
X-864071Y-667673D01*
X-863917Y-667704D01*
X-860164Y-666957D01*
X-856400Y-666267D01*
X-856268Y-666182D01*
X-856113Y-666151D01*
X-843174Y-660792D01*
X-833226D01*
X-824034Y-664599D01*
X-816999Y-671634D01*
X-813192Y-680825D01*
Y-690774D01*
X-816999Y-699966D01*
X-824034Y-707001D01*
X-833225Y-710808D01*
X-843174D01*
X-856113Y-705449D01*
X-856268Y-705418D01*
X-856400Y-705333D01*
X-860164Y-704643D01*
X-863917Y-703896D01*
X-864071Y-703927D01*
X-864226Y-703899D01*
X-867963Y-704701D01*
X-871720Y-705449D01*
X-871852Y-705536D01*
X-872005Y-705569D01*
X-897088Y-716407D01*
X-900240Y-718583D01*
X-903419Y-720707D01*
X-903507Y-720838D01*
X-903636Y-720927D01*
X-905713Y-724140D01*
X-907840Y-727323D01*
X-907870Y-727477D01*
X-907956Y-727609D01*
X-908645Y-731373D01*
X-909392Y-735127D01*
Y-1244600D01*
X-907840Y-1252404D01*
X-903419Y-1259019D01*
X-896804Y-1263440D01*
X-889000Y-1264992D01*
X994268D01*
X1001999Y-1275068D01*
X999810Y-1283237D01*
Y-1307563D01*
X1006106Y-1331061D01*
X1018269Y-1352129D01*
X1035471Y-1369331D01*
X1056539Y-1381494D01*
X1073470Y-1386031D01*
Y-1399179D01*
X1054455Y-1404274D01*
X1032156Y-1417148D01*
X1013948Y-1435355D01*
X1001074Y-1457654D01*
X994410Y-1482525D01*
Y-1482700D01*
X1092200D01*
Y-1508100D01*
X994410D01*
Y-1508274D01*
X1001074Y-1533145D01*
X1013948Y-1555444D01*
X1032156Y-1573651D01*
X1054455Y-1586525D01*
X1073470Y-1591621D01*
Y-1604769D01*
X1056539Y-1609305D01*
X1035471Y-1621469D01*
X1018269Y-1638670D01*
X1006106Y-1659738D01*
X999810Y-1683236D01*
Y-1707562D01*
X1006106Y-1731061D01*
X1018269Y-1752128D01*
X1035471Y-1769330D01*
X1056539Y-1781493D01*
X1080037Y-1787789D01*
X1104363D01*
X1127861Y-1781493D01*
X1148929Y-1769330D01*
X1166131Y-1752128D01*
X1178294Y-1731061D01*
X1182831Y-1714129D01*
X1195979D01*
X1201074Y-1733145D01*
X1213948Y-1755444D01*
X1232155Y-1773651D01*
X1254454Y-1786525D01*
X1279325Y-1793189D01*
X1279500D01*
Y-1695399D01*
X1292200D01*
Y-1682699D01*
X1389990D01*
Y-1682525D01*
X1383325Y-1657654D01*
X1370451Y-1635355D01*
X1352244Y-1617148D01*
X1329945Y-1604273D01*
X1310929Y-1599178D01*
Y-1586030D01*
X1327861Y-1581493D01*
X1348928Y-1569330D01*
X1366130Y-1552128D01*
X1378293Y-1531061D01*
X1384590Y-1507563D01*
Y-1483236D01*
X1378293Y-1459738D01*
X1366130Y-1438671D01*
X1348928Y-1421469D01*
X1327861Y-1409306D01*
X1304363Y-1403010D01*
X1280036D01*
X1256538Y-1409306D01*
X1235471Y-1421469D01*
X1218269Y-1438671D01*
X1206106Y-1459738D01*
X1201569Y-1476670D01*
X1188421D01*
X1183326Y-1457654D01*
X1170452Y-1435355D01*
X1152244Y-1417148D01*
X1129945Y-1404274D01*
X1110930Y-1399179D01*
Y-1386031D01*
X1127861Y-1381494D01*
X1148929Y-1369331D01*
X1166131Y-1352129D01*
X1178294Y-1331061D01*
X1184590Y-1307563D01*
Y-1283237D01*
X1178294Y-1259739D01*
X1166131Y-1238671D01*
X1148929Y-1221469D01*
X1127861Y-1209306D01*
X1104363Y-1203010D01*
X1080037D01*
X1079759Y-1202797D01*
Y-1188003D01*
X1080037Y-1187790D01*
X1104363D01*
X1127861Y-1181494D01*
X1148929Y-1169331D01*
X1166131Y-1152129D01*
X1178294Y-1131062D01*
X1184590Y-1107564D01*
Y-1083237D01*
X1178294Y-1059739D01*
X1166131Y-1038672D01*
X1148929Y-1021470D01*
X1127861Y-1009307D01*
X1104363Y-1003010D01*
X1080037D01*
X1079759Y-1002798D01*
Y-988004D01*
X1080037Y-987791D01*
X1104363D01*
X1127861Y-981495D01*
X1148929Y-969331D01*
X1166131Y-952130D01*
X1178294Y-931062D01*
X1184590Y-907564D01*
Y-883238D01*
X1178294Y-859739D01*
X1166131Y-838672D01*
X1148929Y-821470D01*
X1127861Y-809307D01*
X1104363Y-803011D01*
X1092267D01*
X1087218Y-796370D01*
X1092256Y-787791D01*
X1104363D01*
X1127861Y-781495D01*
X1148929Y-769332D01*
X1166131Y-752130D01*
X1178294Y-731063D01*
X1184590Y-707564D01*
Y-683238D01*
X1178294Y-659740D01*
X1166131Y-638672D01*
X1148929Y-621471D01*
X1137180Y-614687D01*
X1135624Y-612406D01*
X1134303Y-604804D01*
X1134842Y-598672D01*
X1135260Y-598195D01*
X1135692Y-596922D01*
X1136440Y-595803D01*
X1136960Y-593188D01*
X1137818Y-590661D01*
X1137730Y-589318D01*
X1137992Y-588000D01*
Y362762D01*
X1137600Y364731D01*
Y366740D01*
X1136831Y368596D01*
X1136440Y370566D01*
X1135324Y372236D01*
X1134555Y374091D01*
X1133135Y375511D01*
X1132019Y377182D01*
X1130349Y378298D01*
X1128929Y379718D01*
X1112560Y390655D01*
X1110704Y391424D01*
X1109034Y392540D01*
X1107065Y392931D01*
X1105209Y393700D01*
X1103199D01*
X1101230Y394092D01*
X1087226D01*
X1078034Y397899D01*
X1070999Y404934D01*
X1067192Y414125D01*
Y424074D01*
X1070999Y433266D01*
X1078034Y440301D01*
X1090973Y445660D01*
X1091983Y446335D01*
X1093137Y446711D01*
X1095262Y448527D01*
X1097588Y450081D01*
X1098263Y451091D01*
X1099186Y451879D01*
X1115330Y472368D01*
X1115754Y473200D01*
X1116407Y473870D01*
X1117547Y476722D01*
X1118940Y479458D01*
X1119013Y480389D01*
X1119360Y481258D01*
X1119322Y484329D01*
X1119563Y487390D01*
X1119274Y488279D01*
X1119262Y489214D01*
X1118052Y492037D01*
X1117102Y494956D01*
X1116495Y495667D01*
X1116126Y496526D01*
X1105344Y512238D01*
X1103996Y513553D01*
X1102950Y515119D01*
X1101176Y516305D01*
X1099649Y517794D01*
X1097900Y518494D01*
X1096334Y519540D01*
X1094242Y519956D01*
X1092261Y520748D01*
X1090377Y520725D01*
X1088530Y521092D01*
X1074526D01*
X1062094Y526241D01*
X1061198Y526840D01*
X1053395Y528392D01*
D02*
G37*
G36*
X1304363Y-603011D02*
X1280036D01*
X1256538Y-609307D01*
X1235471Y-621471D01*
X1218269Y-638672D01*
X1206106Y-659740D01*
X1199810Y-683238D01*
Y-707564D01*
X1206106Y-731063D01*
X1218269Y-752130D01*
X1235471Y-769332D01*
X1256538Y-781495D01*
X1280036Y-787791D01*
X1304363D01*
X1327861Y-781495D01*
X1348928Y-769332D01*
X1366130Y-752130D01*
X1378293Y-731063D01*
X1384590Y-707564D01*
Y-683238D01*
X1378293Y-659740D01*
X1366130Y-638672D01*
X1348928Y-621471D01*
X1327861Y-609307D01*
X1304363Y-603011D01*
D02*
G37*
G36*
Y-803011D02*
X1280036D01*
X1256538Y-809307D01*
X1235471Y-821470D01*
X1218269Y-838672D01*
X1206106Y-859739D01*
X1199810Y-883238D01*
Y-907564D01*
X1206106Y-931062D01*
X1218269Y-952130D01*
X1235471Y-969331D01*
X1256538Y-981495D01*
X1280036Y-987791D01*
X1304363D01*
X1327861Y-981495D01*
X1348928Y-969331D01*
X1366130Y-952130D01*
X1378293Y-931062D01*
X1384590Y-907564D01*
Y-883238D01*
X1378293Y-859739D01*
X1366130Y-838672D01*
X1348928Y-821470D01*
X1327861Y-809307D01*
X1304363Y-803011D01*
D02*
G37*
G36*
Y-1003010D02*
X1280036D01*
X1256538Y-1009307D01*
X1235471Y-1021470D01*
X1218269Y-1038672D01*
X1206106Y-1059739D01*
X1199810Y-1083237D01*
Y-1107564D01*
X1206106Y-1131062D01*
X1218269Y-1152129D01*
X1235471Y-1169331D01*
X1256538Y-1181494D01*
X1280036Y-1187790D01*
X1304363D01*
X1327861Y-1181494D01*
X1348928Y-1169331D01*
X1366130Y-1152129D01*
X1378293Y-1131062D01*
X1384590Y-1107564D01*
Y-1083237D01*
X1378293Y-1059739D01*
X1366130Y-1038672D01*
X1348928Y-1021470D01*
X1327861Y-1009307D01*
X1304363Y-1003010D01*
D02*
G37*
G36*
Y-1203010D02*
X1280036D01*
X1256538Y-1209306D01*
X1235471Y-1221469D01*
X1218269Y-1238671D01*
X1206106Y-1259739D01*
X1199810Y-1283237D01*
Y-1307563D01*
X1206106Y-1331061D01*
X1218269Y-1352129D01*
X1235471Y-1369331D01*
X1256538Y-1381494D01*
X1280036Y-1387790D01*
X1304363D01*
X1327861Y-1381494D01*
X1348928Y-1369331D01*
X1366130Y-1352129D01*
X1378293Y-1331061D01*
X1384590Y-1307563D01*
Y-1283237D01*
X1378293Y-1259739D01*
X1366130Y-1238671D01*
X1348928Y-1221469D01*
X1327861Y-1209306D01*
X1304363Y-1203010D01*
D02*
G37*
G36*
X1389990Y-1708099D02*
X1304900D01*
Y-1793189D01*
X1305074D01*
X1329945Y-1786525D01*
X1352244Y-1773651D01*
X1370451Y-1755444D01*
X1383325Y-1733145D01*
X1389990Y-1708273D01*
Y-1708099D01*
D02*
G37*
%LPD*%
G36*
X1053783Y507612D02*
X1070469Y500700D01*
X1088530D01*
X1099313Y484988D01*
X1083169Y464500D01*
X1066483Y457588D01*
X1053712Y444817D01*
X1046800Y428131D01*
Y410069D01*
X1053712Y393383D01*
X1066483Y380612D01*
X1083169Y373700D01*
X1101230D01*
X1117600Y362762D01*
Y-588000D01*
X1105074Y-597611D01*
X1104900D01*
Y-695401D01*
X1092200D01*
Y-708101D01*
X994410D01*
Y-708275D01*
X1001074Y-733147D01*
X1013948Y-755446D01*
X1032156Y-773653D01*
X1050955Y-784507D01*
X1053473Y-795692D01*
X1051718Y-812090D01*
X1035471Y-821470D01*
X1018269Y-838672D01*
X1006106Y-859739D01*
X999810Y-883238D01*
Y-907564D01*
X1006106Y-931062D01*
X1018269Y-952130D01*
X1035471Y-969331D01*
X1056539Y-981495D01*
X1059367Y-982253D01*
Y-1008549D01*
X1056539Y-1009307D01*
X1035471Y-1021470D01*
X1018269Y-1038672D01*
X1006106Y-1059739D01*
X999810Y-1083237D01*
Y-1107564D01*
X1006106Y-1131062D01*
X1018269Y-1152129D01*
X1035471Y-1169331D01*
X1056539Y-1181494D01*
X1059367Y-1182252D01*
Y-1208548D01*
X1056539Y-1209306D01*
X1035471Y-1221469D01*
X1018269Y-1238671D01*
X1014847Y-1244600D01*
X-889000D01*
Y-735127D01*
X-863917Y-724288D01*
X-847231Y-731200D01*
X-829169D01*
X-812483Y-724288D01*
X-799712Y-711517D01*
X-792800Y-694831D01*
Y-676769D01*
X-799712Y-660083D01*
X-812483Y-647312D01*
X-829169Y-640400D01*
X-847231D01*
X-863917Y-647312D01*
X-889000Y-636473D01*
Y-610305D01*
X-888612Y-609917D01*
X-881700Y-593231D01*
Y-575169D01*
X-888612Y-558483D01*
X-889000Y-558095D01*
Y-285707D01*
X-865809Y-280153D01*
X-863600Y-280105D01*
X-851217Y-292488D01*
X-834531Y-299400D01*
X-816469D01*
X-799783Y-292488D01*
X-787012Y-279717D01*
X-780100Y-263031D01*
Y-244969D01*
X-787012Y-228283D01*
X-799783Y-215512D01*
X-816469Y-208600D01*
X-834531D01*
X-851217Y-215512D01*
X-863600Y-227895D01*
X-865809Y-227847D01*
X-889000Y-222293D01*
Y508000D01*
X1053395D01*
X1053783Y507612D01*
D02*
G37*
%LPC*%
G36*
X999631Y362900D02*
X981569D01*
X964883Y355988D01*
X952112Y343217D01*
X945200Y326531D01*
Y308469D01*
X952112Y291783D01*
X964883Y279012D01*
X981569Y272100D01*
X999631D01*
X1016317Y279012D01*
X1029088Y291783D01*
X1036000Y308469D01*
Y326531D01*
X1029088Y343217D01*
X1016317Y355988D01*
X999631Y362900D01*
D02*
G37*
G36*
X555131Y312100D02*
X537069D01*
X520383Y305188D01*
X507612Y292417D01*
X500700Y275731D01*
Y259723D01*
X492489Y251395D01*
X479187Y243233D01*
X466231Y248600D01*
X448169D01*
X431483Y241688D01*
X418712Y228917D01*
X411800Y212231D01*
Y194169D01*
X418712Y177483D01*
X431483Y164712D01*
X448169Y157800D01*
X466231D01*
X482917Y164712D01*
X495688Y177483D01*
X502600Y194169D01*
Y210177D01*
X510811Y218505D01*
X524113Y226667D01*
X537069Y221300D01*
X555131D01*
X571817Y228212D01*
X584588Y240983D01*
X591500Y257669D01*
Y275731D01*
X584588Y292417D01*
X571817Y305188D01*
X555131Y312100D01*
D02*
G37*
G36*
X-714869Y401000D02*
X-732931D01*
X-749617Y394088D01*
X-762388Y381317D01*
X-769300Y364631D01*
Y346569D01*
X-762388Y329883D01*
X-751646Y319141D01*
X-750555Y304800D01*
X-751646Y290459D01*
X-762388Y279717D01*
X-769300Y263031D01*
Y244969D01*
X-762388Y228283D01*
X-749617Y215512D01*
X-732931Y208600D01*
X-714869D01*
X-698183Y215512D01*
X-685412Y228283D01*
X-678500Y244969D01*
Y263031D01*
X-685412Y279717D01*
X-696154Y290459D01*
X-697245Y304800D01*
X-696154Y319141D01*
X-685412Y329883D01*
X-678500Y346569D01*
Y364631D01*
X-685412Y381317D01*
X-698183Y394088D01*
X-714869Y401000D01*
D02*
G37*
G36*
X133338Y153568D02*
X115277D01*
X98591Y146657D01*
X84938Y134660D01*
X71284Y146657D01*
X54598Y153568D01*
X36537D01*
X19851Y146657D01*
X6198Y134660D01*
X-7456Y146657D01*
X-24142Y153568D01*
X-42203D01*
X-58889Y146657D01*
X-72542Y134660D01*
X-86196Y146657D01*
X-102882Y153568D01*
X-120943D01*
X-137629Y146657D01*
X-150401Y133885D01*
X-157312Y117199D01*
Y99138D01*
X-150401Y82451D01*
X-138404Y68798D01*
X-150401Y55145D01*
X-157312Y38459D01*
Y20398D01*
X-150401Y3711D01*
X-138404Y-9942D01*
X-150401Y-23595D01*
X-157312Y-40281D01*
Y-58342D01*
X-150401Y-75029D01*
X-138404Y-88682D01*
X-150401Y-102335D01*
X-157312Y-119021D01*
Y-137082D01*
X-150401Y-153769D01*
X-137629Y-166540D01*
X-120943Y-173452D01*
X-102882D01*
X-86195Y-166540D01*
X-72542Y-154544D01*
X-58889Y-166540D01*
X-42203Y-173452D01*
X-24142D01*
X-7455Y-166540D01*
X6198Y-154544D01*
X19851Y-166540D01*
X36537Y-173452D01*
X54598D01*
X71285Y-166540D01*
X84938Y-154544D01*
X98591Y-166540D01*
X115277Y-173452D01*
X133338D01*
X150025Y-166540D01*
X162796Y-153769D01*
X169708Y-137082D01*
Y-119021D01*
X162796Y-102335D01*
X150800Y-88682D01*
X162796Y-75028D01*
X169708Y-58342D01*
Y-40281D01*
X162796Y-23595D01*
X150800Y-9942D01*
X162796Y3712D01*
X169708Y20398D01*
Y38459D01*
X162796Y55145D01*
X150800Y68798D01*
X162796Y82452D01*
X169708Y99138D01*
Y117199D01*
X162796Y133885D01*
X150025Y146657D01*
X133338Y153568D01*
D02*
G37*
G36*
X-727569Y96200D02*
X-745631D01*
X-762317Y89288D01*
X-775088Y76517D01*
X-782000Y59831D01*
Y41769D01*
X-775088Y25083D01*
X-772949Y22943D01*
X-765127Y6350D01*
X-772949Y-10243D01*
X-775088Y-12383D01*
X-782000Y-29069D01*
Y-47131D01*
X-775088Y-63817D01*
X-762317Y-76588D01*
X-745631Y-83500D01*
X-727569D01*
X-710883Y-76588D01*
X-698112Y-63817D01*
X-691200Y-47131D01*
Y-29069D01*
X-698112Y-12383D01*
X-700251Y-10243D01*
X-708073Y6350D01*
X-700251Y22943D01*
X-698112Y25083D01*
X-691200Y41769D01*
Y59831D01*
X-698112Y76517D01*
X-710883Y89288D01*
X-727569Y96200D01*
D02*
G37*
G36*
X758331Y70800D02*
X740269D01*
X723583Y63888D01*
X710812Y51117D01*
X703900Y34431D01*
Y16369D01*
X710812Y-317D01*
X712951Y-2457D01*
X720773Y-19050D01*
X712951Y-35643D01*
X710812Y-37783D01*
X703900Y-54469D01*
Y-72531D01*
X710812Y-89217D01*
X723583Y-101988D01*
X740269Y-108900D01*
X758331D01*
X775017Y-101988D01*
X787788Y-89217D01*
X794700Y-72531D01*
Y-54469D01*
X787788Y-37783D01*
X785649Y-35643D01*
X777827Y-19050D01*
X785649Y-2457D01*
X787788Y-317D01*
X794700Y16369D01*
Y34431D01*
X787788Y51117D01*
X775017Y63888D01*
X758331Y70800D01*
D02*
G37*
G36*
X745631Y-157800D02*
X727569D01*
X710883Y-164712D01*
X698112Y-177483D01*
X691200Y-194169D01*
Y-212231D01*
X698112Y-228917D01*
X710883Y-241688D01*
X727569Y-248600D01*
X745631D01*
X762317Y-241688D01*
X775088Y-228917D01*
X782000Y-212231D01*
Y-194169D01*
X775088Y-177483D01*
X762317Y-164712D01*
X745631Y-157800D01*
D02*
G37*
G36*
X-283069Y-208600D02*
X-301131D01*
X-317817Y-215512D01*
X-330588Y-228283D01*
X-337500Y-244969D01*
Y-263031D01*
X-330588Y-279717D01*
X-317817Y-292488D01*
X-301131Y-299400D01*
X-283069D01*
X-266383Y-292488D01*
X-253612Y-279717D01*
X-246700Y-263031D01*
Y-244969D01*
X-253612Y-228283D01*
X-266383Y-215512D01*
X-283069Y-208600D01*
D02*
G37*
G36*
X-727569Y-297500D02*
X-745631D01*
X-762317Y-304412D01*
X-775088Y-317183D01*
X-782000Y-333869D01*
Y-351931D01*
X-775088Y-368617D01*
X-762317Y-381388D01*
X-745631Y-388300D01*
X-727569D01*
X-710883Y-381388D01*
X-698112Y-368617D01*
X-691200Y-351931D01*
Y-333869D01*
X-698112Y-317183D01*
X-710883Y-304412D01*
X-727569Y-297500D01*
D02*
G37*
G36*
X-524369Y-361000D02*
X-542431D01*
X-559117Y-367912D01*
X-571888Y-380683D01*
X-578800Y-397369D01*
Y-415431D01*
X-571888Y-432117D01*
X-559117Y-444888D01*
X-542431Y-451800D01*
X-524369D01*
X-507683Y-444888D01*
X-494912Y-432117D01*
X-488000Y-415431D01*
Y-397369D01*
X-494912Y-380683D01*
X-507683Y-367912D01*
X-524369Y-361000D01*
D02*
G37*
G36*
X-156069Y-348300D02*
X-174131D01*
X-190817Y-355212D01*
X-203588Y-367983D01*
X-210500Y-384669D01*
Y-402731D01*
X-203588Y-419417D01*
X-190817Y-432188D01*
X-174131Y-439100D01*
X-156069D01*
X-139383Y-432188D01*
X-125488Y-444817D01*
X-112717Y-457588D01*
X-96031Y-464500D01*
X-77969D01*
X-61283Y-457588D01*
X-48512Y-444817D01*
X-41600Y-428131D01*
Y-410069D01*
X-48512Y-393383D01*
X-61283Y-380612D01*
X-77969Y-373700D01*
X-96031D01*
X-112717Y-380612D01*
X-126612Y-367983D01*
X-139383Y-355212D01*
X-156069Y-348300D01*
D02*
G37*
G36*
X-54469Y-513400D02*
X-72531D01*
X-89217Y-520312D01*
X-101988Y-533083D01*
X-108900Y-549769D01*
Y-567831D01*
X-101988Y-584517D01*
X-89217Y-597288D01*
X-72531Y-604200D01*
X-54469D01*
X-37783Y-597288D01*
X-25012Y-584517D01*
X-18100Y-567831D01*
Y-549769D01*
X-25012Y-533083D01*
X-37783Y-520312D01*
X-54469Y-513400D01*
D02*
G37*
G36*
X-194169D02*
X-212231D01*
X-228917Y-520312D01*
X-241688Y-533083D01*
X-248600Y-549769D01*
Y-567831D01*
X-241688Y-584517D01*
X-228917Y-597288D01*
X-212231Y-604200D01*
X-194169D01*
X-177483Y-597288D01*
X-164712Y-584517D01*
X-157800Y-567831D01*
Y-549769D01*
X-164712Y-533083D01*
X-177483Y-520312D01*
X-194169Y-513400D01*
D02*
G37*
G36*
X1079500Y-597611D02*
X1079326D01*
X1054455Y-604275D01*
X1032156Y-617150D01*
X1013948Y-635357D01*
X1001074Y-657656D01*
X994410Y-682527D01*
Y-682701D01*
X1079500D01*
Y-597611D01*
D02*
G37*
G36*
X-257669Y-615000D02*
X-275731D01*
X-292417Y-621912D01*
X-305188Y-634683D01*
X-312100Y-651369D01*
Y-669431D01*
X-305188Y-686117D01*
X-292417Y-698888D01*
X-275731Y-705800D01*
X-257669D01*
X-240983Y-698888D01*
X-228212Y-686117D01*
X-221300Y-669431D01*
Y-651369D01*
X-228212Y-634683D01*
X-240983Y-621912D01*
X-257669Y-615000D01*
D02*
G37*
G36*
X313831Y-698500D02*
X295769D01*
X279083Y-705412D01*
X266312Y-718183D01*
X259400Y-734869D01*
Y-752931D01*
X266312Y-769617D01*
X279083Y-782388D01*
X295769Y-789300D01*
X313831D01*
X330517Y-782388D01*
X343288Y-769617D01*
X350200Y-752931D01*
Y-734869D01*
X343288Y-718183D01*
X330517Y-705412D01*
X313831Y-698500D01*
D02*
G37*
G36*
X-689469Y-830900D02*
X-707531D01*
X-724217Y-837812D01*
X-736988Y-850583D01*
X-743900Y-867269D01*
Y-885331D01*
X-736988Y-902017D01*
X-724217Y-914788D01*
X-707531Y-921700D01*
X-689469D01*
X-672783Y-914788D01*
X-660012Y-902017D01*
X-653100Y-885331D01*
Y-867269D01*
X-660012Y-850583D01*
X-672783Y-837812D01*
X-689469Y-830900D01*
D02*
G37*
G36*
X326531Y-932500D02*
X308469D01*
X291783Y-939412D01*
X279012Y-952183D01*
X272100Y-968869D01*
Y-986931D01*
X279012Y-1003617D01*
X291783Y-1016388D01*
X308469Y-1023300D01*
X326531D01*
X343217Y-1016388D01*
X355988Y-1003617D01*
X362900Y-986931D01*
Y-968869D01*
X355988Y-952183D01*
X343217Y-939412D01*
X326531Y-932500D01*
D02*
G37*
G36*
X-600569D02*
X-618631D01*
X-635317Y-939412D01*
X-648088Y-952183D01*
X-655000Y-968869D01*
Y-986931D01*
X-648088Y-1003617D01*
X-635317Y-1016388D01*
X-618631Y-1023300D01*
X-600569D01*
X-583883Y-1016388D01*
X-571112Y-1003617D01*
X-564200Y-986931D01*
Y-968869D01*
X-571112Y-952183D01*
X-583883Y-939412D01*
X-600569Y-932500D01*
D02*
G37*
%LPD*%
G36*
X138473Y129369D02*
X145509Y122334D01*
X149316Y113143D01*
Y103194D01*
X145249Y93375D01*
X135481Y82258D01*
X134136Y79934D01*
X132502Y77800D01*
X132160Y76519D01*
X131496Y75372D01*
X131143Y72709D01*
X130450Y70113D01*
X130624Y68798D01*
X130450Y67484D01*
X131143Y64888D01*
X131496Y62225D01*
X132160Y61078D01*
X132502Y59797D01*
X134135Y57664D01*
X135481Y55338D01*
X145249Y44222D01*
X149316Y34403D01*
Y24454D01*
X145249Y14635D01*
X135481Y3518D01*
X134136Y1194D01*
X132502Y-940D01*
X132160Y-2221D01*
X131496Y-3368D01*
X131143Y-6031D01*
X130450Y-8627D01*
X130624Y-9942D01*
X130450Y-11256D01*
X131143Y-13852D01*
X131496Y-16515D01*
X132160Y-17662D01*
X132502Y-18943D01*
X134135Y-21076D01*
X135481Y-23402D01*
X145249Y-34518D01*
X149316Y-44337D01*
Y-54286D01*
X145249Y-64105D01*
X135481Y-75222D01*
X134136Y-77546D01*
X132502Y-79680D01*
X132160Y-80961D01*
X131496Y-82108D01*
X131143Y-84771D01*
X130450Y-87367D01*
X130624Y-88682D01*
X130450Y-89996D01*
X131143Y-92592D01*
X131496Y-95255D01*
X132160Y-96402D01*
X132502Y-97683D01*
X134135Y-99816D01*
X135481Y-102142D01*
X145249Y-113258D01*
X149316Y-123077D01*
Y-133026D01*
X145508Y-142217D01*
X138473Y-149253D01*
X129282Y-153060D01*
X119333D01*
X109514Y-148993D01*
X98398Y-139225D01*
X96073Y-137880D01*
X93939Y-136246D01*
X92658Y-135904D01*
X91511Y-135240D01*
X88848Y-134887D01*
X86252Y-134194D01*
X84938Y-134368D01*
X83623Y-134194D01*
X81027Y-134887D01*
X78364Y-135240D01*
X77217Y-135904D01*
X75936Y-136246D01*
X73803Y-137879D01*
X71478Y-139225D01*
X60361Y-148993D01*
X50542Y-153060D01*
X40593D01*
X30774Y-148993D01*
X19658Y-139225D01*
X17333Y-137880D01*
X15199Y-136246D01*
X13918Y-135904D01*
X12771Y-135240D01*
X10108Y-134887D01*
X7512Y-134194D01*
X6198Y-134368D01*
X4883Y-134194D01*
X2287Y-134887D01*
X-376Y-135240D01*
X-1523Y-135904D01*
X-2804Y-136246D01*
X-4937Y-137879D01*
X-7262Y-139225D01*
X-18379Y-148993D01*
X-28198Y-153060D01*
X-38147D01*
X-47966Y-148993D01*
X-59082Y-139225D01*
X-61407Y-137880D01*
X-63541Y-136246D01*
X-64822Y-135904D01*
X-65969Y-135240D01*
X-68632Y-134887D01*
X-71228Y-134194D01*
X-72542Y-134368D01*
X-73857Y-134194D01*
X-76453Y-134887D01*
X-79116Y-135240D01*
X-80263Y-135904D01*
X-81544Y-136246D01*
X-83677Y-137879D01*
X-86002Y-139225D01*
X-97119Y-148993D01*
X-106938Y-153060D01*
X-116887D01*
X-126078Y-149252D01*
X-133114Y-142217D01*
X-136920Y-133026D01*
Y-123077D01*
X-132854Y-113258D01*
X-123086Y-102142D01*
X-121741Y-99817D01*
X-120107Y-97683D01*
X-119765Y-96402D01*
X-119101Y-95255D01*
X-118748Y-92592D01*
X-118055Y-89996D01*
X-118229Y-88682D01*
X-118055Y-87367D01*
X-118748Y-84771D01*
X-119101Y-82108D01*
X-119765Y-80961D01*
X-120107Y-79680D01*
X-121740Y-77547D01*
X-123086Y-75222D01*
X-132853Y-64105D01*
X-136920Y-54286D01*
Y-44337D01*
X-132854Y-34518D01*
X-123086Y-23402D01*
X-121741Y-21077D01*
X-120107Y-18943D01*
X-119765Y-17662D01*
X-119101Y-16515D01*
X-118748Y-13852D01*
X-118055Y-11256D01*
X-118229Y-9942D01*
X-118055Y-8627D01*
X-118748Y-6031D01*
X-119101Y-3368D01*
X-119765Y-2221D01*
X-120107Y-940D01*
X-121740Y1193D01*
X-123086Y3518D01*
X-132853Y14635D01*
X-136920Y24454D01*
Y34403D01*
X-132854Y44222D01*
X-123086Y55338D01*
X-121741Y57663D01*
X-120107Y59797D01*
X-119765Y61078D01*
X-119101Y62225D01*
X-118748Y64888D01*
X-118055Y67484D01*
X-118229Y68798D01*
X-118055Y70113D01*
X-118748Y72709D01*
X-119101Y75372D01*
X-119765Y76519D01*
X-120107Y77800D01*
X-121740Y79933D01*
X-123086Y82258D01*
X-132853Y93375D01*
X-136920Y103194D01*
Y113143D01*
X-133113Y122334D01*
X-126078Y129370D01*
X-116887Y133177D01*
X-106938D01*
X-97119Y129110D01*
X-86002Y119342D01*
X-83678Y117997D01*
X-81544Y116363D01*
X-80263Y116021D01*
X-79116Y115357D01*
X-76453Y115004D01*
X-73857Y114311D01*
X-72542Y114485D01*
X-71228Y114311D01*
X-68632Y115004D01*
X-65969Y115357D01*
X-64822Y116021D01*
X-63541Y116363D01*
X-61408Y117996D01*
X-59082Y119342D01*
X-47966Y129109D01*
X-38147Y133177D01*
X-28198D01*
X-18379Y129110D01*
X-7262Y119342D01*
X-4938Y117997D01*
X-2804Y116363D01*
X-1523Y116021D01*
X-376Y115357D01*
X2287Y115004D01*
X4883Y114311D01*
X6198Y114485D01*
X7512Y114311D01*
X10108Y115004D01*
X12771Y115357D01*
X13918Y116021D01*
X15199Y116363D01*
X17332Y117996D01*
X19658Y119342D01*
X30774Y129109D01*
X40593Y133177D01*
X50542D01*
X60361Y129110D01*
X71478Y119342D01*
X73802Y117997D01*
X75936Y116363D01*
X77217Y116021D01*
X78364Y115357D01*
X81027Y115004D01*
X83623Y114311D01*
X84938Y114485D01*
X86252Y114311D01*
X88848Y115004D01*
X91511Y115357D01*
X92658Y116021D01*
X93939Y116363D01*
X96072Y117996D01*
X98398Y119342D01*
X109514Y129109D01*
X119333Y133177D01*
X129282D01*
X138473Y129369D01*
D02*
G37*
D36*
X1016000Y1905000D02*
D03*
X-889000Y-1714500D02*
D03*
D37*
X1292200Y-1695399D02*
D03*
X1092200D02*
D03*
X1292200Y-1495400D02*
D03*
X1092200D02*
D03*
X1292200Y-1295400D02*
D03*
X1092200D02*
D03*
X1292200Y-1095400D02*
D03*
X1092200D02*
D03*
X1292200Y-895401D02*
D03*
X1092200D02*
D03*
X1292200Y-695401D02*
D03*
X1092200D02*
D03*
D38*
X-111912Y108168D02*
D03*
X-33172D02*
D03*
X45568D02*
D03*
X124308D02*
D03*
X-111912Y29428D02*
D03*
X-33172D02*
D03*
X45568D02*
D03*
X124308D02*
D03*
X-111912Y-49312D02*
D03*
X-33172D02*
D03*
X45568D02*
D03*
X124308D02*
D03*
X-111912Y-128052D02*
D03*
X-33172D02*
D03*
X45568D02*
D03*
X124308D02*
D03*
D39*
X1790700Y2133600D02*
D03*
Y2006600D02*
D03*
Y1879600D02*
D03*
Y1752600D02*
D03*
Y1625600D02*
D03*
Y1498600D02*
D03*
Y1371600D02*
D03*
Y1244600D02*
D03*
Y1117600D02*
D03*
Y990600D02*
D03*
Y863600D02*
D03*
Y736600D02*
D03*
Y609600D02*
D03*
Y482600D02*
D03*
Y355600D02*
D03*
Y228600D02*
D03*
Y101600D02*
D03*
Y-25400D02*
D03*
Y-152400D02*
D03*
Y-279400D02*
D03*
Y-406400D02*
D03*
Y-533400D02*
D03*
Y-660400D02*
D03*
Y-787400D02*
D03*
Y-914400D02*
D03*
Y-1041400D02*
D03*
Y-1168400D02*
D03*
Y-1295400D02*
D03*
Y-1422400D02*
D03*
Y-1549400D02*
D03*
Y-1676400D02*
D03*
Y-1803400D02*
D03*
Y-1930400D02*
D03*
X1663700Y2133600D02*
D03*
Y2006600D02*
D03*
Y1879600D02*
D03*
Y1752600D02*
D03*
Y1625600D02*
D03*
Y1498600D02*
D03*
Y1371600D02*
D03*
Y1244600D02*
D03*
Y1117600D02*
D03*
Y990600D02*
D03*
Y863600D02*
D03*
Y736600D02*
D03*
Y609600D02*
D03*
Y482600D02*
D03*
Y355600D02*
D03*
Y228600D02*
D03*
Y101600D02*
D03*
Y-25400D02*
D03*
Y-152400D02*
D03*
Y-279400D02*
D03*
Y-406400D02*
D03*
Y-533400D02*
D03*
Y-660400D02*
D03*
Y-787400D02*
D03*
Y-914400D02*
D03*
Y-1041400D02*
D03*
Y-1168400D02*
D03*
Y-1295400D02*
D03*
Y-1422400D02*
D03*
Y-1549400D02*
D03*
Y-1676400D02*
D03*
Y-1803400D02*
D03*
Y-1930400D02*
D03*
X1536700Y2133600D02*
D03*
Y2006600D02*
D03*
Y1879600D02*
D03*
Y1752600D02*
D03*
Y1625600D02*
D03*
Y1498600D02*
D03*
Y1371600D02*
D03*
Y1244600D02*
D03*
Y1117600D02*
D03*
Y990600D02*
D03*
Y863600D02*
D03*
Y736600D02*
D03*
Y609600D02*
D03*
Y482600D02*
D03*
Y355600D02*
D03*
Y228600D02*
D03*
Y101600D02*
D03*
Y-25400D02*
D03*
Y-152400D02*
D03*
Y-279400D02*
D03*
Y-406400D02*
D03*
Y-1422400D02*
D03*
Y-1549400D02*
D03*
Y-1676400D02*
D03*
Y-1803400D02*
D03*
Y-1930400D02*
D03*
X1409700Y2133600D02*
D03*
Y2006600D02*
D03*
Y1879600D02*
D03*
Y1752600D02*
D03*
Y1625600D02*
D03*
Y1498600D02*
D03*
Y1371600D02*
D03*
Y1244600D02*
D03*
Y1117600D02*
D03*
Y990600D02*
D03*
Y863600D02*
D03*
Y736600D02*
D03*
Y609600D02*
D03*
Y482600D02*
D03*
Y355600D02*
D03*
Y228600D02*
D03*
Y101600D02*
D03*
Y-25400D02*
D03*
Y-152400D02*
D03*
Y-279400D02*
D03*
Y-1930400D02*
D03*
X1282700Y2133600D02*
D03*
Y2006600D02*
D03*
Y1879600D02*
D03*
Y1752600D02*
D03*
Y1625600D02*
D03*
Y1498600D02*
D03*
Y1371600D02*
D03*
Y1244600D02*
D03*
Y1117600D02*
D03*
Y990600D02*
D03*
Y863600D02*
D03*
Y736600D02*
D03*
Y609600D02*
D03*
Y482600D02*
D03*
Y355600D02*
D03*
Y228600D02*
D03*
Y101600D02*
D03*
Y-25400D02*
D03*
Y-152400D02*
D03*
Y-1930400D02*
D03*
X1155700Y2133600D02*
D03*
Y1625600D02*
D03*
Y1498600D02*
D03*
Y1371600D02*
D03*
Y1244600D02*
D03*
Y1117600D02*
D03*
Y990600D02*
D03*
Y863600D02*
D03*
Y736600D02*
D03*
Y609600D02*
D03*
Y-1930400D02*
D03*
X1028700Y1625600D02*
D03*
Y1498600D02*
D03*
Y1371600D02*
D03*
Y1244600D02*
D03*
Y990600D02*
D03*
Y863600D02*
D03*
Y736600D02*
D03*
Y-1930400D02*
D03*
X901700Y2133600D02*
D03*
Y1625600D02*
D03*
Y1498600D02*
D03*
Y1371600D02*
D03*
Y863600D02*
D03*
Y736600D02*
D03*
Y-1422400D02*
D03*
Y-1803400D02*
D03*
Y-1930400D02*
D03*
X774700Y2133600D02*
D03*
Y2006600D02*
D03*
Y1879600D02*
D03*
Y1752600D02*
D03*
Y1625600D02*
D03*
Y1498600D02*
D03*
Y-1422400D02*
D03*
Y-1803400D02*
D03*
Y-1930400D02*
D03*
X647700Y2133600D02*
D03*
Y2006600D02*
D03*
Y1879600D02*
D03*
Y1752600D02*
D03*
Y1625600D02*
D03*
Y-1422400D02*
D03*
Y-1803400D02*
D03*
Y-1930400D02*
D03*
X520700Y2133600D02*
D03*
Y2006600D02*
D03*
Y1879600D02*
D03*
Y1752600D02*
D03*
Y1244600D02*
D03*
Y1117600D02*
D03*
Y-1422400D02*
D03*
Y-1803400D02*
D03*
Y-1930400D02*
D03*
X393700Y2133600D02*
D03*
Y2006600D02*
D03*
Y1879600D02*
D03*
Y1371600D02*
D03*
Y1244600D02*
D03*
Y1117600D02*
D03*
Y736600D02*
D03*
Y-1803400D02*
D03*
Y-1930400D02*
D03*
X266700Y2133600D02*
D03*
Y2006600D02*
D03*
Y1879600D02*
D03*
Y1498600D02*
D03*
Y1371600D02*
D03*
Y1244600D02*
D03*
Y1117600D02*
D03*
Y-1803400D02*
D03*
Y-1930400D02*
D03*
X139700Y2133600D02*
D03*
Y2006600D02*
D03*
Y1879600D02*
D03*
Y1498600D02*
D03*
Y1371600D02*
D03*
Y1244600D02*
D03*
Y1117600D02*
D03*
Y990600D02*
D03*
Y-1803400D02*
D03*
Y-1930400D02*
D03*
X12700Y2133600D02*
D03*
Y2006600D02*
D03*
Y1879600D02*
D03*
Y1498600D02*
D03*
Y1371600D02*
D03*
Y1244600D02*
D03*
Y1117600D02*
D03*
Y990600D02*
D03*
Y-1676400D02*
D03*
Y-1803400D02*
D03*
Y-1930400D02*
D03*
X-114300Y2133600D02*
D03*
Y2006600D02*
D03*
Y1879600D02*
D03*
Y1498600D02*
D03*
Y1371600D02*
D03*
Y1244600D02*
D03*
Y1117600D02*
D03*
Y990600D02*
D03*
Y-1422400D02*
D03*
Y-1549400D02*
D03*
Y-1676400D02*
D03*
Y-1803400D02*
D03*
Y-1930400D02*
D03*
X-241300Y2133600D02*
D03*
Y2006600D02*
D03*
Y1879600D02*
D03*
Y1498600D02*
D03*
Y1371600D02*
D03*
Y1244600D02*
D03*
Y1117600D02*
D03*
Y990600D02*
D03*
Y-1422400D02*
D03*
Y-1549400D02*
D03*
Y-1676400D02*
D03*
Y-1803400D02*
D03*
Y-1930400D02*
D03*
X-368300Y2133600D02*
D03*
Y1244600D02*
D03*
Y1117600D02*
D03*
Y990600D02*
D03*
Y-1422400D02*
D03*
Y-1549400D02*
D03*
Y-1676400D02*
D03*
Y-1803400D02*
D03*
Y-1930400D02*
D03*
X-495300Y2133600D02*
D03*
Y1244600D02*
D03*
Y1117600D02*
D03*
Y990600D02*
D03*
Y863600D02*
D03*
Y-1422400D02*
D03*
Y-1549400D02*
D03*
Y-1676400D02*
D03*
Y-1803400D02*
D03*
Y-1930400D02*
D03*
X-622300Y2133600D02*
D03*
Y1244600D02*
D03*
Y1117600D02*
D03*
Y990600D02*
D03*
Y863600D02*
D03*
Y736600D02*
D03*
Y609600D02*
D03*
Y-1422400D02*
D03*
Y-1549400D02*
D03*
Y-1676400D02*
D03*
Y-1803400D02*
D03*
Y-1930400D02*
D03*
X-749300Y2133600D02*
D03*
Y1244600D02*
D03*
Y1117600D02*
D03*
Y990600D02*
D03*
Y863600D02*
D03*
Y736600D02*
D03*
Y609600D02*
D03*
Y-1422400D02*
D03*
Y-1930400D02*
D03*
X-876300Y2133600D02*
D03*
Y1752600D02*
D03*
Y1625600D02*
D03*
Y1244600D02*
D03*
Y1117600D02*
D03*
Y990600D02*
D03*
Y863600D02*
D03*
Y736600D02*
D03*
Y609600D02*
D03*
Y-1422400D02*
D03*
X-1003300Y2133600D02*
D03*
Y2006600D02*
D03*
Y1879600D02*
D03*
Y1752600D02*
D03*
Y1625600D02*
D03*
Y1498600D02*
D03*
Y1371600D02*
D03*
Y1244600D02*
D03*
Y1117600D02*
D03*
Y990600D02*
D03*
Y863600D02*
D03*
Y736600D02*
D03*
Y609600D02*
D03*
Y482600D02*
D03*
Y355600D02*
D03*
Y228600D02*
D03*
Y101600D02*
D03*
Y-25400D02*
D03*
Y-152400D02*
D03*
Y-279400D02*
D03*
Y-406400D02*
D03*
Y-533400D02*
D03*
Y-660400D02*
D03*
Y-787400D02*
D03*
Y-914400D02*
D03*
Y-1041400D02*
D03*
Y-1168400D02*
D03*
Y-1295400D02*
D03*
Y-1422400D02*
D03*
Y-1930400D02*
D03*
X-1130300Y2133600D02*
D03*
Y2006600D02*
D03*
Y1879600D02*
D03*
Y1752600D02*
D03*
Y1625600D02*
D03*
Y1498600D02*
D03*
Y1371600D02*
D03*
Y1244600D02*
D03*
Y1117600D02*
D03*
Y990600D02*
D03*
Y863600D02*
D03*
Y736600D02*
D03*
Y609600D02*
D03*
Y482600D02*
D03*
Y355600D02*
D03*
Y228600D02*
D03*
Y101600D02*
D03*
Y-25400D02*
D03*
Y-152400D02*
D03*
Y-279400D02*
D03*
Y-406400D02*
D03*
Y-533400D02*
D03*
Y-660400D02*
D03*
Y-787400D02*
D03*
Y-914400D02*
D03*
Y-1041400D02*
D03*
Y-1168400D02*
D03*
Y-1295400D02*
D03*
Y-1422400D02*
D03*
Y-1549400D02*
D03*
Y-1676400D02*
D03*
Y-1803400D02*
D03*
Y-1930400D02*
D03*
X749300Y330200D02*
D03*
X990600Y317500D02*
D03*
X1079500Y546100D02*
D03*
X1092200Y419100D02*
D03*
X314960Y822960D02*
D03*
X621086Y-129586D02*
D03*
X-292100Y-254000D02*
D03*
X-431800Y469900D02*
D03*
X-203200Y-558800D02*
D03*
X-87000Y-419100D02*
D03*
X304800Y-743900D02*
D03*
X636991Y-275722D02*
D03*
X-63500Y-558800D02*
D03*
X-165100Y-393700D02*
D03*
X38100Y-1168400D02*
D03*
X-38100D02*
D03*
X736600Y-203200D02*
D03*
X749300Y-63500D02*
D03*
X317500Y-977900D02*
D03*
X-266700Y-660400D02*
D03*
X-609600Y-977900D02*
D03*
X-698500Y-876300D02*
D03*
X-838200Y-685800D02*
D03*
X-927100Y-584200D02*
D03*
X1028700Y1117600D02*
D03*
X-508000Y660400D02*
D03*
X-419100Y736600D02*
D03*
X254000Y-1447800D02*
D03*
X-114300Y889000D02*
D03*
X-254000D02*
D03*
X-736600Y-342900D02*
D03*
X-825500Y-254000D02*
D03*
X-736600Y-38100D02*
D03*
Y50800D02*
D03*
X-723900Y254000D02*
D03*
Y355600D02*
D03*
X457200Y203200D02*
D03*
X546100Y266700D02*
D03*
X749300Y25400D02*
D03*
X-711200Y152400D02*
D03*
X-533400Y-406400D02*
D03*
X660400Y114300D02*
D03*
X-703580Y-147320D02*
D03*
X190500Y-1016000D02*
D03*
Y-1168400D02*
D03*
X114300Y-1016000D02*
D03*
X152400Y-1092200D02*
D03*
X114300Y-1168400D02*
D03*
X38100Y-863600D02*
D03*
X76200Y-939800D02*
D03*
X38100Y-1016000D02*
D03*
X76200Y-1092200D02*
D03*
X-38100Y-863600D02*
D03*
X0Y-939800D02*
D03*
X-38100Y-1016000D02*
D03*
X0Y-1092200D02*
D03*
X-698500Y444500D02*
D03*
X-330200Y-609600D02*
D03*
%TF.MD5,c8c4ede6beaa417389671dc0972f0cf9*%
M02*
