%TF.GenerationSoftware,Altium Limited,Altium Designer,24.10.1 (45)*%
G04 Layer_Color=8388736*
%FSLAX45Y45*%
%MOMM*%
%TF.SameCoordinates,BD69F3EC-0890-4BE1-91DE-E58431A91F3E*%
%TF.FilePolarity,Negative*%
%TF.FileFunction,Soldermask,Top*%
%TF.Part,Single*%
G01*
G75*
%TA.AperFunction,SMDPad,CuDef*%
%ADD10C,1.50000*%
%ADD11C,2.05000*%
%ADD43R,0.40080X0.70080*%
%ADD44R,0.61080X0.57080*%
G04:AMPARAMS|DCode=45|XSize=0.9808mm|YSize=0.9808mm|CornerRadius=0.2579mm|HoleSize=0mm|Usage=FLASHONLY|Rotation=0.000|XOffset=0mm|YOffset=0mm|HoleType=Round|Shape=RoundedRectangle|*
%AMROUNDEDRECTD45*
21,1,0.98080,0.46500,0,0,0.0*
21,1,0.46500,0.98080,0,0,0.0*
1,1,0.51580,0.23250,-0.23250*
1,1,0.51580,-0.23250,-0.23250*
1,1,0.51580,-0.23250,0.23250*
1,1,0.51580,0.23250,0.23250*
%
%ADD45ROUNDEDRECTD45*%
%ADD46R,0.55880X1.02870*%
%ADD47R,0.60960X0.76200*%
%ADD48R,0.65080X0.60080*%
%ADD49R,0.67080X0.71080*%
%ADD50R,0.70080X0.40080*%
%ADD51R,0.57080X0.61080*%
%ADD52R,0.45080X0.55080*%
G04:AMPARAMS|DCode=53|XSize=1.1608mm|YSize=1.2608mm|CornerRadius=0.16415mm|HoleSize=0mm|Usage=FLASHONLY|Rotation=0.000|XOffset=0mm|YOffset=0mm|HoleType=Round|Shape=RoundedRectangle|*
%AMROUNDEDRECTD53*
21,1,1.16080,0.93250,0,0,0.0*
21,1,0.83250,1.26080,0,0,0.0*
1,1,0.32830,0.41625,-0.46625*
1,1,0.32830,-0.41625,-0.46625*
1,1,0.32830,-0.41625,0.46625*
1,1,0.32830,0.41625,0.46625*
%
%ADD53ROUNDEDRECTD53*%
%ADD54R,0.70080X0.65080*%
%ADD55R,0.81080X0.77080*%
%ADD56R,3.50080X3.50080*%
%ADD57R,0.90068X0.33071*%
%ADD58R,0.33071X0.90068*%
%ADD59R,0.77080X0.81080*%
%ADD60R,0.52327X0.56615*%
%ADD61R,0.55080X0.45080*%
%TA.AperFunction,ComponentPad*%
%ADD62C,1.49860*%
%ADD63C,0.55880*%
G36*
X71200Y1883200D02*
X-140030Y1883200D01*
X-140031D01*
X-151151Y1895864D01*
X-176039Y1918559D01*
X-204000Y1937340D01*
X-234423Y1951796D01*
X-266644Y1961613D01*
X-299959Y1966575D01*
X-333642D01*
X-366957Y1961613D01*
X-399178Y1951796D01*
X-429601Y1937340D01*
X-457562Y1918559D01*
X-482451Y1895864D01*
X-493570Y1883200D01*
X-704800D01*
Y2127200D01*
X71200D01*
Y1883200D01*
D02*
G37*
G36*
Y1351200D02*
X-704800D01*
Y1595200D01*
X-493570Y1595200D01*
X-482450Y1582536D01*
X-457561Y1559840D01*
X-429601Y1541059D01*
X-399178Y1526603D01*
X-366957Y1516786D01*
X-333642Y1511824D01*
X-299959D01*
X-266643Y1516786D01*
X-234422Y1526603D01*
X-204000Y1541059D01*
X-176039Y1559840D01*
X-151150Y1582536D01*
X-140030Y1595200D01*
X-140030Y1595200D01*
X71200D01*
Y1351200D01*
D02*
G37*
G36*
X185050Y128166D02*
Y88166D01*
Y49426D01*
Y9426D01*
Y-29314D01*
Y-69314D01*
Y-108054D01*
Y-188794D01*
X-172650D01*
Y-148054D01*
Y-108054D01*
Y-69314D01*
Y-29314D01*
Y9426D01*
Y49426D01*
Y88166D01*
Y128166D01*
Y168906D01*
X185050D01*
Y128166D01*
D02*
G37*
%LPC*%
G36*
X144310D02*
X104310D01*
Y88166D01*
X144310D01*
Y128166D01*
D02*
G37*
G36*
X65570D02*
X25570D01*
Y88166D01*
X65570D01*
Y128166D01*
D02*
G37*
G36*
X-13170D02*
X-53170D01*
Y88166D01*
X-13170D01*
Y128166D01*
D02*
G37*
G36*
X-91910D02*
X-131910D01*
Y88166D01*
X-91910D01*
Y128166D01*
D02*
G37*
G36*
X144310Y49426D02*
X104310D01*
Y9426D01*
X144310D01*
Y49426D01*
D02*
G37*
G36*
X65570D02*
X25570D01*
Y9426D01*
X65570D01*
Y49426D01*
D02*
G37*
G36*
X-13170D02*
X-53170D01*
Y9426D01*
X-13170D01*
Y49426D01*
D02*
G37*
G36*
X-91910D02*
X-131910D01*
Y9426D01*
X-91910D01*
Y49426D01*
D02*
G37*
G36*
X144310Y-29314D02*
X104310D01*
Y-69314D01*
X144310D01*
Y-29314D01*
D02*
G37*
G36*
X65570D02*
X25570D01*
Y-69314D01*
X65570D01*
Y-29314D01*
D02*
G37*
G36*
X-13170D02*
X-53170D01*
Y-69314D01*
X-13170D01*
Y-29314D01*
D02*
G37*
G36*
X-91910D02*
X-131910D01*
Y-69314D01*
X-91910D01*
Y-29314D01*
D02*
G37*
G36*
X144310Y-108054D02*
X104310D01*
Y-148054D01*
X144310D01*
Y-108054D01*
D02*
G37*
G36*
X65570D02*
X25570D01*
Y-148054D01*
X65570D01*
Y-108054D01*
D02*
G37*
G36*
X-13170D02*
X-53170D01*
Y-148054D01*
X-13170D01*
Y-108054D01*
D02*
G37*
G36*
X-91910D02*
X-131910D01*
Y-148054D01*
X-91910D01*
Y-108054D01*
D02*
G37*
%LPD*%
D10*
X-50800Y2005200D02*
D03*
Y1473200D02*
D03*
D11*
X-316800Y1739200D02*
D03*
D43*
X410800Y342900D02*
D03*
X325800D02*
D03*
X393700Y939800D02*
D03*
X478700D02*
D03*
X232500Y1739900D02*
D03*
X317500D02*
D03*
X139700Y469900D02*
D03*
X54700D02*
D03*
D44*
X407300Y482600D02*
D03*
X329300D02*
D03*
X862700Y1117600D02*
D03*
X940700D02*
D03*
X978800Y546100D02*
D03*
X900800D02*
D03*
X-532500Y-889000D02*
D03*
X-610500D02*
D03*
D45*
X292100Y-850900D02*
D03*
X142100D02*
D03*
D46*
X152900Y-1308100D02*
D03*
X342900D02*
D03*
Y-1581150D02*
D03*
X247900D02*
D03*
X152900D02*
D03*
D47*
X0Y-1306830D02*
D03*
Y-1410970D02*
D03*
D48*
X744300Y419100D02*
D03*
X659300D02*
D03*
D49*
X-114300Y799200D02*
D03*
Y711200D02*
D03*
X190500Y742500D02*
D03*
Y654500D02*
D03*
D50*
X736600Y1037000D02*
D03*
Y1122000D02*
D03*
X317500Y663620D02*
D03*
Y748620D02*
D03*
X38100Y668700D02*
D03*
Y753700D02*
D03*
X736600Y685800D02*
D03*
Y770800D02*
D03*
D51*
X596900Y763800D02*
D03*
Y685800D02*
D03*
X-254000Y723900D02*
D03*
Y801900D02*
D03*
X-838200Y-584200D02*
D03*
Y-506200D02*
D03*
D52*
X-636900Y381000D02*
D03*
X-556900D02*
D03*
X-738500Y-254000D02*
D03*
X-658500D02*
D03*
X125100Y-736600D02*
D03*
X205100D02*
D03*
X569600Y-203200D02*
D03*
X649600D02*
D03*
X-556900Y228600D02*
D03*
X-636900D02*
D03*
X-556900Y-76200D02*
D03*
X-636900D02*
D03*
X-556900Y76200D02*
D03*
X-636900D02*
D03*
X660400Y-63500D02*
D03*
X580400D02*
D03*
D53*
X-703400Y-738000D02*
D03*
Y-508000D02*
D03*
X-533400D02*
D03*
Y-738000D02*
D03*
D54*
X660400Y25400D02*
D03*
X575400D02*
D03*
D55*
X635000Y927100D02*
D03*
X733000D02*
D03*
X647700Y546100D02*
D03*
X745700D02*
D03*
X988800Y419100D02*
D03*
X890800D02*
D03*
D56*
X6200Y-9944D02*
D03*
D57*
X-241300Y-184988D02*
D03*
Y-134976D02*
D03*
Y-84963D02*
D03*
Y-34950D02*
D03*
Y15062D02*
D03*
Y65075D02*
D03*
Y115087D02*
D03*
Y165100D02*
D03*
X253700D02*
D03*
Y115087D02*
D03*
Y65075D02*
D03*
Y15062D02*
D03*
Y-34950D02*
D03*
Y-84963D02*
D03*
Y-134976D02*
D03*
Y-184988D02*
D03*
D58*
X-168800Y237556D02*
D03*
X-118800D02*
D03*
X-68800D02*
D03*
X-18800D02*
D03*
X31200D02*
D03*
X81200D02*
D03*
X131200D02*
D03*
X181200D02*
D03*
Y-257444D02*
D03*
X131200D02*
D03*
X81200D02*
D03*
X31200D02*
D03*
X-18800D02*
D03*
X-68800D02*
D03*
X-118800D02*
D03*
X-168800D02*
D03*
D59*
X-304800Y468100D02*
D03*
Y370100D02*
D03*
D60*
X215900Y-660156D02*
D03*
Y-584444D02*
D03*
D61*
X-266700Y-562600D02*
D03*
Y-482600D02*
D03*
X-419100Y582300D02*
D03*
Y662300D02*
D03*
X548640Y114940D02*
D03*
Y194940D02*
D03*
D62*
X1292200Y-1695400D02*
D03*
X1092200D02*
D03*
X1292200Y-1495400D02*
D03*
X1092200D02*
D03*
X1292200Y-1295400D02*
D03*
X1092200D02*
D03*
X1292200Y-1095400D02*
D03*
X1092200D02*
D03*
X1292200Y-895400D02*
D03*
X1092200D02*
D03*
X1292200Y-695400D02*
D03*
X1092200D02*
D03*
D63*
X-111910Y108166D02*
D03*
X-33170D02*
D03*
X45570D02*
D03*
X124310D02*
D03*
X-111910Y29426D02*
D03*
X-33170D02*
D03*
X45570D02*
D03*
X124310D02*
D03*
X-111910Y-49314D02*
D03*
X-33170D02*
D03*
X45570D02*
D03*
X124310D02*
D03*
X-111910Y-128054D02*
D03*
X-33170D02*
D03*
X45570D02*
D03*
X124310D02*
D03*
%TF.MD5,a73fb2dff4a295116bb2a42fefd9ba1d*%
M02*
