%TF.GenerationSoftware,Altium Limited,Altium Designer,24.10.1 (45)*%
G04 Layer_Color=8421504*
%FSLAX45Y45*%
%MOMM*%
%TF.SameCoordinates,CD6FE65F-67A0-4342-96EE-D0A67F31CBAF*%
%TF.FilePolarity,Positive*%
%TF.FileFunction,Paste,Top*%
%TF.Part,Single*%
G01*
G75*
%TA.AperFunction,SMDPad,CuDef*%
%ADD10C,1.50000*%
%ADD11C,2.05000*%
%ADD12R,0.35000X0.65000*%
%ADD13R,0.56000X0.52000*%
G04:AMPARAMS|DCode=14|XSize=0.93mm|YSize=0.93mm|CornerRadius=0.2325mm|HoleSize=0mm|Usage=FLASHONLY|Rotation=0.000|XOffset=0mm|YOffset=0mm|HoleType=Round|Shape=RoundedRectangle|*
%AMROUNDEDRECTD14*
21,1,0.93000,0.46500,0,0,0.0*
21,1,0.46500,0.93000,0,0,0.0*
1,1,0.46500,0.23250,-0.23250*
1,1,0.46500,-0.23250,-0.23250*
1,1,0.46500,-0.23250,0.23250*
1,1,0.46500,0.23250,0.23250*
%
%ADD14ROUNDEDRECTD14*%
%ADD15R,0.50800X0.97790*%
%ADD16R,0.55880X0.71120*%
%ADD17R,0.60000X0.55000*%
%ADD18R,0.62000X0.66000*%
%ADD19R,0.65000X0.35000*%
%ADD20R,0.52000X0.56000*%
%ADD21R,0.40000X0.50000*%
G04:AMPARAMS|DCode=22|XSize=1.11mm|YSize=1.21mm|CornerRadius=0.13875mm|HoleSize=0mm|Usage=FLASHONLY|Rotation=0.000|XOffset=0mm|YOffset=0mm|HoleType=Round|Shape=RoundedRectangle|*
%AMROUNDEDRECTD22*
21,1,1.11000,0.93250,0,0,0.0*
21,1,0.83250,1.21000,0,0,0.0*
1,1,0.27750,0.41625,-0.46625*
1,1,0.27750,-0.41625,-0.46625*
1,1,0.27750,-0.41625,0.46625*
1,1,0.27750,0.41625,0.46625*
%
%ADD22ROUNDEDRECTD22*%
%ADD23R,0.65000X0.60000*%
%ADD24R,0.76000X0.72000*%
%ADD28R,0.72000X0.76000*%
%ADD29R,0.47247X0.51535*%
%ADD30R,0.50000X0.40000*%
%ADD64R,0.02540X0.02540*%
G36*
X71200Y1883200D02*
X-140030Y1883200D01*
X-140031D01*
X-151151Y1895864D01*
X-176039Y1918559D01*
X-204000Y1937340D01*
X-234423Y1951796D01*
X-266644Y1961613D01*
X-299959Y1966575D01*
X-333642D01*
X-366957Y1961613D01*
X-399178Y1951796D01*
X-429601Y1937340D01*
X-457562Y1918559D01*
X-482451Y1895864D01*
X-493570Y1883200D01*
X-704800D01*
Y2127200D01*
X71200D01*
Y1883200D01*
D02*
G37*
G36*
Y1351200D02*
X-704800D01*
Y1595200D01*
X-493570Y1595200D01*
X-482450Y1582536D01*
X-457561Y1559840D01*
X-429601Y1541059D01*
X-399178Y1526603D01*
X-366957Y1516786D01*
X-333642Y1511824D01*
X-299959D01*
X-266643Y1516786D01*
X-234422Y1526603D01*
X-204000Y1541059D01*
X-176039Y1559840D01*
X-151150Y1582536D01*
X-140030Y1595200D01*
X-140030Y1595200D01*
X71200D01*
Y1351200D01*
D02*
G37*
G36*
X171207Y118166D02*
X148452D01*
X134310Y132308D01*
Y155063D01*
X171207D01*
Y118166D01*
D02*
G37*
G36*
X114310Y132308D02*
X100168Y118166D01*
X69712D01*
X55570Y132308D01*
Y155063D01*
X114310D01*
Y132308D01*
D02*
G37*
G36*
X35570D02*
X21428Y118166D01*
X-9028D01*
X-23170Y132308D01*
Y155063D01*
X35570D01*
Y132308D01*
D02*
G37*
G36*
X-43170D02*
X-57312Y118166D01*
X-87768D01*
X-101910Y132308D01*
Y155063D01*
X-43170D01*
Y132308D01*
D02*
G37*
G36*
X-121910D02*
X-136052Y118166D01*
X-158807D01*
Y155063D01*
X-121910D01*
Y132308D01*
D02*
G37*
G36*
X171207Y39426D02*
X148452D01*
X134310Y53568D01*
Y84024D01*
X148452Y98166D01*
X171207D01*
Y39426D01*
D02*
G37*
G36*
X114310Y84024D02*
Y53568D01*
X100168Y39426D01*
X69712D01*
X55570Y53568D01*
Y84024D01*
X69712Y98166D01*
X100168D01*
X114310Y84024D01*
D02*
G37*
G36*
X35570D02*
Y53568D01*
X21428Y39426D01*
X-9028D01*
X-23170Y53568D01*
Y84024D01*
X-9028Y98166D01*
X21428D01*
X35570Y84024D01*
D02*
G37*
G36*
X-43170D02*
Y53568D01*
X-57312Y39426D01*
X-87768D01*
X-101910Y53568D01*
Y84024D01*
X-87768Y98166D01*
X-57312D01*
X-43170Y84024D01*
D02*
G37*
G36*
X-121910D02*
Y53568D01*
X-136052Y39426D01*
X-158807D01*
Y98166D01*
X-136052D01*
X-121910Y84024D01*
D02*
G37*
G36*
X171207Y-39314D02*
X148452D01*
X134310Y-25172D01*
Y5284D01*
X148452Y19426D01*
X171207D01*
Y-39314D01*
D02*
G37*
G36*
X114310Y5284D02*
Y-25172D01*
X100168Y-39314D01*
X69712D01*
X55570Y-25172D01*
Y5284D01*
X69712Y19426D01*
X100168D01*
X114310Y5284D01*
D02*
G37*
G36*
X35570D02*
Y-25172D01*
X21428Y-39314D01*
X-9028D01*
X-23170Y-25172D01*
Y5284D01*
X-9028Y19426D01*
X21428D01*
X35570Y5284D01*
D02*
G37*
G36*
X-43170D02*
Y-25172D01*
X-57312Y-39314D01*
X-87768D01*
X-101910Y-25172D01*
Y5284D01*
X-87768Y19426D01*
X-57312D01*
X-43170Y5284D01*
D02*
G37*
G36*
X-121910D02*
Y-25172D01*
X-136052Y-39314D01*
X-158807D01*
Y19426D01*
X-136052D01*
X-121910Y5284D01*
D02*
G37*
G36*
X171207Y-118054D02*
X148452D01*
X134310Y-103912D01*
Y-73456D01*
X148452Y-59314D01*
X171207D01*
Y-118054D01*
D02*
G37*
G36*
X114310Y-73456D02*
Y-103912D01*
X100168Y-118054D01*
X69712D01*
X55570Y-103912D01*
Y-73456D01*
X69712Y-59314D01*
X100168D01*
X114310Y-73456D01*
D02*
G37*
G36*
X35570D02*
Y-103912D01*
X21428Y-118054D01*
X-9028D01*
X-23170Y-103912D01*
Y-73456D01*
X-9028Y-59314D01*
X21428D01*
X35570Y-73456D01*
D02*
G37*
G36*
X-43170D02*
Y-103912D01*
X-57312Y-118054D01*
X-87768D01*
X-101910Y-103912D01*
Y-73456D01*
X-87768Y-59314D01*
X-57312D01*
X-43170Y-73456D01*
D02*
G37*
G36*
X-121910D02*
Y-103912D01*
X-136052Y-118054D01*
X-158807D01*
Y-59314D01*
X-136052D01*
X-121910Y-73456D01*
D02*
G37*
G36*
X171207Y-174951D02*
X134310D01*
Y-152196D01*
X148452Y-138054D01*
X171207D01*
Y-174951D01*
D02*
G37*
G36*
X114310Y-152196D02*
Y-174951D01*
X55570D01*
Y-152196D01*
X69712Y-138054D01*
X100168D01*
X114310Y-152196D01*
D02*
G37*
G36*
X35570D02*
Y-174951D01*
X-23170D01*
Y-152196D01*
X-9028Y-138054D01*
X21428D01*
X35570Y-152196D01*
D02*
G37*
G36*
X-43170D02*
Y-174951D01*
X-101910D01*
Y-152196D01*
X-87768Y-138054D01*
X-57312D01*
X-43170Y-152196D01*
D02*
G37*
G36*
X-121910D02*
Y-174951D01*
X-158807D01*
Y-138054D01*
X-136052D01*
X-121910Y-152196D01*
D02*
G37*
D10*
X-50800Y2005200D02*
D03*
Y1473200D02*
D03*
D11*
X-316800Y1739200D02*
D03*
D12*
X410800Y342900D02*
D03*
X325800D02*
D03*
X393700Y939800D02*
D03*
X478700D02*
D03*
X232500Y1739900D02*
D03*
X317500D02*
D03*
X139700Y469900D02*
D03*
X54700D02*
D03*
D13*
X407300Y482600D02*
D03*
X329300D02*
D03*
X862700Y1117600D02*
D03*
X940700D02*
D03*
X978800Y546100D02*
D03*
X900800D02*
D03*
X-532500Y-889000D02*
D03*
X-610500D02*
D03*
D14*
X292100Y-850900D02*
D03*
X142100D02*
D03*
D15*
X152900Y-1308100D02*
D03*
X342900D02*
D03*
Y-1581150D02*
D03*
X247900D02*
D03*
X152900D02*
D03*
D16*
X0Y-1306830D02*
D03*
Y-1410970D02*
D03*
D17*
X744300Y419100D02*
D03*
X659300D02*
D03*
D18*
X-114300Y799200D02*
D03*
Y711200D02*
D03*
X190500Y742500D02*
D03*
Y654500D02*
D03*
D19*
X736600Y1037000D02*
D03*
Y1122000D02*
D03*
X317500Y663620D02*
D03*
Y748620D02*
D03*
X38100Y668700D02*
D03*
Y753700D02*
D03*
X736600Y685800D02*
D03*
Y770800D02*
D03*
D20*
X596900Y763800D02*
D03*
Y685800D02*
D03*
X-254000Y723900D02*
D03*
Y801900D02*
D03*
X-838200Y-584200D02*
D03*
Y-506200D02*
D03*
D21*
X-636900Y381000D02*
D03*
X-556900D02*
D03*
X-738500Y-254000D02*
D03*
X-658500D02*
D03*
X125100Y-736600D02*
D03*
X205100D02*
D03*
X569600Y-203200D02*
D03*
X649600D02*
D03*
X-556900Y228600D02*
D03*
X-636900D02*
D03*
X-556900Y-76200D02*
D03*
X-636900D02*
D03*
X-556900Y76200D02*
D03*
X-636900D02*
D03*
X660400Y-63500D02*
D03*
X580400D02*
D03*
D22*
X-703400Y-738000D02*
D03*
Y-508000D02*
D03*
X-533400D02*
D03*
Y-738000D02*
D03*
D23*
X660400Y25400D02*
D03*
X575400D02*
D03*
D24*
X635000Y927100D02*
D03*
X733000D02*
D03*
X647700Y546100D02*
D03*
X745700D02*
D03*
X988800Y419100D02*
D03*
X890800D02*
D03*
D28*
X-304800Y468100D02*
D03*
Y370100D02*
D03*
D29*
X215900Y-660156D02*
D03*
Y-584444D02*
D03*
D30*
X-266700Y-562600D02*
D03*
Y-482600D02*
D03*
X-419100Y582300D02*
D03*
Y662300D02*
D03*
X548640Y114940D02*
D03*
Y194940D02*
D03*
D64*
X6200Y-9944D02*
D03*
%TF.MD5,247838d6613230732338807ccf3883c6*%
M02*
