G04*
G04 #@! TF.GenerationSoftware,Altium Limited,Altium Designer,24.10.1 (45)*
G04*
G04 Layer_Color=65535*
%FSLAX44Y44*%
%MOMM*%
G71*
G04*
G04 #@! TF.SameCoordinates,45D0177C-C306-47A8-9F7C-5F692266BDBD*
G04*
G04*
G04 #@! TF.FilePolarity,Positive*
G04*
G01*
G75*
%ADD10C,0.5080*%
%ADD11C,0.2000*%
%ADD12C,0.1524*%
%ADD13C,0.1270*%
%ADD14C,0.2540*%
G36*
X-30920Y-6591D02*
Y-10401D01*
X-33460D01*
Y-6591D01*
X-30920D01*
D02*
G37*
G36*
X32160Y-11593D02*
Y-15403D01*
X34700D01*
Y-11593D01*
X32160D01*
D02*
G37*
G36*
X1215Y30546D02*
Y33086D01*
X5025D01*
Y30546D01*
X1215D01*
D02*
G37*
D10*
X113030Y-38641D02*
G03*
X113030Y-38641I-3810J0D01*
G01*
D11*
X-41340Y-76800D02*
G03*
X-41340Y-76800I-1000J0D01*
G01*
X5320Y163270D02*
Y184570D01*
X-68680Y163270D02*
Y184570D01*
X39580Y41290D02*
X42330D01*
X31330D02*
X34080D01*
X34940Y27290D02*
X42330D01*
X34080Y41290D02*
X39580D01*
X31750Y54610D02*
X41910D01*
X66660Y102450D02*
Y113450D01*
X80660Y102450D02*
Y113450D01*
X38120Y100980D02*
X49120D01*
X38120Y86980D02*
X49120D01*
X-64690Y44600D02*
X-54690D01*
X-64690Y31600D02*
X-54690D01*
X-74850Y-18900D02*
X-64850D01*
X-74850Y-31900D02*
X-64850D01*
X24750Y65112D02*
Y76112D01*
X38750Y65112D02*
Y76112D01*
X-3190Y65620D02*
Y76620D01*
X10810Y65620D02*
Y76620D01*
X22000Y180990D02*
X33000D01*
X22000Y166990D02*
X33000D01*
X55960Y-13820D02*
X65960D01*
X55960Y-26820D02*
X65960D01*
X-64690Y16360D02*
X-54690D01*
X-64690Y29360D02*
X-54690D01*
X28340Y-68592D02*
Y-55868D01*
X14840Y-68592D02*
Y-55868D01*
X4220Y39990D02*
X15220D01*
X4220Y53990D02*
X15220D01*
X-33170Y-57260D02*
Y-47260D01*
X-20170Y-57260D02*
Y-47260D01*
X-64690Y-14120D02*
X-54690D01*
X-64690Y-1120D02*
X-54690D01*
X-64690Y1120D02*
X-54690D01*
X-64690Y14120D02*
X-54690D01*
X-48410Y57230D02*
Y67230D01*
X-35410Y57230D02*
Y67230D01*
X66660Y67330D02*
Y78330D01*
X80660Y67330D02*
Y78330D01*
X48364Y10494D02*
Y20494D01*
X61364Y10494D02*
Y20494D01*
D12*
X8280Y-154495D02*
Y-134430D01*
X21157D02*
X28423D01*
X41300Y-154495D02*
Y-134430D01*
X86458Y-44991D02*
X151990D01*
Y-194089D02*
Y-44991D01*
X86458Y-194089D02*
X151990D01*
X86458D02*
Y-44991D01*
X-28940Y28566D02*
X-21560D01*
X30180Y21190D02*
Y28566D01*
X22800Y-30554D02*
X30180D01*
X-28940D02*
X-21560D01*
X-28940Y21190D02*
Y28566D01*
X22800D02*
X30180D01*
Y-30554D02*
Y-23179D01*
X-28940Y-30554D02*
Y-23179D01*
D13*
X-74340Y-64615D02*
Y-59985D01*
X-49340Y-64615D02*
Y-59985D01*
X162982Y-168700D02*
X161924Y-167642D01*
X159808D01*
X158750Y-168700D01*
Y-172932D01*
X159808Y-173990D01*
X161924D01*
X162982Y-172932D01*
Y-170816D01*
X160866D01*
X165098Y-173990D02*
Y-167642D01*
X169330Y-173990D01*
Y-167642D01*
X171446D02*
Y-173990D01*
X174620D01*
X175678Y-172932D01*
Y-168700D01*
X174620Y-167642D01*
X171446D01*
X162982Y-148380D02*
X161924Y-147322D01*
X159808D01*
X158750Y-148380D01*
Y-152612D01*
X159808Y-153670D01*
X161924D01*
X162982Y-152612D01*
X169330Y-148380D02*
X168272Y-147322D01*
X166156D01*
X165098Y-148380D01*
Y-149438D01*
X166156Y-150496D01*
X168272D01*
X169330Y-151554D01*
Y-152612D01*
X168272Y-153670D01*
X166156D01*
X165098Y-152612D01*
X171446Y-153670D02*
Y-147322D01*
X175678Y-153670D01*
Y-147322D01*
X159596Y-129118D02*
X158749Y-128272D01*
X157056D01*
X156210Y-129118D01*
Y-132504D01*
X157056Y-133350D01*
X158749D01*
X159596Y-132504D01*
Y-130811D01*
X157903D01*
X161288Y-133350D02*
Y-128272D01*
X163827D01*
X164674Y-129118D01*
Y-130811D01*
X163827Y-131657D01*
X161288D01*
X166367Y-128272D02*
X168060D01*
X167213D01*
Y-133350D01*
X166367D01*
X168060D01*
X173138Y-128272D02*
X171445D01*
X170599Y-129118D01*
Y-132504D01*
X171445Y-133350D01*
X173138D01*
X173984Y-132504D01*
Y-129118D01*
X173138Y-128272D01*
X175677Y-129118D02*
X176523Y-128272D01*
X178216D01*
X179063Y-129118D01*
Y-132504D01*
X178216Y-133350D01*
X176523D01*
X175677Y-132504D01*
Y-129118D01*
X158750Y-113030D02*
Y-106682D01*
X160866Y-108798D01*
X162982Y-106682D01*
Y-113030D01*
X165098Y-106682D02*
X167214D01*
X166156D01*
Y-113030D01*
X165098D01*
X167214D01*
X174620Y-107740D02*
X173562Y-106682D01*
X171446D01*
X170388Y-107740D01*
Y-108798D01*
X171446Y-109856D01*
X173562D01*
X174620Y-110914D01*
Y-111972D01*
X173562Y-113030D01*
X171446D01*
X170388Y-111972D01*
X179910Y-106682D02*
X177794D01*
X176736Y-107740D01*
Y-111972D01*
X177794Y-113030D01*
X179910D01*
X180968Y-111972D01*
Y-107740D01*
X179910Y-106682D01*
X160442Y-89960D02*
X159384Y-88902D01*
X157268D01*
X156210Y-89960D01*
Y-91018D01*
X157268Y-92076D01*
X159384D01*
X160442Y-93134D01*
Y-94192D01*
X159384Y-95250D01*
X157268D01*
X156210Y-94192D01*
X166790Y-89960D02*
X165732Y-88902D01*
X163616D01*
X162558Y-89960D01*
Y-94192D01*
X163616Y-95250D01*
X165732D01*
X166790Y-94192D01*
X168906Y-88902D02*
Y-95250D01*
X173138D01*
X175254Y-88902D02*
Y-95250D01*
Y-93134D01*
X179486Y-88902D01*
X176312Y-92076D01*
X179486Y-95250D01*
X158750Y-74930D02*
Y-68582D01*
X160866Y-70698D01*
X162982Y-68582D01*
Y-74930D01*
X168272Y-68582D02*
X166156D01*
X165098Y-69640D01*
Y-73872D01*
X166156Y-74930D01*
X168272D01*
X169330Y-73872D01*
Y-69640D01*
X168272Y-68582D01*
X175678Y-69640D02*
X174620Y-68582D01*
X172504D01*
X171446Y-69640D01*
Y-70698D01*
X172504Y-71756D01*
X174620D01*
X175678Y-72814D01*
Y-73872D01*
X174620Y-74930D01*
X172504D01*
X171446Y-73872D01*
X177794Y-68582D02*
X179910D01*
X178852D01*
Y-74930D01*
X177794D01*
X179910D01*
X57150Y-168700D02*
X58208Y-167642D01*
X60324D01*
X61382Y-168700D01*
Y-169758D01*
X60324Y-170816D01*
X59266D01*
X60324D01*
X61382Y-171874D01*
Y-172932D01*
X60324Y-173990D01*
X58208D01*
X57150Y-172932D01*
X63498Y-167642D02*
Y-171874D01*
X65614Y-173990D01*
X67730Y-171874D01*
Y-167642D01*
X69846Y-168700D02*
X70904Y-167642D01*
X73020D01*
X74078Y-168700D01*
Y-169758D01*
X73020Y-170816D01*
X71962D01*
X73020D01*
X74078Y-171874D01*
Y-172932D01*
X73020Y-173990D01*
X70904D01*
X69846Y-172932D01*
X61382Y-148380D02*
X60324Y-147322D01*
X58208D01*
X57150Y-148380D01*
Y-152612D01*
X58208Y-153670D01*
X60324D01*
X61382Y-152612D01*
Y-150496D01*
X59266D01*
X63498Y-153670D02*
Y-147322D01*
X67730Y-153670D01*
Y-147322D01*
X69846D02*
Y-153670D01*
X73020D01*
X74078Y-152612D01*
Y-148380D01*
X73020Y-147322D01*
X69846D01*
X52070Y-133350D02*
Y-127002D01*
X55244D01*
X56302Y-128060D01*
Y-130176D01*
X55244Y-131234D01*
X52070D01*
X54186D02*
X56302Y-133350D01*
X61592D02*
X59476D01*
X58418Y-132292D01*
Y-130176D01*
X59476Y-129118D01*
X61592D01*
X62650Y-130176D01*
Y-131234D01*
X58418D01*
X64766Y-133350D02*
X67940D01*
X68998Y-132292D01*
X67940Y-131234D01*
X65824D01*
X64766Y-130176D01*
X65824Y-129118D01*
X68998D01*
X74288Y-133350D02*
X72172D01*
X71114Y-132292D01*
Y-130176D01*
X72172Y-129118D01*
X74288D01*
X75346Y-130176D01*
Y-131234D01*
X71114D01*
X78520Y-128060D02*
Y-129118D01*
X77462D01*
X79578D01*
X78520D01*
Y-132292D01*
X79578Y-133350D01*
X56302Y-107740D02*
X55244Y-106682D01*
X53128D01*
X52070Y-107740D01*
Y-111972D01*
X53128Y-113030D01*
X55244D01*
X56302Y-111972D01*
Y-109856D01*
X54186D01*
X58418Y-113030D02*
Y-106682D01*
X61592D01*
X62650Y-107740D01*
Y-109856D01*
X61592Y-110914D01*
X58418D01*
X64766Y-106682D02*
X66882D01*
X65824D01*
Y-113030D01*
X64766D01*
X66882D01*
X73230Y-106682D02*
X71114D01*
X70056Y-107740D01*
Y-111972D01*
X71114Y-113030D01*
X73230D01*
X74288Y-111972D01*
Y-107740D01*
X73230Y-106682D01*
X80636Y-113030D02*
X76404D01*
X80636Y-108798D01*
Y-107740D01*
X79578Y-106682D01*
X77462D01*
X76404Y-107740D01*
X56302Y-87420D02*
X55244Y-86362D01*
X53128D01*
X52070Y-87420D01*
Y-91652D01*
X53128Y-92710D01*
X55244D01*
X56302Y-91652D01*
Y-89536D01*
X54186D01*
X58418Y-92710D02*
Y-86362D01*
X61592D01*
X62650Y-87420D01*
Y-89536D01*
X61592Y-90594D01*
X58418D01*
X64766Y-86362D02*
X66882D01*
X65824D01*
Y-92710D01*
X64766D01*
X66882D01*
X73230Y-86362D02*
X71114D01*
X70056Y-87420D01*
Y-91652D01*
X71114Y-92710D01*
X73230D01*
X74288Y-91652D01*
Y-87420D01*
X73230Y-86362D01*
X76404Y-87420D02*
X77462Y-86362D01*
X79578D01*
X80636Y-87420D01*
Y-88478D01*
X79578Y-89536D01*
X78520D01*
X79578D01*
X80636Y-90594D01*
Y-91652D01*
X79578Y-92710D01*
X77462D01*
X76404Y-91652D01*
X57150Y-63926D02*
Y-68158D01*
X59266Y-70274D01*
X61382Y-68158D01*
Y-63926D01*
X63498Y-70274D02*
Y-63926D01*
X66672D01*
X67730Y-64984D01*
Y-67100D01*
X66672Y-68158D01*
X63498D01*
X65614D02*
X67730Y-70274D01*
X73020D02*
X70904D01*
X69846Y-69216D01*
Y-67100D01*
X70904Y-66042D01*
X73020D01*
X74078Y-67100D01*
Y-68158D01*
X69846D01*
X78310Y-72390D02*
X79368D01*
X80426Y-71332D01*
Y-66042D01*
X77252D01*
X76194Y-67100D01*
Y-69216D01*
X77252Y-70274D01*
X80426D01*
X-2452Y-170180D02*
X6012Y-161716D01*
Y-170180D02*
X-2452Y-161716D01*
X1780Y-170180D02*
Y-161716D01*
X6012Y-165948D02*
X-2452D01*
X-43600Y-39370D02*
X-35136Y-30906D01*
Y-39370D02*
X-43600Y-30906D01*
X-39368Y-39370D02*
Y-30906D01*
X-35136Y-35138D02*
X-43600D01*
X19052Y-173991D02*
Y-180339D01*
X20322Y-181609D01*
X22861D01*
X24130Y-180339D01*
Y-173991D01*
X26670Y-175261D02*
X27939Y-173991D01*
X30478D01*
X31748Y-175261D01*
Y-176530D01*
X30478Y-177800D01*
X29209D01*
X30478D01*
X31748Y-179070D01*
Y-180339D01*
X30478Y-181609D01*
X27939D01*
X26670Y-180339D01*
X111762Y39371D02*
Y46989D01*
X115571D01*
X116840Y45719D01*
Y43180D01*
X115571Y41910D01*
X111762D01*
X114301D02*
X116840Y39371D01*
X124458D02*
X119380D01*
X124458Y44450D01*
Y45719D01*
X123188Y46989D01*
X120649D01*
X119380Y45719D01*
X-85089Y-35561D02*
Y-36831D01*
X-82550Y-39370D01*
X-80011Y-36831D01*
Y-35561D01*
X-82550Y-39370D02*
Y-43179D01*
X35562Y-30481D02*
Y-36829D01*
X36832Y-38099D01*
X39371D01*
X40640Y-36829D01*
Y-30481D01*
X48258Y-38099D02*
X43180D01*
X48258Y-33020D01*
Y-31751D01*
X46988Y-30481D01*
X44449D01*
X43180Y-31751D01*
X77472Y1271D02*
Y8889D01*
X81280D01*
X82550Y7619D01*
Y5080D01*
X81280Y3810D01*
X77472D01*
X80011D02*
X82550Y1271D01*
X85089D02*
X87628D01*
X86359D01*
Y8889D01*
X85089Y7619D01*
X46992Y38099D02*
Y30481D01*
X52070D01*
X54610Y31751D02*
X55879Y30481D01*
X58418D01*
X59688Y31751D01*
Y36829D01*
X58418Y38099D01*
X55879D01*
X54610Y36829D01*
Y35560D01*
X55879Y34290D01*
X59688D01*
X85092Y76199D02*
Y68581D01*
X90170D01*
X92710Y74929D02*
X93979Y76199D01*
X96518D01*
X97788Y74929D01*
Y73660D01*
X96518Y72390D01*
X97788Y71120D01*
Y69851D01*
X96518Y68581D01*
X93979D01*
X92710Y69851D01*
Y71120D01*
X93979Y72390D01*
X92710Y73660D01*
Y74929D01*
X93979Y72390D02*
X96518D01*
X-8891Y-130812D02*
X-16509D01*
Y-135890D01*
X-8891Y-138430D02*
Y-143508D01*
X-10161D01*
X-15239Y-138430D01*
X-16509D01*
X20828Y195832D02*
Y188214D01*
X25906D01*
X33524Y195832D02*
X30985Y194562D01*
X28445Y192023D01*
Y189484D01*
X29715Y188214D01*
X32254D01*
X33524Y189484D01*
Y190753D01*
X32254Y192023D01*
X28445D01*
X53342Y126999D02*
Y119381D01*
X58420D01*
X66038Y126999D02*
X60960D01*
Y123190D01*
X63499Y124460D01*
X64768D01*
X66038Y123190D01*
Y120651D01*
X64768Y119381D01*
X62229D01*
X60960Y120651D01*
X38102Y114299D02*
Y106681D01*
X43180D01*
X49528D02*
Y114299D01*
X45720Y110490D01*
X50798D01*
X6349Y99058D02*
X-1269D01*
Y93980D01*
X5079Y91440D02*
X6349Y90171D01*
Y87632D01*
X5079Y86362D01*
X3810D01*
X2540Y87632D01*
Y88901D01*
Y87632D01*
X1270Y86362D01*
X1D01*
X-1269Y87632D01*
Y90171D01*
X1Y91440D01*
X33273Y99820D02*
X25655D01*
Y94742D01*
Y87124D02*
Y92202D01*
X30734Y87124D01*
X32003D01*
X33273Y88394D01*
Y90933D01*
X32003Y92202D01*
X-11428Y49529D02*
Y41911D01*
X-6350D01*
X-3811D02*
X-1272D01*
X-2541D01*
Y49529D01*
X-3811Y48259D01*
X-85090Y176529D02*
X-87629D01*
X-86359D01*
Y170181D01*
X-87629Y168911D01*
X-88898D01*
X-90168Y170181D01*
X-78742Y168911D02*
Y176529D01*
X-82550Y172720D01*
X-77472D01*
X140972Y45719D02*
X139702Y46989D01*
X137163D01*
X135893Y45719D01*
Y40641D01*
X137163Y39371D01*
X139702D01*
X140972Y40641D01*
X148589Y39371D02*
X143511D01*
X148589Y44450D01*
Y45719D01*
X147320Y46989D01*
X144780D01*
X143511Y45719D01*
X151128Y46989D02*
X156207D01*
Y45719D01*
X151128Y40641D01*
Y39371D01*
X140972Y57149D02*
X139702Y58419D01*
X137163D01*
X135893Y57149D01*
Y52071D01*
X137163Y50801D01*
X139702D01*
X140972Y52071D01*
X148589Y50801D02*
X143511D01*
X148589Y55880D01*
Y57149D01*
X147320Y58419D01*
X144780D01*
X143511Y57149D01*
X156207Y58419D02*
X153668Y57149D01*
X151128Y54610D01*
Y52071D01*
X152398Y50801D01*
X154937D01*
X156207Y52071D01*
Y53340D01*
X154937Y54610D01*
X151128D01*
X114302Y57149D02*
X113032Y58419D01*
X110493D01*
X109223Y57149D01*
Y52071D01*
X110493Y50801D01*
X113032D01*
X114302Y52071D01*
X121919Y50801D02*
X116841D01*
X121919Y55880D01*
Y57149D01*
X120650Y58419D01*
X118110D01*
X116841Y57149D01*
X129537Y58419D02*
X124458D01*
Y54610D01*
X126998Y55880D01*
X128267D01*
X129537Y54610D01*
Y52071D01*
X128267Y50801D01*
X125728D01*
X124458Y52071D01*
X107952Y114299D02*
X106682Y115569D01*
X104143D01*
X102873Y114299D01*
Y109221D01*
X104143Y107951D01*
X106682D01*
X107952Y109221D01*
X115569Y107951D02*
X110491D01*
X115569Y113030D01*
Y114299D01*
X114300Y115569D01*
X111760D01*
X110491Y114299D01*
X121917Y107951D02*
Y115569D01*
X118108Y111760D01*
X123187D01*
X20809Y44047D02*
X19751Y42990D01*
Y40873D01*
X20809Y39815D01*
X25041D01*
X26099Y40873D01*
Y42990D01*
X25041Y44047D01*
X26099Y50395D02*
Y46164D01*
X21867Y50395D01*
X20809D01*
X19751Y49338D01*
Y47221D01*
X20809Y46164D01*
Y52511D02*
X19751Y53569D01*
Y55685D01*
X20809Y56743D01*
X21867D01*
X22925Y55685D01*
Y54627D01*
Y55685D01*
X23983Y56743D01*
X25041D01*
X26099Y55685D01*
Y53569D01*
X25041Y52511D01*
X48261Y67312D02*
X46991Y66042D01*
Y63503D01*
X48261Y62233D01*
X53339D01*
X54609Y63503D01*
Y66042D01*
X53339Y67312D01*
X54609Y74929D02*
Y69851D01*
X49530Y74929D01*
X48261D01*
X46991Y73660D01*
Y71120D01*
X48261Y69851D01*
X54609Y82547D02*
Y77468D01*
X49530Y82547D01*
X48261D01*
X46991Y81277D01*
Y78738D01*
X48261Y77468D01*
X90171Y95249D02*
X88902Y96519D01*
X86362D01*
X85093Y95249D01*
Y90171D01*
X86362Y88901D01*
X88902D01*
X90171Y90171D01*
X97789Y88901D02*
X92710D01*
X97789Y93980D01*
Y95249D01*
X96519Y96519D01*
X93980D01*
X92710Y95249D01*
X100328Y88901D02*
X102867D01*
X101597D01*
Y96519D01*
X100328Y95249D01*
X-8891Y104138D02*
X-7621Y105408D01*
Y107947D01*
X-8891Y109217D01*
X-13969D01*
X-15239Y107947D01*
Y105408D01*
X-13969Y104138D01*
X-15239Y96521D02*
Y101599D01*
X-10160Y96521D01*
X-8891D01*
X-7621Y97790D01*
Y100330D01*
X-8891Y101599D01*
Y93982D02*
X-7621Y92712D01*
Y90173D01*
X-8891Y88903D01*
X-13969D01*
X-15239Y90173D01*
Y92712D01*
X-13969Y93982D01*
X-8891D01*
X19049Y98424D02*
X20319Y99693D01*
Y102232D01*
X19049Y103502D01*
X13971D01*
X12701Y102232D01*
Y99693D01*
X13971Y98424D01*
X12701Y95884D02*
Y93345D01*
Y94615D01*
X20319D01*
X19049Y95884D01*
X13971Y89536D02*
X12701Y88267D01*
Y85728D01*
X13971Y84458D01*
X19049D01*
X20319Y85728D01*
Y88267D01*
X19049Y89536D01*
X17780D01*
X16510Y88267D01*
Y84458D01*
X-90169Y-85724D02*
X-91439Y-86993D01*
Y-89532D01*
X-90169Y-90802D01*
X-85091D01*
X-83821Y-89532D01*
Y-86993D01*
X-85091Y-85724D01*
X-83821Y-83184D02*
Y-80645D01*
Y-81915D01*
X-91439D01*
X-90169Y-83184D01*
Y-76836D02*
X-91439Y-75567D01*
Y-73028D01*
X-90169Y-71758D01*
X-88900D01*
X-87630Y-73028D01*
X-86360Y-71758D01*
X-85091D01*
X-83821Y-73028D01*
Y-75567D01*
X-85091Y-76836D01*
X-86360D01*
X-87630Y-75567D01*
X-88900Y-76836D01*
X-90169D01*
X-87630Y-75567D02*
Y-73028D01*
X-48894Y-102871D02*
X-50163Y-101601D01*
X-52702D01*
X-53972Y-102871D01*
Y-107949D01*
X-52702Y-109219D01*
X-50163D01*
X-48894Y-107949D01*
X-46354Y-109219D02*
X-43815D01*
X-45085D01*
Y-101601D01*
X-46354Y-102871D01*
X-40006Y-101601D02*
X-34928D01*
Y-102871D01*
X-40006Y-107949D01*
Y-109219D01*
X3811Y-61594D02*
X2541Y-62863D01*
Y-65402D01*
X3811Y-66672D01*
X8889D01*
X10159Y-65402D01*
Y-62863D01*
X8889Y-61594D01*
X10159Y-59054D02*
Y-56515D01*
Y-57785D01*
X2541D01*
X3811Y-59054D01*
X2541Y-47628D02*
X3811Y-50167D01*
X6350Y-52706D01*
X8889D01*
X10159Y-51437D01*
Y-48898D01*
X8889Y-47628D01*
X7620D01*
X6350Y-48898D01*
Y-52706D01*
X-22861Y103504D02*
X-21591Y104773D01*
Y107312D01*
X-22861Y108582D01*
X-27939D01*
X-29209Y107312D01*
Y104773D01*
X-27939Y103504D01*
X-29209Y100964D02*
Y98425D01*
Y99695D01*
X-21591D01*
X-22861Y100964D01*
X-21591Y89538D02*
Y94616D01*
X-25400D01*
X-24130Y92077D01*
Y90808D01*
X-25400Y89538D01*
X-27939D01*
X-29209Y90808D01*
Y93347D01*
X-27939Y94616D01*
X-93344Y-22861D02*
X-94613Y-21591D01*
X-97152D01*
X-98422Y-22861D01*
Y-27939D01*
X-97152Y-29209D01*
X-94613D01*
X-93344Y-27939D01*
X-90804Y-29209D02*
X-88265D01*
X-89535D01*
Y-21591D01*
X-90804Y-22861D01*
X-80648Y-29209D02*
Y-21591D01*
X-84456Y-25400D01*
X-79378D01*
X-92074Y25399D02*
X-93343Y26669D01*
X-95882D01*
X-97152Y25399D01*
Y20321D01*
X-95882Y19051D01*
X-93343D01*
X-92074Y20321D01*
X-89534Y19051D02*
X-86995D01*
X-88265D01*
Y26669D01*
X-89534Y25399D01*
X-83186D02*
X-81917Y26669D01*
X-79378D01*
X-78108Y25399D01*
Y24130D01*
X-79378Y22860D01*
X-80647D01*
X-79378D01*
X-78108Y21590D01*
Y20321D01*
X-79378Y19051D01*
X-81917D01*
X-83186Y20321D01*
X-40641Y33833D02*
X-39371Y35103D01*
Y37642D01*
X-40641Y38912D01*
X-45719D01*
X-46989Y37642D01*
Y35103D01*
X-45719Y33833D01*
X-46989Y31294D02*
Y28755D01*
Y30025D01*
X-39371D01*
X-40641Y31294D01*
X-46989Y19868D02*
Y24946D01*
X-41910Y19868D01*
X-40641D01*
X-39371Y21138D01*
Y23677D01*
X-40641Y24946D01*
X-6984Y-83821D02*
X-8254Y-82551D01*
X-10793D01*
X-12062Y-83821D01*
Y-88899D01*
X-10793Y-90169D01*
X-8254D01*
X-6984Y-88899D01*
X-4445Y-90169D02*
X-1906D01*
X-3175D01*
Y-82551D01*
X-4445Y-83821D01*
X1903Y-90169D02*
X4442D01*
X3173D01*
Y-82551D01*
X1903Y-83821D01*
X79820Y-16511D02*
X78551Y-15241D01*
X76012D01*
X74742Y-16511D01*
Y-21589D01*
X76012Y-22859D01*
X78551D01*
X79820Y-21589D01*
X82360D02*
X83629Y-22859D01*
X86168D01*
X87438Y-21589D01*
Y-16511D01*
X86168Y-15241D01*
X83629D01*
X82360Y-16511D01*
Y-17780D01*
X83629Y-19050D01*
X87438D01*
X-1270Y-72391D02*
X-2539Y-71121D01*
X-5078D01*
X-6348Y-72391D01*
Y-77469D01*
X-5078Y-78739D01*
X-2539D01*
X-1270Y-77469D01*
X1270Y-72391D02*
X2539Y-71121D01*
X5078D01*
X6348Y-72391D01*
Y-73660D01*
X5078Y-74930D01*
X6348Y-76200D01*
Y-77469D01*
X5078Y-78739D01*
X2539D01*
X1270Y-77469D01*
Y-76200D01*
X2539Y-74930D01*
X1270Y-73660D01*
Y-72391D01*
X2539Y-74930D02*
X5078D01*
X-29209Y-81470D02*
X-30479Y-82739D01*
Y-85278D01*
X-29209Y-86548D01*
X-24131D01*
X-22861Y-85278D01*
Y-82739D01*
X-24131Y-81470D01*
X-30479Y-78930D02*
Y-73852D01*
X-29209D01*
X-24131Y-78930D01*
X-22861D01*
X81280Y-5081D02*
X80011Y-3811D01*
X77472D01*
X76202Y-5081D01*
Y-10159D01*
X77472Y-11429D01*
X80011D01*
X81280Y-10159D01*
X88898Y-3811D02*
X86359Y-5081D01*
X83820Y-7620D01*
Y-10159D01*
X85089Y-11429D01*
X87628D01*
X88898Y-10159D01*
Y-8890D01*
X87628Y-7620D01*
X83820D01*
X76200Y20319D02*
X74931Y21589D01*
X72392D01*
X71122Y20319D01*
Y15241D01*
X72392Y13971D01*
X74931D01*
X76200Y15241D01*
X83818Y21589D02*
X78740D01*
Y17780D01*
X81279Y19050D01*
X82548D01*
X83818Y17780D01*
Y15241D01*
X82548Y13971D01*
X80009D01*
X78740Y15241D01*
X-86360Y40639D02*
X-87629Y41909D01*
X-90168D01*
X-91438Y40639D01*
Y35561D01*
X-90168Y34291D01*
X-87629D01*
X-86360Y35561D01*
X-80012Y34291D02*
Y41909D01*
X-83820Y38100D01*
X-78742D01*
X-85090Y-5081D02*
X-86359Y-3811D01*
X-88898D01*
X-90168Y-5081D01*
Y-10159D01*
X-88898Y-11429D01*
X-86359D01*
X-85090Y-10159D01*
X-82550Y-5081D02*
X-81281Y-3811D01*
X-78742D01*
X-77472Y-5081D01*
Y-6350D01*
X-78742Y-7620D01*
X-80011D01*
X-78742D01*
X-77472Y-8890D01*
Y-10159D01*
X-78742Y-11429D01*
X-81281D01*
X-82550Y-10159D01*
X-40641Y84900D02*
X-39371Y86169D01*
Y88708D01*
X-40641Y89978D01*
X-45719D01*
X-46989Y88708D01*
Y86169D01*
X-45719Y84900D01*
X-46989Y77282D02*
Y82360D01*
X-41910Y77282D01*
X-40641D01*
X-39371Y78552D01*
Y81091D01*
X-40641Y82360D01*
X-85090Y10159D02*
X-86360Y11429D01*
X-88899D01*
X-90168Y10159D01*
Y5081D01*
X-88899Y3811D01*
X-86360D01*
X-85090Y5081D01*
X-82551Y3811D02*
X-80012D01*
X-81281D01*
Y11429D01*
X-82551Y10159D01*
D14*
X139700Y-20322D02*
X134622D01*
X137161D01*
Y-33018D01*
X134622Y-35557D01*
X132083D01*
X129543Y-33018D01*
X144778Y-35557D02*
X149857D01*
X147318D01*
Y-20322D01*
X144778Y-22862D01*
M02*
