%TF.GenerationSoftware,Altium Limited,Altium Designer,24.10.1 (45)*%
G04 Layer_Physical_Order=3*
G04 Layer_Color=16440176*
%FSLAX45Y45*%
%MOMM*%
%TF.SameCoordinates,BD69F3EC-0890-4BE1-91DE-E58431A91F3E*%
%TF.FilePolarity,Positive*%
%TF.FileFunction,Copper,L3,Inr,Signal*%
%TF.Part,Single*%
G01*
G75*
%TA.AperFunction,ComponentPad*%
%ADD35C,1.44780*%
%ADD36C,0.50800*%
%TA.AperFunction,ViaPad*%
%ADD37C,0.50800*%
G36*
X1930400Y-2108200D02*
X-1270000D01*
Y2286000D01*
X1930400D01*
Y-2108200D01*
D02*
G37*
%LPC*%
G36*
X1053395Y528392D02*
X-889000D01*
X-896804Y526840D01*
X-903419Y522419D01*
X-907840Y515804D01*
X-909392Y508000D01*
Y-222293D01*
X-909076Y-223878D01*
X-909139Y-225494D01*
X-908308Y-227745D01*
X-907840Y-230097D01*
X-906942Y-231440D01*
X-906381Y-232957D01*
X-904752Y-234718D01*
X-903419Y-236712D01*
X-902075Y-237610D01*
X-900977Y-238797D01*
X-898798Y-239800D01*
X-896804Y-241133D01*
X-895218Y-241448D01*
X-893749Y-242124D01*
X-872470Y-247220D01*
X-870559Y-247678D01*
Y-260322D01*
X-872471Y-260780D01*
X-893749Y-265876D01*
X-895218Y-266552D01*
X-896804Y-266867D01*
X-898798Y-268200D01*
X-900977Y-269203D01*
X-902075Y-270390D01*
X-903419Y-271288D01*
X-904752Y-273282D01*
X-906381Y-275043D01*
X-906942Y-276560D01*
X-907840Y-277903D01*
X-908308Y-280255D01*
X-909139Y-282506D01*
X-909076Y-284122D01*
X-909392Y-285707D01*
Y-558095D01*
X-907840Y-565898D01*
X-907241Y-566794D01*
X-902092Y-579225D01*
Y-589174D01*
X-907241Y-601606D01*
X-907840Y-602502D01*
X-909392Y-610305D01*
Y-636473D01*
X-908645Y-640227D01*
X-907956Y-643991D01*
X-907870Y-644123D01*
X-907840Y-644277D01*
X-905709Y-647466D01*
X-903636Y-650673D01*
X-903507Y-650762D01*
X-903419Y-650893D01*
X-900236Y-653020D01*
X-897088Y-655193D01*
X-872005Y-666031D01*
X-871851Y-666064D01*
X-871720Y-666151D01*
X-867971Y-666897D01*
X-864226Y-667701D01*
X-864071Y-667673D01*
X-863917Y-667704D01*
X-860164Y-666957D01*
X-856400Y-666267D01*
X-856268Y-666182D01*
X-856113Y-666151D01*
X-843174Y-660792D01*
X-833226D01*
X-824034Y-664599D01*
X-816999Y-671634D01*
X-813192Y-680825D01*
Y-690774D01*
X-816999Y-699966D01*
X-824034Y-707001D01*
X-833225Y-710808D01*
X-843174D01*
X-856113Y-705449D01*
X-856268Y-705418D01*
X-856400Y-705333D01*
X-860164Y-704643D01*
X-863917Y-703896D01*
X-864071Y-703927D01*
X-864226Y-703899D01*
X-867963Y-704701D01*
X-871720Y-705449D01*
X-871852Y-705536D01*
X-872005Y-705569D01*
X-897088Y-716407D01*
X-900240Y-718583D01*
X-903419Y-720707D01*
X-903507Y-720838D01*
X-903636Y-720927D01*
X-905713Y-724140D01*
X-907840Y-727323D01*
X-907870Y-727477D01*
X-907956Y-727609D01*
X-908645Y-731373D01*
X-909392Y-735127D01*
Y-1244600D01*
X-907840Y-1252404D01*
X-903419Y-1259019D01*
X-896804Y-1263440D01*
X-889000Y-1264992D01*
X994268D01*
X1001999Y-1275068D01*
X999810Y-1283237D01*
Y-1307563D01*
X1006106Y-1331061D01*
X1018269Y-1352129D01*
X1035471Y-1369331D01*
X1056539Y-1381494D01*
X1073471Y-1386031D01*
X1073471Y-1399179D01*
X1054455Y-1404274D01*
X1032156Y-1417148D01*
X1013948Y-1435356D01*
X1001074Y-1457654D01*
X994410Y-1482526D01*
Y-1482700D01*
X1092200D01*
Y-1508100D01*
X994410D01*
Y-1508274D01*
X1001074Y-1533145D01*
X1013948Y-1555444D01*
X1032156Y-1573651D01*
X1054455Y-1586526D01*
X1073471Y-1591621D01*
Y-1604769D01*
X1056539Y-1609306D01*
X1035471Y-1621469D01*
X1018269Y-1638671D01*
X1006106Y-1659739D01*
X999810Y-1683237D01*
Y-1707563D01*
X1006106Y-1731061D01*
X1018269Y-1752129D01*
X1035471Y-1769330D01*
X1056539Y-1781494D01*
X1080037Y-1787790D01*
X1104363D01*
X1127861Y-1781494D01*
X1148929Y-1769330D01*
X1166131Y-1752129D01*
X1178294Y-1731061D01*
X1182831Y-1714129D01*
X1195979D01*
X1201074Y-1733145D01*
X1213949Y-1755444D01*
X1232156Y-1773652D01*
X1254455Y-1786526D01*
X1279326Y-1793190D01*
X1279500D01*
Y-1695401D01*
X1292200D01*
Y-1682701D01*
X1389990D01*
Y-1682526D01*
X1383326Y-1657655D01*
X1370452Y-1635356D01*
X1352244Y-1617148D01*
X1329946Y-1604274D01*
X1310929Y-1599179D01*
Y-1586031D01*
X1327861Y-1581494D01*
X1348929Y-1569330D01*
X1366131Y-1552129D01*
X1378294Y-1531061D01*
X1384590Y-1507563D01*
Y-1483237D01*
X1378294Y-1459739D01*
X1366131Y-1438671D01*
X1348929Y-1421469D01*
X1327861Y-1409306D01*
X1304363Y-1403010D01*
X1280037D01*
X1256539Y-1409306D01*
X1235471Y-1421469D01*
X1218270Y-1438671D01*
X1206106Y-1459739D01*
X1201569Y-1476671D01*
X1188421D01*
X1183326Y-1457654D01*
X1170452Y-1435356D01*
X1152244Y-1417148D01*
X1129945Y-1404274D01*
X1110929Y-1399179D01*
X1110929Y-1386031D01*
X1127861Y-1381494D01*
X1148929Y-1369331D01*
X1166131Y-1352129D01*
X1178294Y-1331061D01*
X1184590Y-1307563D01*
Y-1283237D01*
X1178294Y-1259739D01*
X1166131Y-1238671D01*
X1148929Y-1221469D01*
X1127861Y-1209306D01*
X1104363Y-1203010D01*
X1080037D01*
X1079760Y-1202798D01*
Y-1188002D01*
X1080037Y-1187790D01*
X1104363D01*
X1127861Y-1181494D01*
X1148929Y-1169330D01*
X1166131Y-1152129D01*
X1178294Y-1131061D01*
X1184590Y-1107563D01*
Y-1083237D01*
X1178294Y-1059739D01*
X1166131Y-1038671D01*
X1148929Y-1021469D01*
X1127861Y-1009306D01*
X1104363Y-1003010D01*
X1080037D01*
X1079760Y-1002797D01*
Y-988003D01*
X1080037Y-987790D01*
X1104363D01*
X1127861Y-981494D01*
X1148929Y-969331D01*
X1166131Y-952129D01*
X1178294Y-931061D01*
X1184590Y-907563D01*
Y-883237D01*
X1178294Y-859739D01*
X1166131Y-838671D01*
X1148929Y-821470D01*
X1127861Y-809306D01*
X1104363Y-803010D01*
X1092265D01*
X1087217Y-796370D01*
X1092258Y-787790D01*
X1104363D01*
X1127861Y-781494D01*
X1148929Y-769330D01*
X1166131Y-752129D01*
X1178294Y-731061D01*
X1184590Y-707563D01*
Y-683237D01*
X1178294Y-659739D01*
X1166131Y-638671D01*
X1148929Y-621469D01*
X1137180Y-614686D01*
X1135624Y-612404D01*
X1134303Y-604803D01*
X1134842Y-598671D01*
X1135260Y-598194D01*
X1135692Y-596921D01*
X1136440Y-595802D01*
X1136960Y-593187D01*
X1137818Y-590660D01*
X1137730Y-589317D01*
X1137992Y-587998D01*
Y362762D01*
X1137600Y364731D01*
Y366740D01*
X1136831Y368596D01*
X1136440Y370566D01*
X1135324Y372236D01*
X1134555Y374091D01*
X1133135Y375511D01*
X1132019Y377182D01*
X1130349Y378298D01*
X1128929Y379718D01*
X1112560Y390655D01*
X1110704Y391424D01*
X1109034Y392540D01*
X1107065Y392931D01*
X1105209Y393700D01*
X1103199D01*
X1101230Y394092D01*
X1087226D01*
X1078034Y397899D01*
X1070999Y404934D01*
X1067192Y414125D01*
Y424074D01*
X1070999Y433266D01*
X1078034Y440301D01*
X1090973Y445660D01*
X1091983Y446335D01*
X1093137Y446711D01*
X1095262Y448527D01*
X1097588Y450081D01*
X1098263Y451091D01*
X1099186Y451879D01*
X1115330Y472368D01*
X1115754Y473200D01*
X1116407Y473870D01*
X1117547Y476722D01*
X1118940Y479458D01*
X1119013Y480389D01*
X1119360Y481258D01*
X1119322Y484329D01*
X1119563Y487390D01*
X1119274Y488279D01*
X1119262Y489214D01*
X1118052Y492037D01*
X1117102Y494956D01*
X1116495Y495667D01*
X1116126Y496526D01*
X1105344Y512238D01*
X1103996Y513553D01*
X1102950Y515119D01*
X1101176Y516305D01*
X1099649Y517794D01*
X1097900Y518494D01*
X1096334Y519540D01*
X1094242Y519956D01*
X1092261Y520748D01*
X1090377Y520725D01*
X1088530Y521092D01*
X1074526D01*
X1062094Y526241D01*
X1061198Y526840D01*
X1053395Y528392D01*
D02*
G37*
G36*
X1304363Y-603010D02*
X1280037D01*
X1256539Y-609306D01*
X1235471Y-621469D01*
X1218270Y-638671D01*
X1206106Y-659739D01*
X1199810Y-683237D01*
Y-707563D01*
X1206106Y-731061D01*
X1218270Y-752129D01*
X1235471Y-769330D01*
X1256539Y-781494D01*
X1280037Y-787790D01*
X1304363D01*
X1327861Y-781494D01*
X1348929Y-769330D01*
X1366131Y-752129D01*
X1378294Y-731061D01*
X1384590Y-707563D01*
Y-683237D01*
X1378294Y-659739D01*
X1366131Y-638671D01*
X1348929Y-621469D01*
X1327861Y-609306D01*
X1304363Y-603010D01*
D02*
G37*
G36*
Y-803010D02*
X1280037D01*
X1256539Y-809306D01*
X1235471Y-821470D01*
X1218270Y-838671D01*
X1206106Y-859739D01*
X1199810Y-883237D01*
Y-907563D01*
X1206106Y-931061D01*
X1218270Y-952129D01*
X1235471Y-969331D01*
X1256539Y-981494D01*
X1280037Y-987790D01*
X1304363D01*
X1327861Y-981494D01*
X1348929Y-969331D01*
X1366131Y-952129D01*
X1378294Y-931061D01*
X1384590Y-907563D01*
Y-883237D01*
X1378294Y-859739D01*
X1366131Y-838671D01*
X1348929Y-821470D01*
X1327861Y-809306D01*
X1304363Y-803010D01*
D02*
G37*
G36*
Y-1003010D02*
X1280037D01*
X1256539Y-1009306D01*
X1235471Y-1021469D01*
X1218270Y-1038671D01*
X1206106Y-1059739D01*
X1199810Y-1083237D01*
Y-1107563D01*
X1206106Y-1131061D01*
X1218270Y-1152129D01*
X1235471Y-1169330D01*
X1256539Y-1181494D01*
X1280037Y-1187790D01*
X1304363D01*
X1327861Y-1181494D01*
X1348929Y-1169330D01*
X1366131Y-1152129D01*
X1378294Y-1131061D01*
X1384590Y-1107563D01*
Y-1083237D01*
X1378294Y-1059739D01*
X1366131Y-1038671D01*
X1348929Y-1021469D01*
X1327861Y-1009306D01*
X1304363Y-1003010D01*
D02*
G37*
G36*
Y-1203010D02*
X1280037D01*
X1256539Y-1209306D01*
X1235471Y-1221469D01*
X1218270Y-1238671D01*
X1206106Y-1259739D01*
X1199810Y-1283237D01*
Y-1307563D01*
X1206106Y-1331061D01*
X1218270Y-1352129D01*
X1235471Y-1369331D01*
X1256539Y-1381494D01*
X1280037Y-1387790D01*
X1304363D01*
X1327861Y-1381494D01*
X1348929Y-1369331D01*
X1366131Y-1352129D01*
X1378294Y-1331061D01*
X1384590Y-1307563D01*
Y-1283237D01*
X1378294Y-1259739D01*
X1366131Y-1238671D01*
X1348929Y-1221469D01*
X1327861Y-1209306D01*
X1304363Y-1203010D01*
D02*
G37*
G36*
X1389990Y-1708101D02*
X1304900D01*
Y-1793190D01*
X1305074D01*
X1329946Y-1786526D01*
X1352244Y-1773652D01*
X1370452Y-1755444D01*
X1383326Y-1733145D01*
X1389990Y-1708274D01*
Y-1708101D01*
D02*
G37*
%LPD*%
G36*
X1053783Y507612D02*
X1070469Y500700D01*
X1088530D01*
X1099313Y484988D01*
X1083169Y464500D01*
X1066483Y457588D01*
X1053712Y444817D01*
X1046800Y428131D01*
Y410069D01*
X1053712Y393383D01*
X1066483Y380612D01*
X1083169Y373700D01*
X1101230D01*
X1117600Y362762D01*
Y-587998D01*
X1105074Y-597610D01*
X1104900D01*
Y-695400D01*
X1092200D01*
Y-708100D01*
X994410D01*
Y-708274D01*
X1001074Y-733145D01*
X1013948Y-755444D01*
X1032156Y-773651D01*
X1050956Y-784506D01*
X1053474Y-795691D01*
X1051719Y-812089D01*
X1035471Y-821470D01*
X1018269Y-838671D01*
X1006106Y-859739D01*
X999810Y-883237D01*
Y-907563D01*
X1006106Y-931061D01*
X1018269Y-952129D01*
X1035471Y-969331D01*
X1056539Y-981494D01*
X1059368Y-982252D01*
Y-1008548D01*
X1056539Y-1009306D01*
X1035471Y-1021469D01*
X1018269Y-1038671D01*
X1006106Y-1059739D01*
X999810Y-1083237D01*
Y-1107563D01*
X1006106Y-1131061D01*
X1018269Y-1152129D01*
X1035471Y-1169330D01*
X1056539Y-1181494D01*
X1059368Y-1182252D01*
Y-1208548D01*
X1056539Y-1209306D01*
X1035471Y-1221469D01*
X1018269Y-1238671D01*
X1014847Y-1244600D01*
X-889000D01*
Y-735127D01*
X-863917Y-724288D01*
X-847231Y-731200D01*
X-829169D01*
X-812483Y-724288D01*
X-799712Y-711517D01*
X-792800Y-694831D01*
Y-676769D01*
X-799712Y-660083D01*
X-812483Y-647312D01*
X-829169Y-640400D01*
X-847231D01*
X-863917Y-647312D01*
X-889000Y-636473D01*
Y-610305D01*
X-888612Y-609917D01*
X-881700Y-593231D01*
Y-575169D01*
X-888612Y-558483D01*
X-889000Y-558095D01*
Y-285707D01*
X-865809Y-280153D01*
X-863600Y-280105D01*
X-851217Y-292488D01*
X-834531Y-299400D01*
X-816469D01*
X-799783Y-292488D01*
X-787012Y-279717D01*
X-780100Y-263031D01*
Y-244969D01*
X-787012Y-228283D01*
X-799783Y-215512D01*
X-816469Y-208600D01*
X-834531D01*
X-851217Y-215512D01*
X-863600Y-227895D01*
X-865809Y-227847D01*
X-889000Y-222293D01*
Y508000D01*
X1053395D01*
X1053783Y507612D01*
D02*
G37*
%LPC*%
G36*
X999631Y362900D02*
X981569D01*
X964883Y355988D01*
X952112Y343217D01*
X945200Y326531D01*
Y308469D01*
X952112Y291783D01*
X964883Y279012D01*
X981569Y272100D01*
X999631D01*
X1016317Y279012D01*
X1029088Y291783D01*
X1036000Y308469D01*
Y326531D01*
X1029088Y343217D01*
X1016317Y355988D01*
X999631Y362900D01*
D02*
G37*
G36*
X555131Y312100D02*
X537069D01*
X520383Y305188D01*
X507612Y292417D01*
X500700Y275731D01*
Y259723D01*
X492489Y251395D01*
X479187Y243233D01*
X466231Y248600D01*
X448169D01*
X431483Y241688D01*
X418712Y228917D01*
X411800Y212231D01*
Y194169D01*
X418712Y177483D01*
X431483Y164712D01*
X448169Y157800D01*
X466231D01*
X482917Y164712D01*
X495688Y177483D01*
X502600Y194169D01*
Y210177D01*
X510811Y218505D01*
X524113Y226667D01*
X537069Y221300D01*
X555131D01*
X571817Y228212D01*
X584588Y240983D01*
X591500Y257669D01*
Y275731D01*
X584588Y292417D01*
X571817Y305188D01*
X555131Y312100D01*
D02*
G37*
G36*
X-714869Y401000D02*
X-732931D01*
X-749617Y394088D01*
X-762388Y381317D01*
X-769300Y364631D01*
Y346569D01*
X-762388Y329883D01*
X-751646Y319141D01*
X-750555Y304800D01*
X-751646Y290459D01*
X-762388Y279717D01*
X-769300Y263031D01*
Y244969D01*
X-762388Y228283D01*
X-749617Y215512D01*
X-732931Y208600D01*
X-714869D01*
X-698183Y215512D01*
X-685412Y228283D01*
X-678500Y244969D01*
Y263031D01*
X-685412Y279717D01*
X-696154Y290459D01*
X-697245Y304800D01*
X-696154Y319141D01*
X-685412Y329883D01*
X-678500Y346569D01*
Y364631D01*
X-685412Y381317D01*
X-698183Y394088D01*
X-714869Y401000D01*
D02*
G37*
G36*
X133341Y153566D02*
X115279D01*
X98593Y146654D01*
X84940Y134658D01*
X71287Y146655D01*
X54601Y153566D01*
X36539D01*
X19853Y146654D01*
X6200Y134658D01*
X-7453Y146655D01*
X-24139Y153566D01*
X-42201D01*
X-58887Y146654D01*
X-72540Y134658D01*
X-86193Y146655D01*
X-102879Y153566D01*
X-120941D01*
X-137627Y146654D01*
X-150398Y133883D01*
X-157310Y117197D01*
Y99135D01*
X-150398Y82449D01*
X-138402Y68796D01*
X-150399Y55143D01*
X-157310Y38457D01*
Y20395D01*
X-150398Y3709D01*
X-138402Y-9944D01*
X-150399Y-23597D01*
X-157310Y-40283D01*
Y-58345D01*
X-150398Y-75031D01*
X-138402Y-88684D01*
X-150399Y-102337D01*
X-157310Y-119023D01*
Y-137085D01*
X-150398Y-153771D01*
X-137627Y-166542D01*
X-120941Y-173454D01*
X-102879D01*
X-86193Y-166542D01*
X-72540Y-154546D01*
X-58887Y-166543D01*
X-42201Y-173454D01*
X-24139D01*
X-7453Y-166542D01*
X6200Y-154546D01*
X19853Y-166543D01*
X36539Y-173454D01*
X54601D01*
X71287Y-166542D01*
X84940Y-154546D01*
X98593Y-166543D01*
X115279Y-173454D01*
X133341D01*
X150027Y-166542D01*
X162798Y-153771D01*
X169710Y-137085D01*
Y-119023D01*
X162798Y-102337D01*
X150802Y-88684D01*
X162799Y-75031D01*
X169710Y-58345D01*
Y-40283D01*
X162798Y-23597D01*
X150802Y-9944D01*
X162799Y3709D01*
X169710Y20395D01*
Y38457D01*
X162798Y55143D01*
X150802Y68796D01*
X162799Y82449D01*
X169710Y99135D01*
Y117197D01*
X162798Y133883D01*
X150027Y146654D01*
X133341Y153566D01*
D02*
G37*
G36*
X-727569Y96200D02*
X-745631D01*
X-762317Y89288D01*
X-775088Y76517D01*
X-782000Y59831D01*
Y41769D01*
X-775088Y25083D01*
X-772949Y22943D01*
X-765127Y6350D01*
X-772949Y-10243D01*
X-775088Y-12383D01*
X-782000Y-29069D01*
Y-47131D01*
X-775088Y-63817D01*
X-762317Y-76588D01*
X-745631Y-83500D01*
X-727569D01*
X-710883Y-76588D01*
X-698112Y-63817D01*
X-691200Y-47131D01*
Y-29069D01*
X-698112Y-12383D01*
X-700251Y-10243D01*
X-708073Y6350D01*
X-700251Y22943D01*
X-698112Y25083D01*
X-691200Y41769D01*
Y59831D01*
X-698112Y76517D01*
X-710883Y89288D01*
X-727569Y96200D01*
D02*
G37*
G36*
X758331Y70800D02*
X740269D01*
X723583Y63888D01*
X710812Y51117D01*
X703900Y34431D01*
Y16369D01*
X710812Y-317D01*
X712951Y-2457D01*
X720773Y-19050D01*
X712951Y-35643D01*
X710812Y-37783D01*
X703900Y-54469D01*
Y-72531D01*
X710812Y-89217D01*
X723583Y-101988D01*
X740269Y-108900D01*
X758331D01*
X775017Y-101988D01*
X787788Y-89217D01*
X794700Y-72531D01*
Y-54469D01*
X787788Y-37783D01*
X785649Y-35643D01*
X777827Y-19050D01*
X785649Y-2457D01*
X787788Y-317D01*
X794700Y16369D01*
Y34431D01*
X787788Y51117D01*
X775017Y63888D01*
X758331Y70800D01*
D02*
G37*
G36*
X745631Y-157800D02*
X727569D01*
X710883Y-164712D01*
X698112Y-177483D01*
X691200Y-194169D01*
Y-212231D01*
X698112Y-228917D01*
X710883Y-241688D01*
X727569Y-248600D01*
X745631D01*
X762317Y-241688D01*
X775088Y-228917D01*
X782000Y-212231D01*
Y-194169D01*
X775088Y-177483D01*
X762317Y-164712D01*
X745631Y-157800D01*
D02*
G37*
G36*
X-283069Y-208600D02*
X-301131D01*
X-317817Y-215512D01*
X-330588Y-228283D01*
X-337500Y-244969D01*
Y-263031D01*
X-330588Y-279717D01*
X-317817Y-292488D01*
X-301131Y-299400D01*
X-283069D01*
X-266383Y-292488D01*
X-253612Y-279717D01*
X-246700Y-263031D01*
Y-244969D01*
X-253612Y-228283D01*
X-266383Y-215512D01*
X-283069Y-208600D01*
D02*
G37*
G36*
X-727569Y-297500D02*
X-745631D01*
X-762317Y-304412D01*
X-775088Y-317183D01*
X-782000Y-333869D01*
Y-351931D01*
X-775088Y-368617D01*
X-762317Y-381388D01*
X-745631Y-388300D01*
X-727569D01*
X-710883Y-381388D01*
X-698112Y-368617D01*
X-691200Y-351931D01*
Y-333869D01*
X-698112Y-317183D01*
X-710883Y-304412D01*
X-727569Y-297500D01*
D02*
G37*
G36*
X-524369Y-361000D02*
X-542431D01*
X-559117Y-367912D01*
X-571888Y-380683D01*
X-578800Y-397369D01*
Y-415431D01*
X-571888Y-432117D01*
X-559117Y-444888D01*
X-542431Y-451800D01*
X-524369D01*
X-507683Y-444888D01*
X-494912Y-432117D01*
X-488000Y-415431D01*
Y-397369D01*
X-494912Y-380683D01*
X-507683Y-367912D01*
X-524369Y-361000D01*
D02*
G37*
G36*
X-156069Y-348300D02*
X-174131D01*
X-190817Y-355212D01*
X-203588Y-367983D01*
X-210500Y-384669D01*
Y-402731D01*
X-203588Y-419417D01*
X-190817Y-432188D01*
X-174131Y-439100D01*
X-156069D01*
X-139383Y-432188D01*
X-125488Y-444817D01*
X-112717Y-457588D01*
X-96031Y-464500D01*
X-77969D01*
X-61283Y-457588D01*
X-48512Y-444817D01*
X-41600Y-428131D01*
Y-410069D01*
X-48512Y-393383D01*
X-61283Y-380612D01*
X-77969Y-373700D01*
X-96031D01*
X-112717Y-380612D01*
X-126612Y-367983D01*
X-139383Y-355212D01*
X-156069Y-348300D01*
D02*
G37*
G36*
X-54469Y-513400D02*
X-72531D01*
X-89217Y-520312D01*
X-101988Y-533083D01*
X-108900Y-549769D01*
Y-567831D01*
X-101988Y-584517D01*
X-89217Y-597288D01*
X-72531Y-604200D01*
X-54469D01*
X-37783Y-597288D01*
X-25012Y-584517D01*
X-18100Y-567831D01*
Y-549769D01*
X-25012Y-533083D01*
X-37783Y-520312D01*
X-54469Y-513400D01*
D02*
G37*
G36*
X-194169D02*
X-212231D01*
X-228917Y-520312D01*
X-241688Y-533083D01*
X-248600Y-549769D01*
Y-567831D01*
X-241688Y-584517D01*
X-228917Y-597288D01*
X-212231Y-604200D01*
X-194169D01*
X-177483Y-597288D01*
X-164712Y-584517D01*
X-157800Y-567831D01*
Y-549769D01*
X-164712Y-533083D01*
X-177483Y-520312D01*
X-194169Y-513400D01*
D02*
G37*
G36*
X1079500Y-597610D02*
X1079326D01*
X1054455Y-604274D01*
X1032156Y-617148D01*
X1013948Y-635356D01*
X1001074Y-657655D01*
X994410Y-682526D01*
Y-682700D01*
X1079500D01*
Y-597610D01*
D02*
G37*
G36*
X-257669Y-615000D02*
X-275731D01*
X-292417Y-621912D01*
X-305188Y-634683D01*
X-312100Y-651369D01*
Y-669431D01*
X-305188Y-686117D01*
X-292417Y-698888D01*
X-275731Y-705800D01*
X-257669D01*
X-240983Y-698888D01*
X-228212Y-686117D01*
X-221300Y-669431D01*
Y-651369D01*
X-228212Y-634683D01*
X-240983Y-621912D01*
X-257669Y-615000D01*
D02*
G37*
G36*
X313831Y-698500D02*
X295769D01*
X279083Y-705412D01*
X266312Y-718183D01*
X259400Y-734869D01*
Y-752931D01*
X266312Y-769617D01*
X279083Y-782388D01*
X295769Y-789300D01*
X313831D01*
X330517Y-782388D01*
X343288Y-769617D01*
X350200Y-752931D01*
Y-734869D01*
X343288Y-718183D01*
X330517Y-705412D01*
X313831Y-698500D01*
D02*
G37*
G36*
X-689469Y-830900D02*
X-707531D01*
X-724217Y-837812D01*
X-736988Y-850583D01*
X-743900Y-867269D01*
Y-885331D01*
X-736988Y-902017D01*
X-724217Y-914788D01*
X-707531Y-921700D01*
X-689469D01*
X-672783Y-914788D01*
X-660012Y-902017D01*
X-653100Y-885331D01*
Y-867269D01*
X-660012Y-850583D01*
X-672783Y-837812D01*
X-689469Y-830900D01*
D02*
G37*
G36*
X326531Y-932500D02*
X308469D01*
X291783Y-939412D01*
X279012Y-952183D01*
X272100Y-968869D01*
Y-986931D01*
X279012Y-1003617D01*
X291783Y-1016388D01*
X308469Y-1023300D01*
X326531D01*
X343217Y-1016388D01*
X355988Y-1003617D01*
X362900Y-986931D01*
Y-968869D01*
X355988Y-952183D01*
X343217Y-939412D01*
X326531Y-932500D01*
D02*
G37*
G36*
X-600569D02*
X-618631D01*
X-635317Y-939412D01*
X-648088Y-952183D01*
X-655000Y-968869D01*
Y-986931D01*
X-648088Y-1003617D01*
X-635317Y-1016388D01*
X-618631Y-1023300D01*
X-600569D01*
X-583883Y-1016388D01*
X-571112Y-1003617D01*
X-564200Y-986931D01*
Y-968869D01*
X-571112Y-952183D01*
X-583883Y-939412D01*
X-600569Y-932500D01*
D02*
G37*
%LPD*%
G36*
X138476Y129367D02*
X145511Y122331D01*
X149318Y113140D01*
Y103191D01*
X145251Y93373D01*
X135483Y82256D01*
X134138Y79932D01*
X132504Y77798D01*
X132162Y76516D01*
X131498Y75369D01*
X131145Y72707D01*
X130452Y70110D01*
X130626Y68796D01*
X130452Y67482D01*
X131145Y64885D01*
X131498Y62223D01*
X132162Y61075D01*
X132504Y59794D01*
X134137Y57661D01*
X135483Y55336D01*
X145251Y44220D01*
X149318Y34400D01*
Y24451D01*
X145251Y14633D01*
X135483Y3516D01*
X134138Y1192D01*
X132504Y-942D01*
X132162Y-2224D01*
X131498Y-3371D01*
X131145Y-6033D01*
X130452Y-8630D01*
X130626Y-9944D01*
X130452Y-11258D01*
X131145Y-13855D01*
X131498Y-16517D01*
X132162Y-17665D01*
X132504Y-18946D01*
X134137Y-21079D01*
X135483Y-23404D01*
X145251Y-34520D01*
X149318Y-44340D01*
Y-54289D01*
X145251Y-64107D01*
X135483Y-75224D01*
X134138Y-77548D01*
X132504Y-79682D01*
X132162Y-80964D01*
X131498Y-82111D01*
X131145Y-84773D01*
X130452Y-87370D01*
X130626Y-88684D01*
X130452Y-89998D01*
X131145Y-92595D01*
X131498Y-95257D01*
X132162Y-96405D01*
X132504Y-97686D01*
X134137Y-99819D01*
X135483Y-102144D01*
X145251Y-113260D01*
X149318Y-123080D01*
Y-133028D01*
X145511Y-142220D01*
X138475Y-149255D01*
X129284Y-153062D01*
X119335D01*
X109517Y-148995D01*
X98400Y-139228D01*
X96075Y-137883D01*
X93942Y-136248D01*
X92660Y-135906D01*
X91513Y-135243D01*
X88851Y-134889D01*
X86254Y-134196D01*
X84940Y-134371D01*
X83626Y-134196D01*
X81029Y-134889D01*
X78367Y-135243D01*
X77219Y-135907D01*
X75938Y-136248D01*
X73805Y-137882D01*
X71480Y-139227D01*
X60364Y-148995D01*
X50544Y-153062D01*
X40595D01*
X30777Y-148995D01*
X19660Y-139228D01*
X17336Y-137883D01*
X15202Y-136248D01*
X13920Y-135906D01*
X12773Y-135243D01*
X10111Y-134889D01*
X7514Y-134196D01*
X6200Y-134371D01*
X4886Y-134196D01*
X2289Y-134889D01*
X-373Y-135243D01*
X-1521Y-135907D01*
X-2802Y-136248D01*
X-4935Y-137882D01*
X-7260Y-139227D01*
X-18376Y-148995D01*
X-28196Y-153062D01*
X-38145D01*
X-47963Y-148995D01*
X-59080Y-139228D01*
X-61404Y-137883D01*
X-63538Y-136248D01*
X-64820Y-135906D01*
X-65967Y-135243D01*
X-68629Y-134889D01*
X-71226Y-134196D01*
X-72540Y-134371D01*
X-73854Y-134196D01*
X-76451Y-134889D01*
X-79113Y-135243D01*
X-80261Y-135907D01*
X-81542Y-136248D01*
X-83675Y-137882D01*
X-86000Y-139227D01*
X-97116Y-148995D01*
X-106936Y-153062D01*
X-116884D01*
X-126076Y-149255D01*
X-133111Y-142220D01*
X-136918Y-133029D01*
Y-123079D01*
X-132851Y-113261D01*
X-123084Y-102144D01*
X-121739Y-99820D01*
X-120104Y-97686D01*
X-119762Y-96404D01*
X-119099Y-95257D01*
X-118746Y-92595D01*
X-118052Y-89999D01*
X-118227Y-88684D01*
X-118052Y-87370D01*
X-118745Y-84774D01*
X-119099Y-82111D01*
X-119763Y-80964D01*
X-120104Y-79682D01*
X-121738Y-77550D01*
X-123083Y-75224D01*
X-132851Y-64108D01*
X-136918Y-54289D01*
Y-44339D01*
X-132851Y-34521D01*
X-123084Y-23404D01*
X-121739Y-21080D01*
X-120104Y-18946D01*
X-119762Y-17664D01*
X-119099Y-16517D01*
X-118746Y-13855D01*
X-118052Y-11259D01*
X-118227Y-9944D01*
X-118052Y-8630D01*
X-118745Y-6034D01*
X-119099Y-3371D01*
X-119763Y-2224D01*
X-120104Y-942D01*
X-121738Y1190D01*
X-123083Y3516D01*
X-132851Y14632D01*
X-136918Y24451D01*
Y34401D01*
X-132851Y44219D01*
X-123084Y55336D01*
X-121739Y57660D01*
X-120104Y59794D01*
X-119762Y61076D01*
X-119099Y62223D01*
X-118746Y64885D01*
X-118052Y67481D01*
X-118227Y68796D01*
X-118052Y70110D01*
X-118745Y72706D01*
X-119099Y75369D01*
X-119763Y76516D01*
X-120104Y77798D01*
X-121738Y79930D01*
X-123083Y82256D01*
X-132851Y93372D01*
X-136918Y103191D01*
Y113140D01*
X-133111Y122332D01*
X-126076Y129367D01*
X-116885Y133174D01*
X-106935D01*
X-97117Y129107D01*
X-86000Y119339D01*
X-83676Y117994D01*
X-81542Y116360D01*
X-80260Y116018D01*
X-79113Y115354D01*
X-76451Y115001D01*
X-73855Y114308D01*
X-72540Y114482D01*
X-71226Y114308D01*
X-68630Y115001D01*
X-65967Y115354D01*
X-64820Y116018D01*
X-63538Y116360D01*
X-61406Y117993D01*
X-59080Y119339D01*
X-47964Y129107D01*
X-38145Y133174D01*
X-28195D01*
X-18377Y129107D01*
X-7260Y119339D01*
X-4936Y117994D01*
X-2802Y116360D01*
X-1520Y116018D01*
X-373Y115354D01*
X2289Y115001D01*
X4885Y114308D01*
X6200Y114482D01*
X7514Y114308D01*
X10110Y115001D01*
X12773Y115354D01*
X13920Y116018D01*
X15202Y116360D01*
X17334Y117993D01*
X19660Y119339D01*
X30776Y129107D01*
X40595Y133174D01*
X50545D01*
X60363Y129107D01*
X71480Y119339D01*
X73804Y117994D01*
X75938Y116360D01*
X77220Y116018D01*
X78367Y115354D01*
X81029Y115001D01*
X83625Y114308D01*
X84940Y114482D01*
X86254Y114308D01*
X88850Y115001D01*
X91513Y115354D01*
X92660Y116018D01*
X93942Y116360D01*
X96074Y117993D01*
X98400Y119339D01*
X109516Y129107D01*
X119335Y133174D01*
X129284D01*
X138476Y129367D01*
D02*
G37*
D35*
X1292200Y-1695400D02*
D03*
X1092200D02*
D03*
X1292200Y-1495400D02*
D03*
X1092200D02*
D03*
X1292200Y-1295400D02*
D03*
X1092200D02*
D03*
X1292200Y-1095400D02*
D03*
X1092200D02*
D03*
X1292200Y-895400D02*
D03*
X1092200D02*
D03*
X1292200Y-695400D02*
D03*
X1092200D02*
D03*
D36*
X-111910Y108166D02*
D03*
X-33170D02*
D03*
X45570D02*
D03*
X124310D02*
D03*
X-111910Y29426D02*
D03*
X-33170D02*
D03*
X45570D02*
D03*
X124310D02*
D03*
X-111910Y-49314D02*
D03*
X-33170D02*
D03*
X45570D02*
D03*
X124310D02*
D03*
X-111910Y-128054D02*
D03*
X-33170D02*
D03*
X45570D02*
D03*
X124310D02*
D03*
D37*
X1790700Y2133600D02*
D03*
Y2006600D02*
D03*
Y1879600D02*
D03*
Y1752600D02*
D03*
Y1625600D02*
D03*
Y1498600D02*
D03*
Y1371600D02*
D03*
Y1244600D02*
D03*
Y1117600D02*
D03*
Y990600D02*
D03*
Y863600D02*
D03*
Y736600D02*
D03*
Y609600D02*
D03*
Y482600D02*
D03*
Y355600D02*
D03*
Y228600D02*
D03*
Y101600D02*
D03*
Y-25400D02*
D03*
Y-152400D02*
D03*
Y-279400D02*
D03*
Y-406400D02*
D03*
Y-533400D02*
D03*
Y-660400D02*
D03*
Y-787400D02*
D03*
Y-914400D02*
D03*
Y-1041400D02*
D03*
Y-1168400D02*
D03*
Y-1295400D02*
D03*
Y-1422400D02*
D03*
Y-1549400D02*
D03*
Y-1676400D02*
D03*
Y-1803400D02*
D03*
Y-1930400D02*
D03*
X1663700Y2133600D02*
D03*
Y2006600D02*
D03*
Y1879600D02*
D03*
Y1752600D02*
D03*
Y1625600D02*
D03*
Y1498600D02*
D03*
Y1371600D02*
D03*
Y1244600D02*
D03*
Y1117600D02*
D03*
Y990600D02*
D03*
Y863600D02*
D03*
Y736600D02*
D03*
Y609600D02*
D03*
Y482600D02*
D03*
Y355600D02*
D03*
Y228600D02*
D03*
Y101600D02*
D03*
Y-25400D02*
D03*
Y-152400D02*
D03*
Y-279400D02*
D03*
Y-406400D02*
D03*
Y-533400D02*
D03*
Y-660400D02*
D03*
Y-787400D02*
D03*
Y-914400D02*
D03*
Y-1041400D02*
D03*
Y-1168400D02*
D03*
Y-1295400D02*
D03*
Y-1422400D02*
D03*
Y-1549400D02*
D03*
Y-1676400D02*
D03*
Y-1803400D02*
D03*
Y-1930400D02*
D03*
X1536700Y2133600D02*
D03*
Y2006600D02*
D03*
Y1879600D02*
D03*
Y1752600D02*
D03*
Y1625600D02*
D03*
Y1498600D02*
D03*
Y1371600D02*
D03*
Y1244600D02*
D03*
Y1117600D02*
D03*
Y990600D02*
D03*
Y863600D02*
D03*
Y736600D02*
D03*
Y609600D02*
D03*
Y482600D02*
D03*
Y355600D02*
D03*
Y228600D02*
D03*
Y101600D02*
D03*
Y-25400D02*
D03*
Y-152400D02*
D03*
Y-279400D02*
D03*
Y-406400D02*
D03*
Y-1422400D02*
D03*
Y-1549400D02*
D03*
Y-1676400D02*
D03*
Y-1803400D02*
D03*
Y-1930400D02*
D03*
X1409700Y2133600D02*
D03*
Y2006600D02*
D03*
Y1879600D02*
D03*
Y1752600D02*
D03*
Y1625600D02*
D03*
Y1498600D02*
D03*
Y1371600D02*
D03*
Y1244600D02*
D03*
Y1117600D02*
D03*
Y990600D02*
D03*
Y863600D02*
D03*
Y736600D02*
D03*
Y609600D02*
D03*
Y482600D02*
D03*
Y355600D02*
D03*
Y228600D02*
D03*
Y101600D02*
D03*
Y-25400D02*
D03*
Y-152400D02*
D03*
Y-279400D02*
D03*
Y-1930400D02*
D03*
X1282700Y2133600D02*
D03*
Y2006600D02*
D03*
Y1879600D02*
D03*
Y1752600D02*
D03*
Y1625600D02*
D03*
Y1498600D02*
D03*
Y1371600D02*
D03*
Y1244600D02*
D03*
Y1117600D02*
D03*
Y990600D02*
D03*
Y863600D02*
D03*
Y736600D02*
D03*
Y609600D02*
D03*
Y482600D02*
D03*
Y355600D02*
D03*
Y228600D02*
D03*
Y101600D02*
D03*
Y-25400D02*
D03*
Y-152400D02*
D03*
Y-1930400D02*
D03*
X1155700Y2133600D02*
D03*
Y2006600D02*
D03*
Y1879600D02*
D03*
Y1752600D02*
D03*
Y1625600D02*
D03*
Y1498600D02*
D03*
Y1371600D02*
D03*
Y1244600D02*
D03*
Y1117600D02*
D03*
Y990600D02*
D03*
Y863600D02*
D03*
Y736600D02*
D03*
Y609600D02*
D03*
Y-1930400D02*
D03*
X1028700Y2133600D02*
D03*
Y2006600D02*
D03*
Y1879600D02*
D03*
Y1752600D02*
D03*
Y1625600D02*
D03*
Y1498600D02*
D03*
Y1371600D02*
D03*
Y1244600D02*
D03*
Y990600D02*
D03*
Y863600D02*
D03*
Y736600D02*
D03*
Y-1930400D02*
D03*
X901700Y2133600D02*
D03*
Y2006600D02*
D03*
Y1879600D02*
D03*
Y1752600D02*
D03*
Y1625600D02*
D03*
Y1498600D02*
D03*
Y1371600D02*
D03*
Y863600D02*
D03*
Y736600D02*
D03*
Y-1422400D02*
D03*
Y-1803400D02*
D03*
Y-1930400D02*
D03*
X774700Y2133600D02*
D03*
Y2006600D02*
D03*
Y1879600D02*
D03*
Y1752600D02*
D03*
Y1625600D02*
D03*
Y1498600D02*
D03*
Y-1422400D02*
D03*
Y-1803400D02*
D03*
Y-1930400D02*
D03*
X647700Y2133600D02*
D03*
Y2006600D02*
D03*
Y1879600D02*
D03*
Y1752600D02*
D03*
Y1625600D02*
D03*
Y-1422400D02*
D03*
Y-1803400D02*
D03*
Y-1930400D02*
D03*
X520700Y2133600D02*
D03*
Y2006600D02*
D03*
Y1879600D02*
D03*
Y1752600D02*
D03*
Y1244600D02*
D03*
Y1117600D02*
D03*
Y-1422400D02*
D03*
Y-1803400D02*
D03*
Y-1930400D02*
D03*
X393700Y2133600D02*
D03*
Y2006600D02*
D03*
Y1879600D02*
D03*
Y1371600D02*
D03*
Y1244600D02*
D03*
Y1117600D02*
D03*
Y736600D02*
D03*
Y-1803400D02*
D03*
Y-1930400D02*
D03*
X266700Y2133600D02*
D03*
Y2006600D02*
D03*
Y1498600D02*
D03*
Y1371600D02*
D03*
Y1244600D02*
D03*
Y1117600D02*
D03*
Y-1803400D02*
D03*
Y-1930400D02*
D03*
X139700Y1244600D02*
D03*
Y1117600D02*
D03*
Y990600D02*
D03*
Y-1803400D02*
D03*
Y-1930400D02*
D03*
X12700Y1244600D02*
D03*
Y1117600D02*
D03*
Y990600D02*
D03*
Y-1676400D02*
D03*
Y-1803400D02*
D03*
Y-1930400D02*
D03*
X-114300Y1244600D02*
D03*
Y1117600D02*
D03*
Y990600D02*
D03*
Y-1422400D02*
D03*
Y-1549400D02*
D03*
Y-1676400D02*
D03*
Y-1803400D02*
D03*
Y-1930400D02*
D03*
X-241300Y1244600D02*
D03*
Y1117600D02*
D03*
Y990600D02*
D03*
Y-1422400D02*
D03*
Y-1549400D02*
D03*
Y-1676400D02*
D03*
Y-1803400D02*
D03*
Y-1930400D02*
D03*
X-368300Y1244600D02*
D03*
Y1117600D02*
D03*
Y990600D02*
D03*
Y-1422400D02*
D03*
Y-1549400D02*
D03*
Y-1676400D02*
D03*
Y-1803400D02*
D03*
Y-1930400D02*
D03*
X-495300Y1244600D02*
D03*
Y1117600D02*
D03*
Y990600D02*
D03*
Y863600D02*
D03*
Y-1422400D02*
D03*
Y-1549400D02*
D03*
Y-1676400D02*
D03*
Y-1803400D02*
D03*
Y-1930400D02*
D03*
X-622300Y1244600D02*
D03*
Y1117600D02*
D03*
Y990600D02*
D03*
Y863600D02*
D03*
Y736600D02*
D03*
Y609600D02*
D03*
Y-1422400D02*
D03*
Y-1549400D02*
D03*
Y-1676400D02*
D03*
Y-1803400D02*
D03*
Y-1930400D02*
D03*
X-749300Y1244600D02*
D03*
Y1117600D02*
D03*
Y990600D02*
D03*
Y863600D02*
D03*
Y736600D02*
D03*
Y609600D02*
D03*
Y-1422400D02*
D03*
Y-1549400D02*
D03*
Y-1676400D02*
D03*
Y-1803400D02*
D03*
Y-1930400D02*
D03*
X-876300Y2133600D02*
D03*
Y2006600D02*
D03*
Y1879600D02*
D03*
Y1752600D02*
D03*
Y1625600D02*
D03*
Y1498600D02*
D03*
Y1371600D02*
D03*
Y1244600D02*
D03*
Y1117600D02*
D03*
Y990600D02*
D03*
Y863600D02*
D03*
Y736600D02*
D03*
Y609600D02*
D03*
Y-1422400D02*
D03*
Y-1549400D02*
D03*
Y-1676400D02*
D03*
Y-1803400D02*
D03*
Y-1930400D02*
D03*
X-1003300Y2133600D02*
D03*
Y2006600D02*
D03*
Y1879600D02*
D03*
Y1752600D02*
D03*
Y1625600D02*
D03*
Y1498600D02*
D03*
Y1371600D02*
D03*
Y1244600D02*
D03*
Y1117600D02*
D03*
Y990600D02*
D03*
Y863600D02*
D03*
Y736600D02*
D03*
Y609600D02*
D03*
Y482600D02*
D03*
Y355600D02*
D03*
Y228600D02*
D03*
Y101600D02*
D03*
Y-25400D02*
D03*
Y-152400D02*
D03*
Y-279400D02*
D03*
Y-406400D02*
D03*
Y-533400D02*
D03*
Y-660400D02*
D03*
Y-787400D02*
D03*
Y-914400D02*
D03*
Y-1041400D02*
D03*
Y-1168400D02*
D03*
Y-1295400D02*
D03*
Y-1422400D02*
D03*
Y-1549400D02*
D03*
Y-1676400D02*
D03*
Y-1803400D02*
D03*
Y-1930400D02*
D03*
X-1130300Y2133600D02*
D03*
Y2006600D02*
D03*
Y1879600D02*
D03*
Y1752600D02*
D03*
Y1625600D02*
D03*
Y1498600D02*
D03*
Y1371600D02*
D03*
Y1244600D02*
D03*
Y1117600D02*
D03*
Y990600D02*
D03*
Y863600D02*
D03*
Y736600D02*
D03*
Y609600D02*
D03*
Y482600D02*
D03*
Y355600D02*
D03*
Y228600D02*
D03*
Y101600D02*
D03*
Y-25400D02*
D03*
Y-152400D02*
D03*
Y-279400D02*
D03*
Y-406400D02*
D03*
Y-533400D02*
D03*
Y-660400D02*
D03*
Y-787400D02*
D03*
Y-914400D02*
D03*
Y-1041400D02*
D03*
Y-1168400D02*
D03*
Y-1295400D02*
D03*
Y-1422400D02*
D03*
Y-1549400D02*
D03*
Y-1676400D02*
D03*
Y-1803400D02*
D03*
Y-1930400D02*
D03*
X314960Y822960D02*
D03*
X621084Y-129586D02*
D03*
X-292100Y-254000D02*
D03*
X-431800Y469900D02*
D03*
X-203200Y-558800D02*
D03*
X-87000Y-419100D02*
D03*
X304800Y-743900D02*
D03*
X636990Y-275722D02*
D03*
X-63500Y-558800D02*
D03*
X-165100Y-393700D02*
D03*
X38100Y-1168400D02*
D03*
X-38100D02*
D03*
X736600Y-203200D02*
D03*
X749300Y-63500D02*
D03*
X317500Y-977900D02*
D03*
X-266700Y-660400D02*
D03*
X-609600Y-977900D02*
D03*
X-698500Y-876300D02*
D03*
X-838200Y-685800D02*
D03*
X-927100Y-584200D02*
D03*
X1028700Y1117600D02*
D03*
X-508000Y660400D02*
D03*
X-419100Y736600D02*
D03*
X254000Y-1447800D02*
D03*
X-114300Y889000D02*
D03*
X-254000D02*
D03*
X-736600Y-342900D02*
D03*
X-825500Y-254000D02*
D03*
X-736600Y-38100D02*
D03*
Y50800D02*
D03*
X-723900Y254000D02*
D03*
Y355600D02*
D03*
X457200Y203200D02*
D03*
X1079500Y546100D02*
D03*
X1092200Y419100D02*
D03*
X990600Y317500D02*
D03*
X546100Y266700D02*
D03*
X749300Y25400D02*
D03*
Y330200D02*
D03*
X-711200Y152400D02*
D03*
X-533400Y-406400D02*
D03*
X660400Y114300D02*
D03*
X-703580Y-147320D02*
D03*
X190500Y-1016000D02*
D03*
Y-1168400D02*
D03*
X114300Y-1016000D02*
D03*
X152400Y-1092200D02*
D03*
X114300Y-1168400D02*
D03*
X38100Y-863600D02*
D03*
X76200Y-939800D02*
D03*
X38100Y-1016000D02*
D03*
X76200Y-1092200D02*
D03*
X-38100Y-863600D02*
D03*
X0Y-939800D02*
D03*
X-38100Y-1016000D02*
D03*
X0Y-1092200D02*
D03*
X-698500Y444500D02*
D03*
X-330200Y-609600D02*
D03*
%TF.MD5,82fb142eae4b544076ac744632453dd9*%
M02*
