%TF.GenerationSoftware,Altium Limited,Altium Designer,24.10.1 (45)*%
G04 Layer_Physical_Order=1*
G04 Layer_Color=255*
%FSLAX45Y45*%
%MOMM*%
%TF.SameCoordinates,BD69F3EC-0890-4BE1-91DE-E58431A91F3E*%
%TF.FilePolarity,Positive*%
%TF.FileFunction,Copper,L1,Top,Signal*%
%TF.Part,Single*%
G01*
G75*
%TA.AperFunction,SMDPad,CuDef*%
%ADD10C,1.50000*%
%ADD11C,2.05000*%
%ADD12R,0.35000X0.65000*%
%ADD13R,0.56000X0.52000*%
G04:AMPARAMS|DCode=14|XSize=0.93mm|YSize=0.93mm|CornerRadius=0.2325mm|HoleSize=0mm|Usage=FLASHONLY|Rotation=0.000|XOffset=0mm|YOffset=0mm|HoleType=Round|Shape=RoundedRectangle|*
%AMROUNDEDRECTD14*
21,1,0.93000,0.46500,0,0,0.0*
21,1,0.46500,0.93000,0,0,0.0*
1,1,0.46500,0.23250,-0.23250*
1,1,0.46500,-0.23250,-0.23250*
1,1,0.46500,-0.23250,0.23250*
1,1,0.46500,0.23250,0.23250*
%
%ADD14ROUNDEDRECTD14*%
%ADD15R,0.50800X0.97790*%
%ADD16R,0.55880X0.71120*%
%ADD17R,0.60000X0.55000*%
%ADD18R,0.62000X0.66000*%
%ADD19R,0.65000X0.35000*%
%ADD20R,0.52000X0.56000*%
%ADD21R,0.40000X0.50000*%
G04:AMPARAMS|DCode=22|XSize=1.11mm|YSize=1.21mm|CornerRadius=0.13875mm|HoleSize=0mm|Usage=FLASHONLY|Rotation=0.000|XOffset=0mm|YOffset=0mm|HoleType=Round|Shape=RoundedRectangle|*
%AMROUNDEDRECTD22*
21,1,1.11000,0.93250,0,0,0.0*
21,1,0.83250,1.21000,0,0,0.0*
1,1,0.27750,0.41625,-0.46625*
1,1,0.27750,-0.41625,-0.46625*
1,1,0.27750,-0.41625,0.46625*
1,1,0.27750,0.41625,0.46625*
%
%ADD22ROUNDEDRECTD22*%
%ADD23R,0.65000X0.60000*%
%ADD24R,0.76000X0.72000*%
%ADD25R,3.45000X3.45000*%
%ADD26R,0.84988X0.27991*%
%ADD27R,0.27991X0.84988*%
%ADD28R,0.72000X0.76000*%
%ADD29R,0.47247X0.51535*%
%ADD30R,0.50000X0.40000*%
%TA.AperFunction,Conductor*%
%ADD31C,0.38225*%
%ADD32C,0.25400*%
%ADD33C,0.51308*%
%ADD34C,0.13138*%
%TA.AperFunction,ComponentPad*%
%ADD35C,1.44780*%
%ADD36C,0.50800*%
%TA.AperFunction,ViaPad*%
%ADD37C,0.50800*%
G36*
X1930400Y-2108200D02*
X-1270000D01*
Y2286000D01*
X1930400D01*
Y-2108200D01*
D02*
G37*
%LPC*%
G36*
X-298290Y1879800D02*
X-335310D01*
X-371070Y1870218D01*
X-403131Y1851708D01*
X-429308Y1825531D01*
X-447818Y1793470D01*
X-457400Y1757710D01*
Y1720690D01*
X-447818Y1684930D01*
X-429308Y1652869D01*
X-403131Y1626692D01*
X-371070Y1608182D01*
X-335310Y1598600D01*
X-298290D01*
X-262530Y1608182D01*
X-230469Y1626692D01*
X-204292Y1652869D01*
X-202355Y1656225D01*
X232148D01*
X232150Y1656224D01*
X253716Y1659064D01*
X264326Y1663459D01*
X653275Y1274511D01*
Y1122000D01*
X656114Y1100434D01*
X664438Y1080337D01*
X665080Y1079500D01*
X664438Y1078663D01*
X656114Y1058566D01*
X653275Y1037000D01*
Y983100D01*
X577000D01*
Y960441D01*
X516200D01*
Y992300D01*
X451840D01*
Y1012940D01*
X335560D01*
Y987934D01*
X317500D01*
X299080Y984270D01*
X283464Y973836D01*
X156464Y846836D01*
X146030Y831220D01*
X143030Y816140D01*
X118860D01*
Y816140D01*
X111240Y811840D01*
X-35040D01*
Y811840D01*
X-57900Y817972D01*
Y857600D01*
X-101600D01*
Y799200D01*
X-127000D01*
Y857600D01*
X-170700D01*
Y805873D01*
X-177200Y803378D01*
X-202600Y820834D01*
Y855300D01*
X-241300D01*
Y801900D01*
X-254000D01*
Y789200D01*
X-305400D01*
Y748500D01*
X-300000D01*
Y675900D01*
X-277769D01*
X-275312Y663550D01*
X-268085Y652734D01*
X-255451Y640100D01*
X-265972Y614700D01*
X-344211D01*
X-368700Y616900D01*
Y649600D01*
X-419100D01*
X-469500D01*
Y616900D01*
X-464100D01*
Y542300D01*
X-460281D01*
Y505625D01*
X-470288Y495617D01*
X-477200Y478931D01*
Y460869D01*
X-470288Y444183D01*
X-457517Y431412D01*
X-440831Y424500D01*
X-422769D01*
X-406083Y431412D01*
X-393312Y444183D01*
X-386400Y460869D01*
Y478931D01*
X-393312Y495617D01*
X-393600Y495905D01*
Y520917D01*
X-385237Y524735D01*
X-360800Y507970D01*
Y410100D01*
Y312100D01*
X-248800D01*
Y322259D01*
X-222889D01*
X-219260Y318630D01*
X-202795Y300050D01*
Y199095D01*
X-303794D01*
Y198441D01*
X-388790D01*
X-479730Y289380D01*
X-480625Y290720D01*
X-505307Y315402D01*
X-516900Y336000D01*
Y426000D01*
X-527265D01*
X-527997Y429680D01*
X-535225Y440496D01*
X-562804Y468075D01*
X-573620Y475303D01*
X-586379Y477841D01*
X-667635D01*
X-672783Y482988D01*
X-689469Y489900D01*
X-707531D01*
X-724217Y482988D01*
X-736988Y470217D01*
X-743900Y453531D01*
Y435469D01*
X-736988Y418783D01*
X-724217Y406012D01*
X-707531Y399100D01*
X-689470D01*
X-682300Y394309D01*
Y393700D01*
X-636900D01*
Y381000D01*
X-624200D01*
Y330600D01*
X-591500D01*
X-590241Y319407D01*
X-590241Y319400D01*
X-587703Y306641D01*
X-584179Y301368D01*
X-595890Y281753D01*
X-598907Y279000D01*
X-624200D01*
Y228600D01*
X-636900D01*
Y215900D01*
X-683499D01*
X-702170Y197800D01*
X-720231D01*
X-736917Y190888D01*
X-749688Y178117D01*
X-756600Y161431D01*
Y143369D01*
X-749688Y126683D01*
X-736917Y113912D01*
X-720231Y107000D01*
X-702170D01*
X-683499Y88900D01*
X-636900D01*
Y76200D01*
X-624200D01*
Y25800D01*
X-591500D01*
Y31200D01*
X-562137D01*
X-552417Y7734D01*
X-571914Y-11764D01*
X-591500Y-25800D01*
X-624200D01*
Y-76200D01*
X-636900D01*
Y-88900D01*
X-682300D01*
Y-93735D01*
X-694550Y-101920D01*
X-712611D01*
X-729297Y-108832D01*
X-742068Y-121603D01*
X-748980Y-138289D01*
Y-156351D01*
X-742068Y-173037D01*
X-736905Y-178200D01*
X-747426Y-203600D01*
X-783900D01*
Y-241300D01*
X-738500D01*
Y-254000D01*
X-725800D01*
Y-304400D01*
X-693100D01*
Y-299000D01*
X-649477D01*
X-638956Y-324400D01*
X-726975Y-412420D01*
X-734203Y-423236D01*
X-734919Y-426836D01*
X-745025D01*
X-758243Y-429465D01*
X-769448Y-436952D01*
X-773246Y-442637D01*
X-792200Y-458200D01*
X-884200D01*
Y-530800D01*
X-889600D01*
Y-571500D01*
X-838200D01*
Y-584200D01*
X-825500D01*
Y-637600D01*
X-786800D01*
Y-619716D01*
X-761400Y-606911D01*
X-756992Y-610171D01*
Y-647700D01*
X-755842Y-653482D01*
X-760350Y-654379D01*
X-773341Y-663059D01*
X-782021Y-676051D01*
X-785070Y-691375D01*
Y-725300D01*
X-703400D01*
Y-738000D01*
X-690700D01*
Y-824669D01*
X-683944D01*
X-663900Y-837600D01*
X-663900Y-838185D01*
Y-876300D01*
X-610500D01*
Y-889000D01*
X-597800D01*
Y-940400D01*
X-557100D01*
Y-935000D01*
X-484500D01*
Y-843000D01*
X-484500D01*
X-484310Y-817679D01*
X-478558Y-816535D01*
X-467352Y-809048D01*
X-459865Y-797842D01*
X-457236Y-784625D01*
Y-708987D01*
X-408225Y-659976D01*
X-400997Y-649159D01*
X-398459Y-636400D01*
Y-629817D01*
X-373059Y-624764D01*
X-368688Y-635317D01*
X-355917Y-648088D01*
X-339231Y-655000D01*
X-321169D01*
X-304483Y-648088D01*
X-291712Y-635317D01*
X-284800Y-618631D01*
Y-608000D01*
X-279400D01*
Y-562600D01*
X-266700D01*
Y-549900D01*
X-216300D01*
Y-517200D01*
X-221700D01*
Y-442600D01*
X-233359D01*
Y-413917D01*
X-207959Y-408864D01*
X-203588Y-419417D01*
X-190817Y-432188D01*
X-174131Y-439100D01*
X-156069D01*
X-139383Y-432188D01*
X-125488Y-444817D01*
X-112717Y-457588D01*
X-96031Y-464500D01*
X-77970D01*
X-58347Y-478315D01*
X-57463Y-491392D01*
X-72531Y-513400D01*
X-89217Y-520312D01*
X-101988Y-533083D01*
X-108900Y-549769D01*
Y-567831D01*
X-101988Y-584517D01*
X-89217Y-597288D01*
X-72531Y-604200D01*
X-54469D01*
X-37783Y-597288D01*
X-25012Y-584517D01*
X-18100Y-567831D01*
Y-560148D01*
X888Y-541160D01*
X12659Y-537468D01*
X33635Y-537986D01*
X106359Y-610710D01*
Y-691600D01*
X85100D01*
Y-734460D01*
X84828Y-735015D01*
X81859Y-739766D01*
X75497Y-745980D01*
X64000Y-754308D01*
X-114300D01*
X-122104Y-755860D01*
X-128719Y-760281D01*
X-133140Y-766896D01*
X-134692Y-774700D01*
Y-1257300D01*
Y-1333500D01*
X-133140Y-1341304D01*
X-128719Y-1347919D01*
X-122104Y-1352340D01*
X-114300Y-1353892D01*
X-53340D01*
X-47940Y-1378716D01*
Y-1466530D01*
X-46548D01*
Y-1500255D01*
X-43005Y-1518068D01*
X-32915Y-1533170D01*
X24739Y-1590824D01*
X39841Y-1600914D01*
X57654Y-1604457D01*
X106606D01*
Y-1625263D01*
X107500Y-1629759D01*
Y-1650045D01*
X114805D01*
X120239Y-1658178D01*
X170675Y-1708614D01*
X185776Y-1718704D01*
X203590Y-1722247D01*
X312844D01*
X330658Y-1718704D01*
X345759Y-1708614D01*
X375815Y-1678558D01*
X385905Y-1663457D01*
X389448Y-1645643D01*
Y-1627698D01*
X958669D01*
X1002852Y-1671882D01*
X999810Y-1683237D01*
Y-1707563D01*
X1006106Y-1731061D01*
X1018269Y-1752129D01*
X1035471Y-1769330D01*
X1056539Y-1781494D01*
X1080037Y-1787790D01*
X1104363D01*
X1127861Y-1781494D01*
X1148929Y-1769330D01*
X1166131Y-1752129D01*
X1175511Y-1735881D01*
X1191909Y-1734126D01*
X1203094Y-1736644D01*
X1213949Y-1755444D01*
X1232156Y-1773652D01*
X1254455Y-1786526D01*
X1279326Y-1793190D01*
X1279500D01*
Y-1695401D01*
X1292200D01*
Y-1682701D01*
X1389990D01*
Y-1682526D01*
X1383326Y-1657655D01*
X1370452Y-1635356D01*
X1352244Y-1617148D01*
X1333444Y-1606294D01*
X1330926Y-1595109D01*
X1332681Y-1578711D01*
X1348929Y-1569330D01*
X1366131Y-1552129D01*
X1378294Y-1531061D01*
X1384590Y-1507563D01*
Y-1483237D01*
X1378294Y-1459739D01*
X1377093Y-1457658D01*
X1557065Y-1277685D01*
X1564293Y-1266869D01*
X1566830Y-1254110D01*
Y-595455D01*
X1564293Y-582696D01*
X1557065Y-571880D01*
X1334619Y-349433D01*
X1323803Y-342206D01*
X1311044Y-339668D01*
X667619D01*
X662567Y-314268D01*
X662707Y-314210D01*
X675478Y-301439D01*
X682390Y-284752D01*
Y-266691D01*
X691137Y-253600D01*
X695000D01*
Y-215900D01*
X649600D01*
Y-190500D01*
X695000D01*
Y-152800D01*
X675961D01*
X666484Y-138616D01*
Y-120556D01*
X670931Y-113900D01*
X705800D01*
Y-76200D01*
X660400D01*
Y-50800D01*
X705800D01*
Y-30000D01*
X718300D01*
Y12700D01*
X660400D01*
Y38100D01*
X718300D01*
Y80800D01*
X718300D01*
X705800Y105270D01*
Y123331D01*
X698888Y140017D01*
X686117Y152788D01*
X669431Y159700D01*
X651369D01*
X634683Y152788D01*
X629855Y147961D01*
X623786D01*
X599040Y149540D01*
Y182240D01*
X548640D01*
X498240D01*
Y149723D01*
X316194D01*
Y199095D01*
X316194Y199095D01*
X316194D01*
X330416Y217901D01*
X384719Y272204D01*
X384720Y272205D01*
X397962Y289462D01*
X398350Y290400D01*
X448300D01*
Y309559D01*
X580600D01*
X593359Y312097D01*
X604175Y319325D01*
X656451Y371600D01*
X691908D01*
X694409Y369525D01*
X706787Y346200D01*
X703900Y339231D01*
Y321169D01*
X710812Y304483D01*
X723583Y291712D01*
X740269Y284800D01*
X758331D01*
X775017Y291712D01*
X787788Y304483D01*
X794700Y321169D01*
Y339231D01*
X791813Y346200D01*
X794300Y371600D01*
X807400Y381095D01*
X832800Y371799D01*
Y363100D01*
X925400D01*
Y357700D01*
X976100D01*
Y419100D01*
X988800D01*
Y431800D01*
X1052200D01*
Y480500D01*
X1051718D01*
X1032200Y494700D01*
Y533400D01*
X978800D01*
Y546100D01*
X966100D01*
Y597500D01*
X925400D01*
Y592100D01*
X852800D01*
Y500100D01*
X852800D01*
X851834Y475100D01*
X832800D01*
Y468682D01*
X807400Y461128D01*
X804777Y465146D01*
X803700Y490100D01*
X803700D01*
Y602100D01*
X803700D01*
X802813Y604825D01*
X807200Y630200D01*
X807200Y630200D01*
Y642102D01*
X808762Y644137D01*
X817086Y664234D01*
X819925Y685800D01*
X817086Y707366D01*
X808762Y727463D01*
X808119Y728300D01*
X808762Y729137D01*
X817086Y749234D01*
X819925Y770800D01*
Y876300D01*
Y1034275D01*
X840740D01*
X862306Y1037114D01*
X882403Y1045438D01*
X892910Y1053500D01*
X928800D01*
Y1066200D01*
X994100D01*
Y1104900D01*
X940700D01*
Y1130300D01*
X994100D01*
Y1169000D01*
X928800D01*
Y1181700D01*
X892910D01*
X882403Y1189762D01*
X862306Y1198086D01*
X840740Y1200925D01*
X819925D01*
Y1309025D01*
X817086Y1330591D01*
X808762Y1350688D01*
X795520Y1367945D01*
X795519Y1367946D01*
X395149Y1768317D01*
X389662Y1781563D01*
X376420Y1798820D01*
X373100Y1801368D01*
Y1810500D01*
X361198D01*
X359163Y1812062D01*
X339066Y1820386D01*
X317500Y1823225D01*
X295934Y1820386D01*
X275837Y1812062D01*
X275000Y1811420D01*
X274163Y1812062D01*
X254066Y1820386D01*
X232500Y1823226D01*
X229840Y1822875D01*
X-202759D01*
X-204292Y1825531D01*
X-230469Y1851708D01*
X-262530Y1870218D01*
X-298290Y1879800D01*
D02*
G37*
G36*
X-266700Y855300D02*
X-305400D01*
Y814600D01*
X-266700D01*
Y855300D01*
D02*
G37*
G36*
X-368700Y707700D02*
X-406400D01*
Y675000D01*
X-368700D01*
Y707700D01*
D02*
G37*
G36*
X-431800D02*
X-469500D01*
Y675000D01*
X-431800D01*
Y707700D01*
D02*
G37*
G36*
X1032200Y597500D02*
X991500D01*
Y558800D01*
X1032200D01*
Y597500D01*
D02*
G37*
G36*
X1052200Y406400D02*
X1001500D01*
Y357700D01*
X1052200D01*
Y406400D01*
D02*
G37*
G36*
X-649600Y368300D02*
X-682300D01*
Y330600D01*
X-649600D01*
Y368300D01*
D02*
G37*
G36*
Y279000D02*
X-682300D01*
Y241300D01*
X-649600D01*
Y279000D01*
D02*
G37*
G36*
X599040Y240340D02*
X561340D01*
Y207640D01*
X599040D01*
Y240340D01*
D02*
G37*
G36*
X535940D02*
X498240D01*
Y207640D01*
X535940D01*
Y240340D01*
D02*
G37*
G36*
X-649600Y63500D02*
X-682300D01*
Y25800D01*
X-649600D01*
Y63500D01*
D02*
G37*
G36*
Y-25800D02*
X-682300D01*
Y-63500D01*
X-649600D01*
Y-25800D01*
D02*
G37*
G36*
X-751200Y-266700D02*
X-783900D01*
Y-304400D01*
X-751200D01*
Y-266700D01*
D02*
G37*
G36*
X-216300Y-575300D02*
X-254000D01*
Y-608000D01*
X-216300D01*
Y-575300D01*
D02*
G37*
G36*
X-850900Y-596900D02*
X-889600D01*
Y-637600D01*
X-850900D01*
Y-596900D01*
D02*
G37*
G36*
X-716100Y-750700D02*
X-785070D01*
Y-784625D01*
X-782021Y-799949D01*
X-773341Y-812941D01*
X-760350Y-821621D01*
X-745025Y-824669D01*
X-716100D01*
Y-750700D01*
D02*
G37*
G36*
X-623200Y-901700D02*
X-663900D01*
Y-940400D01*
X-623200D01*
Y-901700D01*
D02*
G37*
G36*
X1389990Y-1708101D02*
X1304900D01*
Y-1793190D01*
X1305074D01*
X1329946Y-1786526D01*
X1352244Y-1773652D01*
X1370452Y-1755444D01*
X1383326Y-1733145D01*
X1389990Y-1708274D01*
Y-1708101D01*
D02*
G37*
%LPD*%
G36*
X532251Y-452401D02*
X522531Y-475868D01*
X345219D01*
X215836Y-346485D01*
Y-258739D01*
X215195Y-255519D01*
Y-218984D01*
X298833D01*
X532251Y-452401D01*
D02*
G37*
G36*
X-190500Y-194950D02*
X-202795D01*
Y-272787D01*
X-290275Y-360268D01*
X-297503Y-371084D01*
X-300041Y-383843D01*
Y-442600D01*
X-311700D01*
Y-450632D01*
X-317559Y-451797D01*
X-328376Y-459025D01*
X-353775Y-484425D01*
X-361003Y-495241D01*
X-363541Y-508000D01*
Y-572573D01*
X-373059Y-582136D01*
X-398459Y-571649D01*
Y-255110D01*
X-312961Y-169612D01*
X-242595D01*
X-239375Y-168971D01*
X-190500D01*
Y-194950D01*
D02*
G37*
G36*
X76858Y-796222D02*
X73022Y-808668D01*
X69247Y-827650D01*
Y-838200D01*
X142100D01*
Y-850900D01*
X154800D01*
Y-923753D01*
X165350D01*
X184332Y-919977D01*
X200424Y-909224D01*
X228395Y-908970D01*
X241300Y-921090D01*
Y-1333500D01*
X203700D01*
Y-1320800D01*
X152900D01*
X102100D01*
Y-1333500D01*
X53340D01*
Y-1319530D01*
X0D01*
X-53340D01*
Y-1333500D01*
X-114300D01*
Y-1257300D01*
Y-774700D01*
X64001D01*
X76858Y-796222D01*
D02*
G37*
G36*
X300608Y-587949D02*
X1042730D01*
X1049536Y-613349D01*
X1035471Y-621469D01*
X1018269Y-638671D01*
X1006106Y-659739D01*
X999810Y-683237D01*
Y-707563D01*
X1006106Y-731061D01*
X1018269Y-752129D01*
X1035471Y-769330D01*
X1056539Y-781494D01*
X1059368Y-782252D01*
Y-808548D01*
X1056539Y-809306D01*
X1035471Y-821470D01*
X1018269Y-838671D01*
X1006106Y-859739D01*
X999810Y-883237D01*
Y-907563D01*
X1006106Y-931061D01*
X1018269Y-952129D01*
X1035471Y-969331D01*
X1056539Y-981494D01*
X1059368Y-982252D01*
Y-1008548D01*
X1056539Y-1009306D01*
X1035471Y-1021469D01*
X1018269Y-1038671D01*
X1006106Y-1059739D01*
X999810Y-1083237D01*
Y-1107563D01*
X1006106Y-1131061D01*
X1018269Y-1152129D01*
X1035471Y-1169330D01*
X1056539Y-1181494D01*
X1059368Y-1182252D01*
Y-1208548D01*
X1056539Y-1209306D01*
X1035471Y-1221469D01*
X1018269Y-1238671D01*
X1006106Y-1259739D01*
X999810Y-1283237D01*
Y-1307563D01*
X1006106Y-1331061D01*
X1018269Y-1352129D01*
X1035471Y-1369331D01*
X1051719Y-1378711D01*
X1053474Y-1395109D01*
X1050956Y-1406294D01*
X1032156Y-1417148D01*
X1013948Y-1435356D01*
X1001074Y-1457654D01*
X994410Y-1482526D01*
Y-1482700D01*
X1092200D01*
Y-1508100D01*
X994410D01*
Y-1508274D01*
X995458Y-1512187D01*
X980143Y-1531794D01*
X975168Y-1534602D01*
X388300D01*
Y-1512255D01*
X298700D01*
Y-1506855D01*
X260600D01*
Y-1581150D01*
X235200D01*
Y-1506855D01*
X197100D01*
Y-1512255D01*
X157142D01*
X152646Y-1511361D01*
X76935D01*
X54703Y-1489129D01*
X47940Y-1466530D01*
X47940Y-1466530D01*
X47940D01*
X47940Y-1466529D01*
Y-1378716D01*
X53340Y-1353892D01*
X102100D01*
X107500Y-1358324D01*
Y-1376995D01*
X198300D01*
Y-1358324D01*
X203700Y-1353892D01*
X241300D01*
X249104Y-1352340D01*
X255719Y-1347919D01*
X260140Y-1341304D01*
X261692Y-1333500D01*
Y-929628D01*
X268850Y-923753D01*
X279400D01*
Y-850900D01*
Y-778047D01*
X268850D01*
X250500Y-762987D01*
Y-749300D01*
X205100D01*
Y-723900D01*
X250500D01*
Y-711324D01*
X264924D01*
Y-672856D01*
X215900D01*
Y-647456D01*
X264924D01*
Y-608989D01*
X268563Y-601210D01*
X287850Y-585411D01*
X300608Y-587949D01*
D02*
G37*
%LPC*%
G36*
X129400Y-863600D02*
X69247D01*
Y-874150D01*
X73022Y-893132D01*
X83775Y-909224D01*
X99868Y-919977D01*
X118850Y-923753D01*
X129400D01*
Y-863600D01*
D02*
G37*
G36*
X53340Y-1245870D02*
X12700D01*
Y-1294130D01*
X53340D01*
Y-1245870D01*
D02*
G37*
G36*
X-12700D02*
X-53340D01*
Y-1294130D01*
X-12700D01*
Y-1245870D01*
D02*
G37*
G36*
X203700Y-1233805D02*
X165600D01*
Y-1295400D01*
X203700D01*
Y-1233805D01*
D02*
G37*
G36*
X140200D02*
X102100D01*
Y-1295400D01*
X140200D01*
Y-1233805D01*
D02*
G37*
G36*
X315350Y-778047D02*
X304800D01*
Y-838200D01*
X364953D01*
Y-827650D01*
X361177Y-808668D01*
X350424Y-792576D01*
X334332Y-781823D01*
X315350Y-778047D01*
D02*
G37*
G36*
X364953Y-863600D02*
X304800D01*
Y-923753D01*
X315350D01*
X334332Y-919977D01*
X350424Y-909224D01*
X361177Y-893132D01*
X364953Y-874150D01*
Y-863600D01*
D02*
G37*
G36*
X388300Y-1239205D02*
X297500D01*
Y-1376995D01*
X388300D01*
Y-1239205D01*
D02*
G37*
%LPD*%
D10*
X-50800Y2005200D02*
D03*
Y1473200D02*
D03*
D11*
X-316800Y1739200D02*
D03*
D12*
X410800Y342900D02*
D03*
X325800D02*
D03*
X393700Y939800D02*
D03*
X478700D02*
D03*
X232500Y1739900D02*
D03*
X317500D02*
D03*
X139700Y469900D02*
D03*
X54700D02*
D03*
D13*
X407300Y482600D02*
D03*
X329300D02*
D03*
X862700Y1117600D02*
D03*
X940700D02*
D03*
X978800Y546100D02*
D03*
X900800D02*
D03*
X-532500Y-889000D02*
D03*
X-610500D02*
D03*
D14*
X292100Y-850900D02*
D03*
X142100D02*
D03*
D15*
X152900Y-1308100D02*
D03*
X342900D02*
D03*
Y-1581150D02*
D03*
X247900D02*
D03*
X152900D02*
D03*
D16*
X0Y-1306830D02*
D03*
Y-1410970D02*
D03*
D17*
X744300Y419100D02*
D03*
X659300D02*
D03*
D18*
X-114300Y799200D02*
D03*
Y711200D02*
D03*
X190500Y742500D02*
D03*
Y654500D02*
D03*
D19*
X736600Y1037000D02*
D03*
Y1122000D02*
D03*
X317500Y663620D02*
D03*
Y748620D02*
D03*
X38100Y668700D02*
D03*
Y753700D02*
D03*
X736600Y685800D02*
D03*
Y770800D02*
D03*
D20*
X596900Y763800D02*
D03*
Y685800D02*
D03*
X-254000Y723900D02*
D03*
Y801900D02*
D03*
X-838200Y-584200D02*
D03*
Y-506200D02*
D03*
D21*
X-636900Y381000D02*
D03*
X-556900D02*
D03*
X-738500Y-254000D02*
D03*
X-658500D02*
D03*
X125100Y-736600D02*
D03*
X205100D02*
D03*
X569600Y-203200D02*
D03*
X649600D02*
D03*
X-556900Y228600D02*
D03*
X-636900D02*
D03*
X-556900Y-76200D02*
D03*
X-636900D02*
D03*
X-556900Y76200D02*
D03*
X-636900D02*
D03*
X660400Y-63500D02*
D03*
X580400D02*
D03*
D22*
X-703400Y-738000D02*
D03*
Y-508000D02*
D03*
X-533400D02*
D03*
Y-738000D02*
D03*
D23*
X660400Y25400D02*
D03*
X575400D02*
D03*
D24*
X635000Y927100D02*
D03*
X733000D02*
D03*
X647700Y546100D02*
D03*
X745700D02*
D03*
X988800Y419100D02*
D03*
X890800D02*
D03*
D25*
X6200Y-9944D02*
D03*
D26*
X-241300Y-184988D02*
D03*
Y-134976D02*
D03*
Y-84963D02*
D03*
Y-34950D02*
D03*
Y15062D02*
D03*
Y65075D02*
D03*
Y115087D02*
D03*
Y165100D02*
D03*
X253700D02*
D03*
Y115087D02*
D03*
Y65075D02*
D03*
Y15062D02*
D03*
Y-34950D02*
D03*
Y-84963D02*
D03*
Y-134976D02*
D03*
Y-184988D02*
D03*
D27*
X-168800Y237556D02*
D03*
X-118800D02*
D03*
X-68800D02*
D03*
X-18800D02*
D03*
X31200D02*
D03*
X81200D02*
D03*
X131200D02*
D03*
X181200D02*
D03*
Y-257444D02*
D03*
X131200D02*
D03*
X81200D02*
D03*
X31200D02*
D03*
X-18800D02*
D03*
X-68800D02*
D03*
X-118800D02*
D03*
X-168800D02*
D03*
D28*
X-304800Y468100D02*
D03*
Y370100D02*
D03*
D29*
X215900Y-660156D02*
D03*
Y-584444D02*
D03*
D30*
X-266700Y-562600D02*
D03*
Y-482600D02*
D03*
X-419100Y582300D02*
D03*
Y662300D02*
D03*
X548640Y114940D02*
D03*
Y194940D02*
D03*
D31*
X399640Y488540D02*
X588013Y676913D01*
X407300Y479160D02*
Y482600D01*
X588013Y676913D02*
X590013D01*
X596900Y683800D01*
Y685800D01*
X736600Y876300D02*
Y1037000D01*
X596900Y763800D02*
Y763913D01*
X203200Y245169D02*
X239843D01*
X325800Y331125D02*
Y342900D01*
X239843Y245169D02*
X325800Y331125D01*
X317500Y1728125D02*
Y1739900D01*
X736600Y1122000D02*
Y1309025D01*
X317500Y1728125D02*
X736600Y1309025D01*
X232150Y1739550D02*
X232500Y1739900D01*
X-316450Y1739550D02*
X232150D01*
X-316800Y1739200D02*
X-316450Y1739550D01*
X752775Y1117600D02*
X840740D01*
X748375Y1122000D02*
X752775Y1117600D01*
X736600Y1122000D02*
X748375D01*
X736600Y770800D02*
Y876300D01*
X596900Y685800D02*
X736600D01*
X724825Y770800D02*
X736600D01*
X596900Y763800D02*
X717825D01*
X724825Y770800D01*
X328400Y361675D02*
Y457200D01*
D32*
X382700Y636244D02*
X474300Y727844D01*
X359876Y613420D02*
X363545D01*
X382700Y632575D01*
X474300Y727844D02*
Y927100D01*
X382700Y632575D02*
Y636244D01*
X229250Y482795D02*
X359876Y613420D01*
X314960Y753420D02*
Y822960D01*
X170745Y404700D02*
X229250Y463206D01*
X131200Y377580D02*
X158320Y404700D01*
X229250Y463206D02*
Y482795D01*
X158320Y404700D02*
X170745D01*
X131200Y237556D02*
Y377580D01*
X182495Y-360295D02*
X331409Y-509209D01*
X182495Y-360295D02*
Y-258739D01*
X331409Y-509209D02*
X1254628D01*
X177800Y-431800D02*
X300608Y-554608D01*
X131200Y-385200D02*
Y-257444D01*
Y-385200D02*
X177800Y-431800D01*
X300608Y-554608D02*
X1151409D01*
X181200Y-257444D02*
X182495Y-258739D01*
X609614Y-418409D02*
X1292238D01*
X254341Y-185630D02*
X312630D01*
X327476Y-136271D02*
X609614Y-418409D01*
X254995Y-136271D02*
X327476D01*
X312630Y-185630D02*
X590809Y-463809D01*
X253700Y-184988D02*
X254341Y-185630D01*
X590809Y-463809D02*
X1273433D01*
X1488090Y-1099510D02*
Y-614260D01*
X584200Y-322900D02*
X634309Y-373009D01*
X1311044D02*
X1533490Y-595455D01*
Y-1254110D02*
Y-595455D01*
X1292200Y-1495400D02*
X1533490Y-1254110D01*
X1292200Y-1295400D02*
X1488090Y-1099510D01*
X634309Y-373009D02*
X1311044D01*
X1292238Y-418409D02*
X1488090Y-614260D01*
X1254628Y-509209D02*
X1397290Y-651870D01*
X1273433Y-463809D02*
X1442690Y-633065D01*
Y-944910D02*
Y-633065D01*
X1292200Y-1095400D02*
X1442690Y-944910D01*
X1397290Y-790310D02*
Y-651870D01*
X1292200Y-895400D02*
X1397290Y-790310D01*
X1151409Y-554608D02*
X1292200Y-695400D01*
X580400Y-68500D02*
X587700Y-75800D01*
Y-89329D02*
X621084Y-122713D01*
X587700Y-89329D02*
Y-75800D01*
X621084Y-129586D02*
Y-122713D01*
X580400Y-68500D02*
Y-63500D01*
X-271094Y-226121D02*
Y-186284D01*
X-292100Y-247127D02*
X-271094Y-226121D01*
X-292100Y-254000D02*
Y-247127D01*
X-271094Y-186284D02*
X-269799Y-184988D01*
X-241300D01*
X-426940Y579460D02*
X-425040Y581360D01*
X-426940Y474760D02*
Y579460D01*
X-431800Y469900D02*
X-426940Y474760D01*
X-425040Y581360D02*
X-253060D01*
X-420050Y661350D02*
X-419100Y662300D01*
X-507050Y661350D02*
X-420050D01*
X-508000Y660400D02*
X-507050Y661350D01*
X-419100Y662300D02*
Y736600D01*
X-253060Y581360D02*
X-68800Y397100D01*
X-87000Y-419100D02*
X-82140Y-414240D01*
Y-374945D01*
X630877Y-275722D02*
X636990D01*
X596900Y-241745D02*
Y-241300D01*
X254995Y-86258D02*
X347558D01*
X596900Y-241745D02*
X630877Y-275722D01*
X569600Y-203200D02*
X576900Y-210500D01*
Y-221300D02*
X596900Y-241300D01*
X576900Y-221300D02*
Y-210500D01*
X347558Y-86258D02*
X584200Y-322900D01*
X-68800Y-361605D02*
Y-257444D01*
X-82140Y-374945D02*
X-68800Y-361605D01*
X-18800Y-513698D02*
Y-257444D01*
X-63500Y-558800D02*
Y-558398D01*
X-18800Y-513698D01*
X-165100Y-393700D02*
X-118800Y-347400D01*
Y-257444D01*
X34505Y-491705D02*
X139700Y-596900D01*
X34505Y-491705D02*
Y-299278D01*
X82495Y-438095D02*
Y-258739D01*
Y-438095D02*
X222372Y-577972D01*
X139700Y-848500D02*
Y-596900D01*
X660400Y25400D02*
X749300D01*
X649600Y-203200D02*
X736600D01*
X552560Y-196960D02*
X569600D01*
X390550Y-34950D02*
X552560Y-196960D01*
X253700Y-34950D02*
X390550D01*
X425638Y15062D02*
X504200Y-63500D01*
X660400D02*
X723900D01*
X253700Y-134976D02*
X254995Y-136271D01*
X253700Y-84963D02*
X254995Y-86258D01*
X548320Y114620D02*
X660080D01*
X-564200Y79675D02*
X-549600Y65075D01*
X-563650Y-87950D02*
X-550150D01*
X649600Y-203200D02*
X649879Y-202921D01*
X504200Y-63500D02*
X580400D01*
X-326771Y-136271D02*
X-242595D01*
X-431800Y-241300D02*
X-326771Y-136271D01*
X-431800Y-636400D02*
Y-241300D01*
X-533400Y-738000D02*
X-431800Y-636400D01*
X744300Y419100D02*
X746800Y416600D01*
Y332700D02*
X749300Y330200D01*
X746800Y332700D02*
Y416600D01*
X474300Y927100D02*
X641439D01*
X-244509Y676309D02*
X-18800Y450600D01*
X-254000Y721900D02*
X-244509Y712409D01*
Y676309D02*
Y712409D01*
X-18800Y237556D02*
Y450600D01*
X-68800Y237556D02*
Y397100D01*
X-228600Y457200D02*
X-120096Y348696D01*
X-292100Y457200D02*
X-228600D01*
X-120096Y238851D02*
Y348696D01*
X-651200Y-241700D02*
X-631156D01*
X-424406Y-34950D01*
X-658500Y-254000D02*
Y-249000D01*
X-651200Y-241700D01*
X-424406Y-34950D02*
X-241300D01*
X-556900Y-76200D02*
Y-43900D01*
Y319400D02*
Y381000D01*
X-530772Y293272D02*
X-530328D01*
X-402600Y165100D02*
X-241300D01*
X-504200Y266700D02*
X-402600Y165100D01*
X-504200Y266700D02*
Y267145D01*
X-556900Y319400D02*
X-530772Y293272D01*
X-530328D02*
X-504200Y267145D01*
X-475687Y115087D02*
X-241300D01*
X-579079Y152400D02*
X-564200Y137521D01*
X-711200Y152400D02*
X-579079D01*
X-564200Y79675D02*
Y137521D01*
X-558800Y198200D02*
X-475687Y115087D01*
X-556900Y-43900D02*
X-497938Y15062D01*
X660080Y114620D02*
X660400Y114300D01*
X254995Y116383D02*
X541359D01*
X253700Y115087D02*
X254995Y116383D01*
X-564200Y-102000D02*
Y-88500D01*
X-609520Y-147320D02*
X-564200Y-102000D01*
Y-88500D02*
X-563650Y-87950D01*
X-703580Y-147320D02*
X-609520D01*
X32495Y-297268D02*
X34505Y-299278D01*
X32495Y-297268D02*
Y-258739D01*
X31200Y-257444D02*
X32495Y-258739D01*
X653500Y415800D02*
Y540300D01*
X580600Y342900D02*
X653500Y415800D01*
X410800Y342900D02*
X580600D01*
X-243891Y-84963D02*
X-242595Y-86258D01*
X-838200Y-508000D02*
X-703400D01*
X-533400D02*
Y-406400D01*
X139700Y-848500D02*
X142100Y-850900D01*
X-292100Y355600D02*
X-209079D01*
X-168800Y315321D01*
Y237556D02*
Y315321D01*
X-698500Y444500D02*
X-586379D01*
X-330200Y-609600D02*
Y-508000D01*
X-304800Y-482600D01*
X-266700D01*
Y-383843D01*
X-168800Y-285943D01*
X-703400Y-508000D02*
Y-435995D01*
X-352368Y-84963D01*
X-243891D01*
X-497938Y15062D02*
X-241300D01*
X-549600Y65075D02*
X-241300D01*
X-558800Y223600D02*
Y228600D01*
X-586379Y444500D02*
X-558800Y416921D01*
Y382900D02*
Y416921D01*
Y382900D02*
X-556900Y381000D01*
X-242875Y63500D02*
X-241300Y65075D01*
X749300Y419100D02*
X890800D01*
X747500Y420900D02*
Y544300D01*
X81200Y-257444D02*
X82495Y-258739D01*
X647700Y546100D02*
X653500Y540300D01*
X-120096Y238851D02*
X-118800Y237556D01*
X-168800Y-285943D02*
Y-257444D01*
X-533400Y-889900D02*
Y-738000D01*
X895800Y541100D02*
X900800Y546100D01*
X890800Y419100D02*
X895800Y424100D01*
Y541100D01*
X745700Y546100D02*
X747500Y544300D01*
X-242595Y-136271D02*
X-241300Y-134976D01*
X-242595Y-86258D02*
X-241300Y-84963D01*
X479505Y25400D02*
X575400D01*
X253700Y65075D02*
X439830D01*
X479505Y25400D01*
X253700Y15062D02*
X425638D01*
D33*
X0Y-1500255D02*
Y-1447800D01*
X57654Y-1557909D02*
X152646D01*
X152900Y-1581150D02*
X153154Y-1581404D01*
Y-1625263D02*
Y-1581404D01*
Y-1625263D02*
X203590Y-1675699D01*
X312844D01*
X342900Y-1645643D02*
Y-1581150D01*
X977950D01*
X1092200Y-1695400D01*
X142100Y-850900D02*
X153846Y-862646D01*
X312844Y-1675699D02*
X342900Y-1645643D01*
X0Y-1500255D02*
X57654Y-1557909D01*
X0Y-1306830D02*
X635Y-1307465D01*
D34*
X-114300Y711200D02*
X-89869Y686769D01*
X-73800Y668700D02*
X38100D01*
X-89869Y684769D02*
Y686769D01*
Y684769D02*
X-73800Y668700D01*
X190500Y812800D02*
X317500Y939800D01*
X393700D01*
X54700Y469900D02*
Y484900D01*
X38100Y501500D02*
Y668700D01*
Y501500D02*
X54700Y484900D01*
X38100Y753700D02*
X179300D01*
X190500Y742500D01*
Y654500D02*
X197731Y661731D01*
X314960D01*
X190500Y742500D02*
Y812800D01*
X139700Y469900D02*
Y603700D01*
Y454900D02*
Y469900D01*
Y603700D02*
X190500Y654500D01*
X81200Y396400D02*
X139700Y454900D01*
X81200Y237556D02*
Y396400D01*
X31200Y431400D02*
X54700Y454900D01*
X31200Y237556D02*
Y431400D01*
X54700Y454900D02*
Y469900D01*
D35*
X1292200Y-1695400D02*
D03*
X1092200D02*
D03*
X1292200Y-1495400D02*
D03*
X1092200D02*
D03*
X1292200Y-1295400D02*
D03*
X1092200D02*
D03*
X1292200Y-1095400D02*
D03*
X1092200D02*
D03*
X1292200Y-895400D02*
D03*
X1092200D02*
D03*
X1292200Y-695400D02*
D03*
X1092200D02*
D03*
D36*
X-111910Y108166D02*
D03*
X-33170D02*
D03*
X45570D02*
D03*
X124310D02*
D03*
X-111910Y29426D02*
D03*
X-33170D02*
D03*
X45570D02*
D03*
X124310D02*
D03*
X-111910Y-49314D02*
D03*
X-33170D02*
D03*
X45570D02*
D03*
X124310D02*
D03*
X-111910Y-128054D02*
D03*
X-33170D02*
D03*
X45570D02*
D03*
X124310D02*
D03*
D37*
X1790700Y2133600D02*
D03*
Y2006600D02*
D03*
Y1879600D02*
D03*
Y1752600D02*
D03*
Y1625600D02*
D03*
Y1498600D02*
D03*
Y1371600D02*
D03*
Y1244600D02*
D03*
Y1117600D02*
D03*
Y990600D02*
D03*
Y863600D02*
D03*
Y736600D02*
D03*
Y609600D02*
D03*
Y482600D02*
D03*
Y355600D02*
D03*
Y228600D02*
D03*
Y101600D02*
D03*
Y-25400D02*
D03*
Y-152400D02*
D03*
Y-279400D02*
D03*
Y-406400D02*
D03*
Y-533400D02*
D03*
Y-660400D02*
D03*
Y-787400D02*
D03*
Y-914400D02*
D03*
Y-1041400D02*
D03*
Y-1168400D02*
D03*
Y-1295400D02*
D03*
Y-1422400D02*
D03*
Y-1549400D02*
D03*
Y-1676400D02*
D03*
Y-1803400D02*
D03*
Y-1930400D02*
D03*
X1663700Y2133600D02*
D03*
Y2006600D02*
D03*
Y1879600D02*
D03*
Y1752600D02*
D03*
Y1625600D02*
D03*
Y1498600D02*
D03*
Y1371600D02*
D03*
Y1244600D02*
D03*
Y1117600D02*
D03*
Y990600D02*
D03*
Y863600D02*
D03*
Y736600D02*
D03*
Y609600D02*
D03*
Y482600D02*
D03*
Y355600D02*
D03*
Y228600D02*
D03*
Y101600D02*
D03*
Y-25400D02*
D03*
Y-152400D02*
D03*
Y-279400D02*
D03*
Y-406400D02*
D03*
Y-533400D02*
D03*
Y-660400D02*
D03*
Y-787400D02*
D03*
Y-914400D02*
D03*
Y-1041400D02*
D03*
Y-1168400D02*
D03*
Y-1295400D02*
D03*
Y-1422400D02*
D03*
Y-1549400D02*
D03*
Y-1676400D02*
D03*
Y-1803400D02*
D03*
Y-1930400D02*
D03*
X1536700Y2133600D02*
D03*
Y2006600D02*
D03*
Y1879600D02*
D03*
Y1752600D02*
D03*
Y1625600D02*
D03*
Y1498600D02*
D03*
Y1371600D02*
D03*
Y1244600D02*
D03*
Y1117600D02*
D03*
Y990600D02*
D03*
Y863600D02*
D03*
Y736600D02*
D03*
Y609600D02*
D03*
Y482600D02*
D03*
Y355600D02*
D03*
Y228600D02*
D03*
Y101600D02*
D03*
Y-25400D02*
D03*
Y-152400D02*
D03*
Y-279400D02*
D03*
Y-406400D02*
D03*
Y-1422400D02*
D03*
Y-1549400D02*
D03*
Y-1676400D02*
D03*
Y-1803400D02*
D03*
Y-1930400D02*
D03*
X1409700Y2133600D02*
D03*
Y2006600D02*
D03*
Y1879600D02*
D03*
Y1752600D02*
D03*
Y1625600D02*
D03*
Y1498600D02*
D03*
Y1371600D02*
D03*
Y1244600D02*
D03*
Y1117600D02*
D03*
Y990600D02*
D03*
Y863600D02*
D03*
Y736600D02*
D03*
Y609600D02*
D03*
Y482600D02*
D03*
Y355600D02*
D03*
Y228600D02*
D03*
Y101600D02*
D03*
Y-25400D02*
D03*
Y-152400D02*
D03*
Y-279400D02*
D03*
Y-1930400D02*
D03*
X1282700Y2133600D02*
D03*
Y2006600D02*
D03*
Y1879600D02*
D03*
Y1752600D02*
D03*
Y1625600D02*
D03*
Y1498600D02*
D03*
Y1371600D02*
D03*
Y1244600D02*
D03*
Y1117600D02*
D03*
Y990600D02*
D03*
Y863600D02*
D03*
Y736600D02*
D03*
Y609600D02*
D03*
Y482600D02*
D03*
Y355600D02*
D03*
Y228600D02*
D03*
Y101600D02*
D03*
Y-25400D02*
D03*
Y-152400D02*
D03*
Y-1930400D02*
D03*
X1155700Y2133600D02*
D03*
Y2006600D02*
D03*
Y1879600D02*
D03*
Y1752600D02*
D03*
Y1625600D02*
D03*
Y1498600D02*
D03*
Y1371600D02*
D03*
Y1244600D02*
D03*
Y1117600D02*
D03*
Y990600D02*
D03*
Y863600D02*
D03*
Y736600D02*
D03*
Y609600D02*
D03*
Y-1930400D02*
D03*
X1028700Y2133600D02*
D03*
Y2006600D02*
D03*
Y1879600D02*
D03*
Y1752600D02*
D03*
Y1625600D02*
D03*
Y1498600D02*
D03*
Y1371600D02*
D03*
Y1244600D02*
D03*
Y990600D02*
D03*
Y863600D02*
D03*
Y736600D02*
D03*
Y-1930400D02*
D03*
X901700Y2133600D02*
D03*
Y2006600D02*
D03*
Y1879600D02*
D03*
Y1752600D02*
D03*
Y1625600D02*
D03*
Y1498600D02*
D03*
Y1371600D02*
D03*
Y863600D02*
D03*
Y736600D02*
D03*
Y-1422400D02*
D03*
Y-1803400D02*
D03*
Y-1930400D02*
D03*
X774700Y2133600D02*
D03*
Y2006600D02*
D03*
Y1879600D02*
D03*
Y1752600D02*
D03*
Y1625600D02*
D03*
Y1498600D02*
D03*
Y-1422400D02*
D03*
Y-1803400D02*
D03*
Y-1930400D02*
D03*
X647700Y2133600D02*
D03*
Y2006600D02*
D03*
Y1879600D02*
D03*
Y1752600D02*
D03*
Y1625600D02*
D03*
Y-1422400D02*
D03*
Y-1803400D02*
D03*
Y-1930400D02*
D03*
X520700Y2133600D02*
D03*
Y2006600D02*
D03*
Y1879600D02*
D03*
Y1752600D02*
D03*
Y1244600D02*
D03*
Y1117600D02*
D03*
Y-1422400D02*
D03*
Y-1803400D02*
D03*
Y-1930400D02*
D03*
X393700Y2133600D02*
D03*
Y2006600D02*
D03*
Y1879600D02*
D03*
Y1371600D02*
D03*
Y1244600D02*
D03*
Y1117600D02*
D03*
Y736600D02*
D03*
Y-1803400D02*
D03*
Y-1930400D02*
D03*
X266700Y2133600D02*
D03*
Y2006600D02*
D03*
Y1498600D02*
D03*
Y1371600D02*
D03*
Y1244600D02*
D03*
Y1117600D02*
D03*
Y-1803400D02*
D03*
Y-1930400D02*
D03*
X139700Y1244600D02*
D03*
Y1117600D02*
D03*
Y990600D02*
D03*
Y-1803400D02*
D03*
Y-1930400D02*
D03*
X12700Y1244600D02*
D03*
Y1117600D02*
D03*
Y990600D02*
D03*
Y-1676400D02*
D03*
Y-1803400D02*
D03*
Y-1930400D02*
D03*
X-114300Y1244600D02*
D03*
Y1117600D02*
D03*
Y990600D02*
D03*
Y-1422400D02*
D03*
Y-1549400D02*
D03*
Y-1676400D02*
D03*
Y-1803400D02*
D03*
Y-1930400D02*
D03*
X-241300Y1244600D02*
D03*
Y1117600D02*
D03*
Y990600D02*
D03*
Y-1422400D02*
D03*
Y-1549400D02*
D03*
Y-1676400D02*
D03*
Y-1803400D02*
D03*
Y-1930400D02*
D03*
X-368300Y1244600D02*
D03*
Y1117600D02*
D03*
Y990600D02*
D03*
Y-1422400D02*
D03*
Y-1549400D02*
D03*
Y-1676400D02*
D03*
Y-1803400D02*
D03*
Y-1930400D02*
D03*
X-495300Y1244600D02*
D03*
Y1117600D02*
D03*
Y990600D02*
D03*
Y863600D02*
D03*
Y-1422400D02*
D03*
Y-1549400D02*
D03*
Y-1676400D02*
D03*
Y-1803400D02*
D03*
Y-1930400D02*
D03*
X-622300Y1244600D02*
D03*
Y1117600D02*
D03*
Y990600D02*
D03*
Y863600D02*
D03*
Y736600D02*
D03*
Y609600D02*
D03*
Y-1422400D02*
D03*
Y-1549400D02*
D03*
Y-1676400D02*
D03*
Y-1803400D02*
D03*
Y-1930400D02*
D03*
X-749300Y1244600D02*
D03*
Y1117600D02*
D03*
Y990600D02*
D03*
Y863600D02*
D03*
Y736600D02*
D03*
Y609600D02*
D03*
Y-1422400D02*
D03*
Y-1549400D02*
D03*
Y-1676400D02*
D03*
Y-1803400D02*
D03*
Y-1930400D02*
D03*
X-876300Y2133600D02*
D03*
Y2006600D02*
D03*
Y1879600D02*
D03*
Y1752600D02*
D03*
Y1625600D02*
D03*
Y1498600D02*
D03*
Y1371600D02*
D03*
Y1244600D02*
D03*
Y1117600D02*
D03*
Y990600D02*
D03*
Y863600D02*
D03*
Y736600D02*
D03*
Y609600D02*
D03*
Y-1422400D02*
D03*
Y-1549400D02*
D03*
Y-1676400D02*
D03*
Y-1803400D02*
D03*
Y-1930400D02*
D03*
X-1003300Y2133600D02*
D03*
Y2006600D02*
D03*
Y1879600D02*
D03*
Y1752600D02*
D03*
Y1625600D02*
D03*
Y1498600D02*
D03*
Y1371600D02*
D03*
Y1244600D02*
D03*
Y1117600D02*
D03*
Y990600D02*
D03*
Y863600D02*
D03*
Y736600D02*
D03*
Y609600D02*
D03*
Y482600D02*
D03*
Y355600D02*
D03*
Y228600D02*
D03*
Y101600D02*
D03*
Y-25400D02*
D03*
Y-152400D02*
D03*
Y-279400D02*
D03*
Y-406400D02*
D03*
Y-533400D02*
D03*
Y-660400D02*
D03*
Y-787400D02*
D03*
Y-914400D02*
D03*
Y-1041400D02*
D03*
Y-1168400D02*
D03*
Y-1295400D02*
D03*
Y-1422400D02*
D03*
Y-1549400D02*
D03*
Y-1676400D02*
D03*
Y-1803400D02*
D03*
Y-1930400D02*
D03*
X-1130300Y2133600D02*
D03*
Y2006600D02*
D03*
Y1879600D02*
D03*
Y1752600D02*
D03*
Y1625600D02*
D03*
Y1498600D02*
D03*
Y1371600D02*
D03*
Y1244600D02*
D03*
Y1117600D02*
D03*
Y990600D02*
D03*
Y863600D02*
D03*
Y736600D02*
D03*
Y609600D02*
D03*
Y482600D02*
D03*
Y355600D02*
D03*
Y228600D02*
D03*
Y101600D02*
D03*
Y-25400D02*
D03*
Y-152400D02*
D03*
Y-279400D02*
D03*
Y-406400D02*
D03*
Y-533400D02*
D03*
Y-660400D02*
D03*
Y-787400D02*
D03*
Y-914400D02*
D03*
Y-1041400D02*
D03*
Y-1168400D02*
D03*
Y-1295400D02*
D03*
Y-1422400D02*
D03*
Y-1549400D02*
D03*
Y-1676400D02*
D03*
Y-1803400D02*
D03*
Y-1930400D02*
D03*
X314960Y822960D02*
D03*
X621084Y-129586D02*
D03*
X-292100Y-254000D02*
D03*
X-431800Y469900D02*
D03*
X-203200Y-558800D02*
D03*
X-87000Y-419100D02*
D03*
X304800Y-743900D02*
D03*
X636990Y-275722D02*
D03*
X-63500Y-558800D02*
D03*
X-165100Y-393700D02*
D03*
X38100Y-1168400D02*
D03*
X-38100D02*
D03*
X736600Y-203200D02*
D03*
X749300Y-63500D02*
D03*
X317500Y-977900D02*
D03*
X-266700Y-660400D02*
D03*
X-609600Y-977900D02*
D03*
X-698500Y-876300D02*
D03*
X-838200Y-685800D02*
D03*
X-927100Y-584200D02*
D03*
X1028700Y1117600D02*
D03*
X-508000Y660400D02*
D03*
X-419100Y736600D02*
D03*
X254000Y-1447800D02*
D03*
X-114300Y889000D02*
D03*
X-254000D02*
D03*
X-736600Y-342900D02*
D03*
X-825500Y-254000D02*
D03*
X-736600Y-38100D02*
D03*
Y50800D02*
D03*
X-723900Y254000D02*
D03*
Y355600D02*
D03*
X457200Y203200D02*
D03*
X1079500Y546100D02*
D03*
X1092200Y419100D02*
D03*
X990600Y317500D02*
D03*
X546100Y266700D02*
D03*
X749300Y25400D02*
D03*
Y330200D02*
D03*
X-711200Y152400D02*
D03*
X-533400Y-406400D02*
D03*
X660400Y114300D02*
D03*
X-703580Y-147320D02*
D03*
X190500Y-1016000D02*
D03*
Y-1168400D02*
D03*
X114300Y-1016000D02*
D03*
X152400Y-1092200D02*
D03*
X114300Y-1168400D02*
D03*
X38100Y-863600D02*
D03*
X76200Y-939800D02*
D03*
X38100Y-1016000D02*
D03*
X76200Y-1092200D02*
D03*
X-38100Y-863600D02*
D03*
X0Y-939800D02*
D03*
X-38100Y-1016000D02*
D03*
X0Y-1092200D02*
D03*
X-698500Y444500D02*
D03*
X-330200Y-609600D02*
D03*
%TF.MD5,2642af3315dc2708e8665f1bceb99b53*%
M02*
